<svg xmlns="http://www.w3.org/2000/svg" xmlns:xlink="http://www.w3.org/1999/xlink" width="650" height="417" viewBox="0 0 650 417">
  <defs>
    <filter id="Trazado_189019" x="246" y="0" width="158" height="68" filterUnits="userSpaceOnUse">
      <feOffset dy="3" input="SourceAlpha"/>
      <feGaussianBlur stdDeviation="3" result="blur"/>
      <feFlood flood-opacity="0.141"/>
      <feComposite operator="in" in2="blur"/>
      <feComposite in="SourceGraphic"/>
    </filter>
    <filter id="Trazado_189012" x="0" y="93" width="158" height="68" filterUnits="userSpaceOnUse">
      <feOffset dy="3" input="SourceAlpha"/>
      <feGaussianBlur stdDeviation="3" result="blur-2"/>
      <feFlood flood-opacity="0.141"/>
      <feComposite operator="in" in2="blur-2"/>
      <feComposite in="SourceGraphic"/>
    </filter>
    <filter id="Trazado_189035" x="279.5" y="278.5" width="158" height="68" filterUnits="userSpaceOnUse">
      <feOffset dy="3" input="SourceAlpha"/>
      <feGaussianBlur stdDeviation="3" result="blur-3"/>
      <feFlood flood-opacity="0.141"/>
      <feComposite operator="in" in2="blur-3"/>
      <feComposite in="SourceGraphic"/>
    </filter>
    <filter id="Trazado_189042" x="279" y="349" width="158" height="68" filterUnits="userSpaceOnUse">
      <feOffset dy="3" input="SourceAlpha"/>
      <feGaussianBlur stdDeviation="3" result="blur-4"/>
      <feFlood flood-opacity="0.141"/>
      <feComposite operator="in" in2="blur-4"/>
      <feComposite in="SourceGraphic"/>
    </filter>
    <filter id="Trazado_189014" x="164" y="93" width="158" height="68" filterUnits="userSpaceOnUse">
      <feOffset dy="3" input="SourceAlpha"/>
      <feGaussianBlur stdDeviation="3" result="blur-5"/>
      <feFlood flood-opacity="0.141"/>
      <feComposite operator="in" in2="blur-5"/>
      <feComposite in="SourceGraphic"/>
    </filter>
    <filter id="Trazado_189021" x="246.5" y="208" width="158" height="68" filterUnits="userSpaceOnUse">
      <feOffset dy="3" input="SourceAlpha"/>
      <feGaussianBlur stdDeviation="3" result="blur-6"/>
      <feFlood flood-opacity="0.141"/>
      <feComposite operator="in" in2="blur-6"/>
      <feComposite in="SourceGraphic"/>
    </filter>
    <filter id="Trazado_189025" x="328" y="93" width="158" height="68" filterUnits="userSpaceOnUse">
      <feOffset dy="3" input="SourceAlpha"/>
      <feGaussianBlur stdDeviation="3" result="blur-7"/>
      <feFlood flood-opacity="0.141"/>
      <feComposite operator="in" in2="blur-7"/>
      <feComposite in="SourceGraphic"/>
    </filter>
    <filter id="Trazado_189037" x="492" y="93" width="158" height="68" filterUnits="userSpaceOnUse">
      <feOffset dy="3" input="SourceAlpha"/>
      <feGaussianBlur stdDeviation="3" result="blur-8"/>
      <feFlood flood-opacity="0.141"/>
      <feComposite operator="in" in2="blur-8"/>
      <feComposite in="SourceGraphic"/>
    </filter>
    <filter id="Trazado_189029" x="410.5" y="208" width="158" height="68" filterUnits="userSpaceOnUse">
      <feOffset dy="3" input="SourceAlpha"/>
      <feGaussianBlur stdDeviation="3" result="blur-9"/>
      <feFlood flood-opacity="0.141"/>
      <feComposite operator="in" in2="blur-9"/>
      <feComposite in="SourceGraphic"/>
    </filter>
  </defs>
  <g id="Grupo_132011" data-name="Grupo 132011" transform="translate(6313.437 9483)">
    <g transform="matrix(1, 0, 0, 1, -6313.44, -9483)" filter="url(#Trazado_189019)">
      <path id="Trazado_189019-2" data-name="Trazado 189019" d="M17,0H123a17,17,0,0,1,17,17V33a17,17,0,0,1-17,17H17A17,17,0,0,1,0,33V17A17,17,0,0,1,17,0Z" transform="translate(255 6)" fill="#fff1ba"/>
    </g>
    <path id="Trazado_189020" data-name="Trazado 189020" d="M-23.389,0V-9.953h2.81a4.523,4.523,0,0,1,2.3.574,3.884,3.884,0,0,1,1.542,1.634,5.318,5.318,0,0,1,.55,2.434v.636a5.336,5.336,0,0,1-.543,2.468A3.823,3.823,0,0,1-18.286-.581,4.811,4.811,0,0,1-20.634,0Zm1.313-8.88v7.807H-20.7a3,3,0,0,0,2.362-.944,3.9,3.9,0,0,0,.844-2.689v-.582a3.963,3.963,0,0,0-.8-2.637,2.834,2.834,0,0,0-2.259-.954ZM-13.033,0H-14.3V-7.4h1.265ZM-14.4-9.358a.755.755,0,0,1,.188-.52.706.706,0,0,1,.557-.212.717.717,0,0,1,.561.212.747.747,0,0,1,.191.52.722.722,0,0,1-.191.513.73.73,0,0,1-.561.205.718.718,0,0,1-.557-.205A.73.73,0,0,1-14.4-9.358Zm6.966,3.1a3.79,3.79,0,0,0-.622-.048A1.667,1.667,0,0,0-9.745-5.25V0h-1.265V-7.4h1.23l.021.854a1.969,1.969,0,0,1,1.764-.991,1.292,1.292,0,0,1,.561.1Zm4.1,6.4A3.232,3.232,0,0,1-5.78-.851a3.666,3.666,0,0,1-.943-2.642v-.232A4.438,4.438,0,0,1-6.3-5.691,3.28,3.28,0,0,1-5.127-7.044,2.956,2.956,0,0,1-3.49-7.533a2.77,2.77,0,0,1,2.242.95,4.114,4.114,0,0,1,.8,2.721v.526H-5.458a2.629,2.629,0,0,0,.639,1.767A2.009,2.009,0,0,0-3.264-.9a2.2,2.2,0,0,0,1.135-.273,2.851,2.851,0,0,0,.813-.725l.772.6A3.106,3.106,0,0,1-3.333.137ZM-3.49-6.494a1.687,1.687,0,0,0-1.285.557,2.708,2.708,0,0,0-.643,1.562h3.705v-.1a2.409,2.409,0,0,0-.52-1.494A1.588,1.588,0,0,0-3.49-6.494ZM3.982-.9a1.822,1.822,0,0,0,1.183-.41,1.443,1.443,0,0,0,.561-1.025h1.2a2.293,2.293,0,0,1-.437,1.21,2.881,2.881,0,0,1-1.077.916A3.107,3.107,0,0,1,3.982.137a3.047,3.047,0,0,1-2.4-1.008A4.016,4.016,0,0,1,.687-3.63v-.212a4.453,4.453,0,0,1,.4-1.921A3.02,3.02,0,0,1,2.222-7.068a3.233,3.233,0,0,1,1.753-.465,2.966,2.966,0,0,1,2.068.745,2.663,2.663,0,0,1,.878,1.935h-1.2a1.743,1.743,0,0,0-.543-1.179,1.691,1.691,0,0,0-1.207-.461A1.77,1.77,0,0,0,2.481-5.8a3.259,3.259,0,0,0-.53,2.006v.239a3.194,3.194,0,0,0,.526,1.969A1.779,1.779,0,0,0,3.982-.9Zm6.077-8.292V-7.4H11.44v.978H10.059v4.593a1.027,1.027,0,0,0,.185.667.777.777,0,0,0,.629.222,3.062,3.062,0,0,0,.6-.082V0A3.688,3.688,0,0,1,10.5.137,1.575,1.575,0,0,1,9.225-.376a2.2,2.2,0,0,1-.431-1.456V-6.419H7.448V-7.4H8.794V-9.187Zm2.386,5.421a4.369,4.369,0,0,1,.427-1.955,3.187,3.187,0,0,1,1.189-1.34,3.238,3.238,0,0,1,1.74-.472,3.119,3.119,0,0,1,2.444,1.046,4.024,4.024,0,0,1,.933,2.782v.089a4.407,4.407,0,0,1-.414,1.938A3.14,3.14,0,0,1,17.582-.342a3.275,3.275,0,0,1-1.767.479A3.111,3.111,0,0,1,13.378-.909a4,4,0,0,1-.933-2.769Zm1.271.15a3.164,3.164,0,0,0,.571,1.976A1.827,1.827,0,0,0,15.815-.9a1.816,1.816,0,0,0,1.531-.755,3.46,3.46,0,0,0,.567-2.116,3.159,3.159,0,0,0-.578-1.972A1.836,1.836,0,0,0,15.8-6.494a1.816,1.816,0,0,0-1.511.745A3.434,3.434,0,0,0,13.716-3.616ZM24.339-6.262a3.79,3.79,0,0,0-.622-.048,1.667,1.667,0,0,0-1.688,1.06V0H20.764V-7.4h1.23l.021.854a1.969,1.969,0,0,1,1.764-.991,1.292,1.292,0,0,1,.561.1Zm-46.628,20.5a4.347,4.347,0,0,1,.8-2.751,2.558,2.558,0,0,1,2.119-1.022,2.544,2.544,0,0,1,2.112.957l.062-.82h1.155v7.219a3.009,3.009,0,0,1-.851,2.263,3.141,3.141,0,0,1-2.287.827,3.8,3.8,0,0,1-1.565-.342,2.7,2.7,0,0,1-1.169-.937l.656-.759a2.473,2.473,0,0,0,1.989,1,1.938,1.938,0,0,0,1.439-.52,1.986,1.986,0,0,0,.516-1.463v-.636a2.6,2.6,0,0,1-2.071.875,2.527,2.527,0,0,1-2.1-1.046A4.571,4.571,0,0,1-22.289,14.24Zm1.271.144a3.316,3.316,0,0,0,.513,1.965,1.666,1.666,0,0,0,1.436.714,1.852,1.852,0,0,0,1.757-1.087V12.6a1.874,1.874,0,0,0-1.743-1.06,1.681,1.681,0,0,0-1.442.718A3.612,3.612,0,0,0-21.017,14.384Zm9.953,3.753a3.232,3.232,0,0,1-2.447-.988,3.666,3.666,0,0,1-.943-2.642v-.232a4.438,4.438,0,0,1,.42-1.965,3.28,3.28,0,0,1,1.176-1.354,2.956,2.956,0,0,1,1.637-.489,2.77,2.77,0,0,1,2.242.95,4.114,4.114,0,0,1,.8,2.721v.526H-13.19a2.629,2.629,0,0,0,.639,1.767A2.009,2.009,0,0,0-11,17.1a2.2,2.2,0,0,0,1.135-.273,2.851,2.851,0,0,0,.813-.725l.772.6A3.106,3.106,0,0,1-11.064,18.137Zm-.157-6.631a1.687,1.687,0,0,0-1.285.557,2.708,2.708,0,0,0-.643,1.562h3.705v-.1a2.409,2.409,0,0,0-.52-1.494A1.588,1.588,0,0,0-11.221,11.506Zm5.7-.9.041.93a2.7,2.7,0,0,1,2.215-1.066q2.345,0,2.365,2.646V18H-2.164V13.105a1.7,1.7,0,0,0-.366-1.183,1.466,1.466,0,0,0-1.118-.383,1.825,1.825,0,0,0-1.08.328,2.228,2.228,0,0,0-.725.861V18H-6.716V10.6Zm9.6,7.533a3.232,3.232,0,0,1-2.447-.988,3.666,3.666,0,0,1-.943-2.642v-.232a4.438,4.438,0,0,1,.42-1.965,3.28,3.28,0,0,1,1.176-1.354,2.956,2.956,0,0,1,1.637-.489,2.77,2.77,0,0,1,2.242.95,4.114,4.114,0,0,1,.8,2.721v.526H1.952a2.629,2.629,0,0,0,.639,1.767,2.009,2.009,0,0,0,1.555.673,2.2,2.2,0,0,0,1.135-.273,2.851,2.851,0,0,0,.813-.725l.772.6A3.106,3.106,0,0,1,4.078,18.137ZM3.92,11.506a1.687,1.687,0,0,0-1.285.557,2.708,2.708,0,0,0-.643,1.562H5.7v-.1a2.409,2.409,0,0,0-.52-1.494A1.588,1.588,0,0,0,3.92,11.506Zm8.08.232a3.79,3.79,0,0,0-.622-.048A1.667,1.667,0,0,0,9.69,12.75V18H8.425V10.6h1.23l.021.854a1.969,1.969,0,0,1,1.764-.991,1.292,1.292,0,0,1,.561.1ZM17.456,18a2.657,2.657,0,0,1-.178-.779,2.822,2.822,0,0,1-2.105.916,2.611,2.611,0,0,1-1.794-.619,2,2,0,0,1-.7-1.569,2.091,2.091,0,0,1,.878-1.794,4.142,4.142,0,0,1,2.471-.639h1.23v-.581a1.42,1.42,0,0,0-.4-1.056,1.593,1.593,0,0,0-1.169-.393,1.844,1.844,0,0,0-1.135.342,1.007,1.007,0,0,0-.458.827H12.828a1.745,1.745,0,0,1,.393-1.07,2.683,2.683,0,0,1,1.066-.817,3.588,3.588,0,0,1,1.48-.3,2.924,2.924,0,0,1,2,.639,2.306,2.306,0,0,1,.752,1.76v3.4a4.162,4.162,0,0,0,.26,1.62V18Zm-2.1-.964a2.223,2.223,0,0,0,1.128-.308,1.861,1.861,0,0,0,.772-.8V14.411h-.991q-2.324,0-2.324,1.36a1.151,1.151,0,0,0,.4.93A1.524,1.524,0,0,0,15.357,17.036ZM21.878,18H20.614V7.5h1.265Z" transform="translate(-5988.437 -9456.5)" fill="#12263f"/>
    <g transform="matrix(1, 0, 0, 1, -6313.44, -9483)" filter="url(#Trazado_189012)">
      <path id="Trazado_189012-2" data-name="Trazado 189012" d="M17,0H123a17,17,0,0,1,17,17V33a17,17,0,0,1-17,17H17A17,17,0,0,1,0,33V17A17,17,0,0,1,17,0Z" transform="translate(9 99)" fill="#fff1ba"/>
    </g>
    <path id="Trazado_189013" data-name="Trazado 189013" d="M-40.411-2.6h-4.17L-45.517,0h-1.354l3.8-9.953h1.148L-38.114,0H-39.46Zm-3.773-1.073H-40.8l-1.7-4.655Zm6.9-.082A4.333,4.333,0,0,1-36.473-6.5a2.551,2.551,0,0,1,2.112-1.036,2.565,2.565,0,0,1,2.058.889V-10.5h1.265V0H-32.2l-.062-.793a2.575,2.575,0,0,1-2.112.93,2.526,2.526,0,0,1-2.1-1.053,4.382,4.382,0,0,1-.81-2.748Zm1.265.144a3.281,3.281,0,0,0,.52,1.969,1.68,1.68,0,0,0,1.436.711A1.845,1.845,0,0,0-32.3-2.017v-3.4A1.859,1.859,0,0,0-34.046-6.46a1.687,1.687,0,0,0-1.449.718A3.612,3.612,0,0,0-36.015-3.616Zm8.128-3.78.034.82a2.732,2.732,0,0,1,2.194-.957,2.115,2.115,0,0,1,2.112,1.189,2.8,2.8,0,0,1,.96-.861,2.837,2.837,0,0,1,1.4-.328q2.434,0,2.475,2.577V0h-1.265V-4.881a1.7,1.7,0,0,0-.362-1.186,1.6,1.6,0,0,0-1.217-.393,1.677,1.677,0,0,0-1.169.42,1.706,1.706,0,0,0-.54,1.131V0h-1.271V-4.847A1.411,1.411,0,0,0-26.117-6.46a1.692,1.692,0,0,0-1.7,1.06V0h-1.265V-7.4ZM-15.432,0H-16.7V-7.4h1.265ZM-16.8-9.358a.755.755,0,0,1,.188-.52.706.706,0,0,1,.557-.212.717.717,0,0,1,.561.212.747.747,0,0,1,.191.52.722.722,0,0,1-.191.513.73.73,0,0,1-.561.205.718.718,0,0,1-.557-.205A.73.73,0,0,1-16.8-9.358ZM-12.212-7.4l.041.93A2.7,2.7,0,0,1-9.957-7.533q2.345,0,2.365,2.646V0H-8.856V-4.895a1.7,1.7,0,0,0-.366-1.183,1.466,1.466,0,0,0-1.118-.383,1.825,1.825,0,0,0-1.08.328,2.228,2.228,0,0,0-.725.861V0h-1.265V-7.4ZM-4.31,0H-5.575V-7.4H-4.31ZM-5.677-9.358a.755.755,0,0,1,.188-.52.706.706,0,0,1,.557-.212.717.717,0,0,1,.561.212.747.747,0,0,1,.191.52.722.722,0,0,1-.191.513.73.73,0,0,1-.561.205.718.718,0,0,1-.557-.205A.73.73,0,0,1-5.677-9.358Zm7.7,7.4a.931.931,0,0,0-.386-.8A3.718,3.718,0,0,0,.287-3.247a6.367,6.367,0,0,1-1.524-.492,2.169,2.169,0,0,1-.834-.684,1.635,1.635,0,0,1-.27-.943A1.919,1.919,0,0,1-1.572-6.9,3,3,0,0,1,.393-7.533a3.091,3.091,0,0,1,2.041.649,2.063,2.063,0,0,1,.783,1.661H1.945a1.142,1.142,0,0,0-.441-.9A1.652,1.652,0,0,0,.393-6.494a1.729,1.729,0,0,0-1.08.3.947.947,0,0,0-.39.786.767.767,0,0,0,.362.69,4.458,4.458,0,0,0,1.309.444,6.821,6.821,0,0,1,1.535.506A2.239,2.239,0,0,1,3-3.059a1.74,1.74,0,0,1,.284,1.008A1.893,1.893,0,0,1,2.492-.461a3.326,3.326,0,0,1-2.058.6A3.725,3.725,0,0,1-1.138-.178a2.557,2.557,0,0,1-1.07-.878,2.117,2.117,0,0,1-.386-1.22H-1.33A1.309,1.309,0,0,0-.82-1.268,1.976,1.976,0,0,0,.434-.9a2.039,2.039,0,0,0,1.152-.291A.893.893,0,0,0,2.02-1.962ZM6.648-9.187V-7.4H8.029v.978H6.648v4.593a1.027,1.027,0,0,0,.185.667.777.777,0,0,0,.629.222,3.062,3.062,0,0,0,.6-.082V0a3.688,3.688,0,0,1-.971.136A1.575,1.575,0,0,1,5.814-.376a2.2,2.2,0,0,1-.431-1.456V-6.419H4.037V-7.4H5.383V-9.187Zm6.433,2.926a3.79,3.79,0,0,0-.622-.048A1.667,1.667,0,0,0,10.77-5.25V0H9.505V-7.4h1.23l.021.854a1.969,1.969,0,0,1,1.764-.991,1.292,1.292,0,0,1,.561.1ZM18.536,0a2.657,2.657,0,0,1-.178-.779,2.822,2.822,0,0,1-2.105.916,2.611,2.611,0,0,1-1.794-.619,2,2,0,0,1-.7-1.569,2.091,2.091,0,0,1,.878-1.794,4.142,4.142,0,0,1,2.471-.639h1.23v-.581a1.42,1.42,0,0,0-.4-1.056,1.593,1.593,0,0,0-1.169-.393,1.844,1.844,0,0,0-1.135.342,1.007,1.007,0,0,0-.458.827H13.908a1.745,1.745,0,0,1,.393-1.07,2.683,2.683,0,0,1,1.066-.817,3.588,3.588,0,0,1,1.48-.3,2.924,2.924,0,0,1,2,.639,2.306,2.306,0,0,1,.752,1.76v3.4a4.162,4.162,0,0,0,.26,1.62V0Zm-2.1-.964a2.223,2.223,0,0,0,1.128-.308,1.861,1.861,0,0,0,.772-.8V-3.589h-.991q-2.324,0-2.324,1.36a1.151,1.151,0,0,0,.4.93A1.524,1.524,0,0,0,16.437-.964ZM24.551-.9a1.822,1.822,0,0,0,1.183-.41,1.443,1.443,0,0,0,.561-1.025h1.2a2.293,2.293,0,0,1-.437,1.21,2.881,2.881,0,0,1-1.077.916,3.107,3.107,0,0,1-1.425.342,3.047,3.047,0,0,1-2.4-1.008,4.016,4.016,0,0,1-.892-2.758v-.212a4.453,4.453,0,0,1,.4-1.921,3.02,3.02,0,0,1,1.138-1.306,3.233,3.233,0,0,1,1.753-.465,2.966,2.966,0,0,1,2.068.745,2.663,2.663,0,0,1,.878,1.935h-1.2a1.743,1.743,0,0,0-.543-1.179,1.691,1.691,0,0,0-1.207-.461,1.77,1.77,0,0,0-1.494.694,3.259,3.259,0,0,0-.53,2.006v.239a3.194,3.194,0,0,0,.526,1.969A1.779,1.779,0,0,0,24.551-.9Zm5.735.9H29.022V-7.4h1.265ZM28.919-9.358a.755.755,0,0,1,.188-.52.706.706,0,0,1,.557-.212.717.717,0,0,1,.561.212.747.747,0,0,1,.191.52.722.722,0,0,1-.191.513.73.73,0,0,1-.561.205.718.718,0,0,1-.557-.205A.73.73,0,0,1,28.919-9.358Zm3.056,5.592A4.369,4.369,0,0,1,32.4-5.722a3.187,3.187,0,0,1,1.189-1.34,3.238,3.238,0,0,1,1.74-.472,3.119,3.119,0,0,1,2.444,1.046,4.024,4.024,0,0,1,.933,2.782v.089a4.407,4.407,0,0,1-.414,1.938A3.14,3.14,0,0,1,37.112-.342a3.275,3.275,0,0,1-1.767.479A3.111,3.111,0,0,1,32.908-.909a4,4,0,0,1-.933-2.769Zm1.271.15a3.164,3.164,0,0,0,.571,1.976A1.827,1.827,0,0,0,35.345-.9a1.816,1.816,0,0,0,1.531-.755,3.46,3.46,0,0,0,.567-2.116,3.159,3.159,0,0,0-.578-1.972,1.836,1.836,0,0,0-1.535-.755,1.816,1.816,0,0,0-1.511.745A3.434,3.434,0,0,0,33.247-3.616Zm2.659-6.87h1.531L35.6-8.477l-1.019,0ZM41.491-7.4l.041.93a2.7,2.7,0,0,1,2.215-1.066q2.345,0,2.365,2.646V0H44.847V-4.895a1.7,1.7,0,0,0-.366-1.183,1.466,1.466,0,0,0-1.118-.383,1.825,1.825,0,0,0-1.08.328,2.228,2.228,0,0,0-.725.861V0H40.294V-7.4Z" transform="translate(-6234.437 -9354.5)" fill="#12263f"/>
    <g transform="matrix(1, 0, 0, 1, -6313.44, -9483)" filter="url(#Trazado_189035)">
      <path id="Trazado_189035-2" data-name="Trazado 189035" d="M17,0H123a17,17,0,0,1,17,17V33a17,17,0,0,1-17,17H17A17,17,0,0,1,0,33V17A17,17,0,0,1,17,0Z" transform="translate(288.5 284.5)" fill="#fff1ba"/>
    </g>
    <path id="Trazado_189036" data-name="Trazado 189036" d="M-21.79,0h-1.285l.8-4.6h-4.86l-.8,4.6H-29.22l1.729-9.953h1.285l-.745,4.279H-22.1l.745-4.279h1.292Zm6.651,0a1.657,1.657,0,0,1-.048-.39l.021-.39a3.032,3.032,0,0,1-2.16.916,2.21,2.21,0,0,1-1.589-.619A1.872,1.872,0,0,1-19.472-2a2.277,2.277,0,0,1,1.029-1.835,4.38,4.38,0,0,1,2.526-.66l1.292.007.082-.588A1.352,1.352,0,0,0-14.8-6.122a1.237,1.237,0,0,0-.974-.4A1.908,1.908,0,0,0-16.9-6.21a1.324,1.324,0,0,0-.6.858l-1.244.007A1.983,1.983,0,0,1-18.235-6.5a2.943,2.943,0,0,1,1.142-.779,3.688,3.688,0,0,1,1.442-.263,2.452,2.452,0,0,1,1.8.7,2.173,2.173,0,0,1,.54,1.788l-.6,3.664-.034.526a2.58,2.58,0,0,0,.082.745L-13.88,0ZM-17.08-.957a2.158,2.158,0,0,0,1.125-.284,2.847,2.847,0,0,0,.913-.824l.267-1.524-.937-.007a3.547,3.547,0,0,0-1.791.369,1.36,1.36,0,0,0-.7,1.046,1.059,1.059,0,0,0,.243.865A1.156,1.156,0,0,0-17.08-.957ZM-7.6-6.269l-.581-.062a2.117,2.117,0,0,0-1.873,1.073L-10.968,0h-1.237l1.285-7.4,1.2-.007-.185.861a2.211,2.211,0,0,1,1.853-1,2.27,2.27,0,0,1,.588.1Zm.417,2.557a5.755,5.755,0,0,1,.622-2.037,3.527,3.527,0,0,1,1.2-1.36A2.736,2.736,0,0,1-3.8-7.54a2.31,2.31,0,0,1,1.9.9l.711-3.862H.044L-1.774,0H-2.9l.13-.793a2.727,2.727,0,0,1-2.16.93,2.043,2.043,0,0,1-1.634-.8,3.5,3.5,0,0,1-.656-2.082A6.648,6.648,0,0,1-7.188-3.712ZM-6-3.005A2.563,2.563,0,0,0-5.65-1.49a1.258,1.258,0,0,0,1.08.553A2.235,2.235,0,0,0-2.663-2.015l.588-3.414a1.535,1.535,0,0,0-1.49-1.038,1.875,1.875,0,0,0-1.289.44A2.849,2.849,0,0,0-5.7-4.736,5.322,5.322,0,0,0-6-3.005ZM6.819-1.75,9.177-7.4h1.278L7.085,0h-1L5.315-5.592,2.649,0h-1l-.8-7.4H2.027l.451,5.51L5.1-7.4h1ZM14.981,0a1.657,1.657,0,0,1-.048-.39l.021-.39a3.032,3.032,0,0,1-2.16.916A2.21,2.21,0,0,1,11.2-.482,1.872,1.872,0,0,1,10.647-2a2.277,2.277,0,0,1,1.029-1.835,4.38,4.38,0,0,1,2.526-.66l1.292.007.082-.588a1.352,1.352,0,0,0-.256-1.049,1.237,1.237,0,0,0-.974-.4,1.908,1.908,0,0,0-1.125.311,1.324,1.324,0,0,0-.6.858l-1.244.007A1.983,1.983,0,0,1,11.884-6.5a2.943,2.943,0,0,1,1.142-.779,3.688,3.688,0,0,1,1.442-.263,2.452,2.452,0,0,1,1.8.7,2.173,2.173,0,0,1,.54,1.788l-.6,3.664-.034.526a2.58,2.58,0,0,0,.082.745L16.239,0ZM13.04-.957a2.158,2.158,0,0,0,1.125-.284,2.847,2.847,0,0,0,.913-.824l.267-1.524L14.407-3.6a3.547,3.547,0,0,0-1.791.369,1.36,1.36,0,0,0-.7,1.046,1.059,1.059,0,0,0,.243.865A1.156,1.156,0,0,0,13.04-.957Zm9.475-5.312-.581-.062A2.117,2.117,0,0,0,20.06-5.257L19.151,0H17.914L19.2-7.4,20.4-7.4l-.185.861a2.211,2.211,0,0,1,1.853-1,2.27,2.27,0,0,1,.588.1ZM25.775.137a2.667,2.667,0,0,1-2.16-1.019,3.505,3.505,0,0,1-.656-2.536l.034-.294a4.921,4.921,0,0,1,.653-2.01,3.8,3.8,0,0,1,1.309-1.371,3.054,3.054,0,0,1,1.668-.441,2.352,2.352,0,0,1,1.791.759,3.121,3.121,0,0,1,.711,1.982A5.793,5.793,0,0,1,29.1-3.9l-.075.567H24.189a2.5,2.5,0,0,0,.332,1.709A1.57,1.57,0,0,0,25.877-.9,2.631,2.631,0,0,0,27.9-1.88l.711.6a3.253,3.253,0,0,1-1.2,1.049A3.4,3.4,0,0,1,25.775.137ZM26.561-6.5a1.807,1.807,0,0,0-1.336.52,3.693,3.693,0,0,0-.906,1.606l3.6.007.027-.109a2.024,2.024,0,0,0-.277-1.432A1.3,1.3,0,0,0,26.561-6.5Z" transform="translate(-5954.937 -9168)" fill="#12263f"/>
    <g transform="matrix(1, 0, 0, 1, -6313.44, -9483)" filter="url(#Trazado_189042)">
      <path id="Trazado_189042-2" data-name="Trazado 189042" d="M17,0H123a17,17,0,0,1,17,17V33a17,17,0,0,1-17,17H17A17,17,0,0,1,0,33V17A17,17,0,0,1,17,0Z" transform="translate(288 355)" fill="#fff1ba"/>
    </g>
    <path id="Trazado_189043" data-name="Trazado 189043" d="M-21.448-2.563q.15-1.094-1.135-1.6l-1.183-.431-.4-.171q-2-.909-1.866-2.557a2.674,2.674,0,0,1,.567-1.463,3.228,3.228,0,0,1,1.323-.981,4.243,4.243,0,0,1,1.753-.325,3.5,3.5,0,0,1,1.61.4A2.592,2.592,0,0,1-19.7-8.617a2.916,2.916,0,0,1,.328,1.548l-1.292-.007a1.783,1.783,0,0,0-.41-1.423,1.836,1.836,0,0,0-1.367-.518A2.547,2.547,0,0,0-24-8.578a1.711,1.711,0,0,0-.725,1.233q-.137,1.02,1.251,1.548l1.019.363.513.219a2.574,2.574,0,0,1,1.784,2.639,2.636,2.636,0,0,1-.567,1.453,3.172,3.172,0,0,1-1.336.947,4.607,4.607,0,0,1-1.815.314,3.8,3.8,0,0,1-1.712-.4A2.794,2.794,0,0,1-26.773-1.34a2.693,2.693,0,0,1-.355-1.552l1.285.007a1.693,1.693,0,0,0,.482,1.412,2.169,2.169,0,0,0,1.535.537,2.74,2.74,0,0,0,1.634-.431A1.677,1.677,0,0,0-21.448-2.563Zm6.453-4.97a2.666,2.666,0,0,1,1.593.506,2.874,2.874,0,0,1,.981,1.357,4.2,4.2,0,0,1,.215,1.89l-.014.15a4.975,4.975,0,0,1-.643,1.952A3.77,3.77,0,0,1-14.188-.321a3.234,3.234,0,0,1-1.784.458,2.671,2.671,0,0,1-1.589-.506,2.809,2.809,0,0,1-.974-1.34,4.314,4.314,0,0,1-.219-1.866,5.04,5.04,0,0,1,.622-2.064A3.858,3.858,0,0,1-16.8-7.058,3.2,3.2,0,0,1-14.995-7.533ZM-17.51-3.568a4.2,4.2,0,0,0,0,.9,2.194,2.194,0,0,0,.482,1.285,1.447,1.447,0,0,0,1.1.5,1.971,1.971,0,0,0,1.135-.3,2.554,2.554,0,0,0,.875-.981,4.131,4.131,0,0,0,.458-1.456,6.558,6.558,0,0,0,.021-1.06A2.277,2.277,0,0,0-13.935-6,1.479,1.479,0,0,0-15.042-6.5a2.016,2.016,0,0,0-1.627.752A3.715,3.715,0,0,0-17.5-3.726ZM-10.688,0l1.121-6.419h-1.142l.171-.978H-9.4l.123-.875a2.9,2.9,0,0,1,.861-1.743,2.561,2.561,0,0,1,1.832-.643,4.274,4.274,0,0,1,.882.117L-5.855-9.5a4.057,4.057,0,0,0-.663-.082,1.412,1.412,0,0,0-1.042.4,1.814,1.814,0,0,0-.5,1.06l-.109.729h1.531l-.171.978H-8.336L-9.451,0Zm7.451-9.187L-3.551-7.4H-2.2l-.171.978h-1.34l-.772,4.6a1.6,1.6,0,0,0-.007.328.521.521,0,0,0,.581.533,3.544,3.544,0,0,0,.6-.068l-.1,1.032a3.366,3.366,0,0,1-.9.123A1.292,1.292,0,0,1-5.417-.414,2.1,2.1,0,0,1-5.7-1.839l.752-4.58H-6.258l.171-.978h1.306l.314-1.791ZM4.638-1.75,7-7.4H8.275L4.9,0h-1L3.134-5.592.468,0h-1l-.8-7.4H-.154L.3-1.887,2.922-7.4h1ZM12.8,0a1.657,1.657,0,0,1-.048-.39l.021-.39a3.032,3.032,0,0,1-2.16.916A2.21,2.21,0,0,1,9.023-.482,1.872,1.872,0,0,1,8.466-2,2.277,2.277,0,0,1,9.5-3.832a4.38,4.38,0,0,1,2.526-.66l1.292.007.082-.588a1.352,1.352,0,0,0-.256-1.049,1.237,1.237,0,0,0-.974-.4,1.908,1.908,0,0,0-1.125.311,1.324,1.324,0,0,0-.6.858L9.2-5.346A1.983,1.983,0,0,1,9.7-6.5a2.943,2.943,0,0,1,1.142-.779,3.688,3.688,0,0,1,1.442-.263,2.452,2.452,0,0,1,1.8.7,2.173,2.173,0,0,1,.54,1.788l-.6,3.664-.034.526a2.58,2.58,0,0,0,.082.745L14.058,0ZM10.859-.957a2.158,2.158,0,0,0,1.125-.284,2.847,2.847,0,0,0,.913-.824l.267-1.524L12.226-3.6a3.547,3.547,0,0,0-1.791.369,1.36,1.36,0,0,0-.7,1.046,1.059,1.059,0,0,0,.243.865A1.156,1.156,0,0,0,10.859-.957Zm9.475-5.312-.581-.062a2.117,2.117,0,0,0-1.873,1.073L16.97,0H15.733l1.285-7.4,1.2-.007-.185.861a2.211,2.211,0,0,1,1.853-1,2.27,2.27,0,0,1,.588.1ZM23.594.137a2.667,2.667,0,0,1-2.16-1.019,3.505,3.505,0,0,1-.656-2.536l.034-.294a4.921,4.921,0,0,1,.653-2.01,3.8,3.8,0,0,1,1.309-1.371,3.054,3.054,0,0,1,1.668-.441,2.352,2.352,0,0,1,1.791.759,3.121,3.121,0,0,1,.711,1.982,5.793,5.793,0,0,1-.027.889l-.075.567H22.008a2.5,2.5,0,0,0,.332,1.709A1.57,1.57,0,0,0,23.7-.9,2.631,2.631,0,0,0,25.72-1.88l.711.6a3.253,3.253,0,0,1-1.2,1.049A3.4,3.4,0,0,1,23.594.137ZM24.38-6.5a1.807,1.807,0,0,0-1.336.52,3.693,3.693,0,0,0-.906,1.606l3.6.007.027-.109a2.024,2.024,0,0,0-.277-1.432A1.3,1.3,0,0,0,24.38-6.5Z" transform="translate(-5955.437 -9097.5)" fill="#12263f"/>
    <g transform="matrix(1, 0, 0, 1, -6313.44, -9483)" filter="url(#Trazado_189014)">
      <path id="Trazado_189014-2" data-name="Trazado 189014" d="M17,0H123a17,17,0,0,1,17,17V33a17,17,0,0,1-17,17H17A17,17,0,0,1,0,33V17A17,17,0,0,1,17,0Z" transform="translate(173 99)" fill="#fff1ba"/>
    </g>
    <path id="Trazado_189015" data-name="Trazado 189015" d="M-28.4-9.953l3.254,8.121,3.254-8.121h1.7V0H-21.5V-3.876l.123-4.184L-24.647,0h-1l-3.261-8.039.13,4.163V0H-30.1V-9.953ZM-13.5,0a2.657,2.657,0,0,1-.178-.779,2.822,2.822,0,0,1-2.105.916,2.611,2.611,0,0,1-1.794-.619,2,2,0,0,1-.7-1.569A2.091,2.091,0,0,1-17.4-3.845a4.142,4.142,0,0,1,2.471-.639h1.23v-.581a1.42,1.42,0,0,0-.4-1.056,1.593,1.593,0,0,0-1.169-.393,1.844,1.844,0,0,0-1.135.342,1.007,1.007,0,0,0-.458.827h-1.271a1.745,1.745,0,0,1,.393-1.07,2.683,2.683,0,0,1,1.066-.817,3.588,3.588,0,0,1,1.48-.3,2.924,2.924,0,0,1,2,.639,2.306,2.306,0,0,1,.752,1.76v3.4a4.162,4.162,0,0,0,.26,1.62V0Zm-2.1-.964a2.223,2.223,0,0,0,1.128-.308,1.861,1.861,0,0,0,.772-.8V-3.589h-.991q-2.324,0-2.324,1.36a1.151,1.151,0,0,0,.4.93A1.524,1.524,0,0,0-15.6-.964Zm8.723-5.3A3.79,3.79,0,0,0-7.5-6.31,1.667,1.667,0,0,0-9.191-5.25V0h-1.265V-7.4h1.23l.021.854a1.969,1.969,0,0,1,1.764-.991,1.292,1.292,0,0,1,.561.1Zm3.227,2.837-.793.827V0H-5.711V-10.5h1.265v6.351l.677-.813,2.3-2.434H.072l-2.878,3.09L.407,0H-1.077ZM4.31.137A3.232,3.232,0,0,1,1.863-.851,3.666,3.666,0,0,1,.919-3.493v-.232a4.438,4.438,0,0,1,.42-1.965A3.28,3.28,0,0,1,2.516-7.044a2.956,2.956,0,0,1,1.637-.489,2.77,2.77,0,0,1,2.242.95,4.114,4.114,0,0,1,.8,2.721v.526H2.184a2.629,2.629,0,0,0,.639,1.767A2.009,2.009,0,0,0,4.378-.9a2.2,2.2,0,0,0,1.135-.273,2.851,2.851,0,0,0,.813-.725l.772.6A3.106,3.106,0,0,1,4.31.137ZM4.153-6.494a1.687,1.687,0,0,0-1.285.557,2.708,2.708,0,0,0-.643,1.562H5.93v-.1a2.409,2.409,0,0,0-.52-1.494A1.588,1.588,0,0,0,4.153-6.494Zm6.221-2.693V-7.4h1.381v.978H10.374v4.593a1.027,1.027,0,0,0,.185.667.777.777,0,0,0,.629.222,3.062,3.062,0,0,0,.6-.082V0a3.688,3.688,0,0,1-.971.136A1.575,1.575,0,0,1,9.54-.376a2.2,2.2,0,0,1-.431-1.456V-6.419H7.762V-7.4H9.109V-9.187ZM14.6,0H13.34V-7.4H14.6ZM13.238-9.358a.755.755,0,0,1,.188-.52.706.706,0,0,1,.557-.212.717.717,0,0,1,.561.212.747.747,0,0,1,.191.52.722.722,0,0,1-.191.513.73.73,0,0,1-.561.205.718.718,0,0,1-.557-.205A.73.73,0,0,1,13.238-9.358ZM17.825-7.4l.041.93a2.7,2.7,0,0,1,2.215-1.066q2.345,0,2.365,2.646V0H21.181V-4.895a1.7,1.7,0,0,0-.366-1.183A1.466,1.466,0,0,0,19.7-6.46a1.825,1.825,0,0,0-1.08.328,2.228,2.228,0,0,0-.725.861V0H16.628V-7.4ZM24.052-3.76a4.347,4.347,0,0,1,.8-2.751,2.558,2.558,0,0,1,2.119-1.022,2.544,2.544,0,0,1,2.112.957l.062-.82H30.3V-.178a3.009,3.009,0,0,1-.851,2.263,3.141,3.141,0,0,1-2.287.827A3.8,3.8,0,0,1,25.6,2.57a2.7,2.7,0,0,1-1.169-.937l.656-.759a2.473,2.473,0,0,0,1.989,1,1.938,1.938,0,0,0,1.439-.52A1.986,1.986,0,0,0,29.029-.1V-.738a2.6,2.6,0,0,1-2.071.875,2.527,2.527,0,0,1-2.1-1.046A4.571,4.571,0,0,1,24.052-3.76Zm1.271.144a3.316,3.316,0,0,0,.513,1.965,1.666,1.666,0,0,0,1.436.714,1.852,1.852,0,0,0,1.757-1.087V-5.4a1.874,1.874,0,0,0-1.743-1.06,1.681,1.681,0,0,0-1.442.718A3.612,3.612,0,0,0,25.324-3.616Z" transform="translate(-6070.437 -9354.5)" fill="#12263f"/>
    <g transform="matrix(1, 0, 0, 1, -6313.44, -9483)" filter="url(#Trazado_189021)">
      <path id="Trazado_189021-2" data-name="Trazado 189021" d="M17,0H123a17,17,0,0,1,17,17V33a17,17,0,0,1-17,17H17A17,17,0,0,1,0,33V17A17,17,0,0,1,17,0Z" transform="translate(255.5 214)" fill="#fff1ba"/>
    </g>
    <path id="Trazado_189022" data-name="Trazado 189022" d="M6.781-4.6H2.468v3.527H7.479V0H1.155V-9.953H7.41V-8.88H2.468v3.206H6.781ZM10.288,0H9.023V-10.5h1.265Zm5.093.137a3.232,3.232,0,0,1-2.447-.988,3.666,3.666,0,0,1-.943-2.642v-.232a4.438,4.438,0,0,1,.42-1.965,3.28,3.28,0,0,1,1.176-1.354,2.956,2.956,0,0,1,1.637-.489,2.77,2.77,0,0,1,2.242.95,4.114,4.114,0,0,1,.8,2.721v.526H13.255a2.629,2.629,0,0,0,.639,1.767A2.009,2.009,0,0,0,15.449-.9a2.2,2.2,0,0,0,1.135-.273,2.851,2.851,0,0,0,.813-.725l.772.6A3.106,3.106,0,0,1,15.381.137Zm-.157-6.631a1.687,1.687,0,0,0-1.285.557A2.708,2.708,0,0,0,13.3-4.375H17v-.1a2.409,2.409,0,0,0-.52-1.494A1.588,1.588,0,0,0,15.224-6.494Zm.615-3.992H17.37l-1.832,2.01-1.019,0ZM22.7-.9a1.822,1.822,0,0,0,1.183-.41,1.443,1.443,0,0,0,.561-1.025h1.2a2.293,2.293,0,0,1-.437,1.21,2.881,2.881,0,0,1-1.077.916A3.107,3.107,0,0,1,22.7.137a3.047,3.047,0,0,1-2.4-1.008A4.016,4.016,0,0,1,19.4-3.63v-.212a4.453,4.453,0,0,1,.4-1.921,3.02,3.02,0,0,1,1.138-1.306,3.233,3.233,0,0,1,1.753-.465,2.966,2.966,0,0,1,2.068.745,2.663,2.663,0,0,1,.878,1.935h-1.2A1.743,1.743,0,0,0,23.9-6.033a1.691,1.691,0,0,0-1.207-.461,1.77,1.77,0,0,0-1.494.694,3.259,3.259,0,0,0-.53,2.006v.239a3.194,3.194,0,0,0,.526,1.969A1.779,1.779,0,0,0,22.7-.9Zm6.077-8.292V-7.4h1.381v.978H28.772v4.593a1.027,1.027,0,0,0,.185.667.777.777,0,0,0,.629.222,3.062,3.062,0,0,0,.6-.082V0a3.688,3.688,0,0,1-.971.136,1.575,1.575,0,0,1-1.278-.513,2.2,2.2,0,0,1-.431-1.456V-6.419H26.161V-7.4h1.347V-9.187Zm6.433,2.926a3.79,3.79,0,0,0-.622-.048,1.667,1.667,0,0,0-1.688,1.06V0H31.63V-7.4h1.23l.021.854a1.969,1.969,0,0,1,1.764-.991,1.292,1.292,0,0,1,.561.1ZM37.741,0H36.477V-7.4h1.265ZM36.374-9.358a.755.755,0,0,1,.188-.52.706.706,0,0,1,.557-.212.717.717,0,0,1,.561.212.747.747,0,0,1,.191.52.722.722,0,0,1-.191.513.73.73,0,0,1-.561.205.718.718,0,0,1-.557-.205A.73.73,0,0,1,36.374-9.358ZM42.731-.9a1.822,1.822,0,0,0,1.183-.41,1.443,1.443,0,0,0,.561-1.025h1.2a2.293,2.293,0,0,1-.437,1.21,2.881,2.881,0,0,1-1.077.916,3.107,3.107,0,0,1-1.425.342,3.047,3.047,0,0,1-2.4-1.008,4.016,4.016,0,0,1-.892-2.758v-.212a4.453,4.453,0,0,1,.4-1.921,3.02,3.02,0,0,1,1.138-1.306,3.233,3.233,0,0,1,1.753-.465,2.966,2.966,0,0,1,2.068.745,2.663,2.663,0,0,1,.878,1.935h-1.2a1.743,1.743,0,0,0-.543-1.179,1.691,1.691,0,0,0-1.207-.461,1.77,1.77,0,0,0-1.494.694,3.259,3.259,0,0,0-.53,2.006v.239a3.194,3.194,0,0,0,.526,1.969A1.779,1.779,0,0,0,42.731-.9Zm8.928.9a2.657,2.657,0,0,1-.178-.779,2.822,2.822,0,0,1-2.105.916,2.611,2.611,0,0,1-1.794-.619,2,2,0,0,1-.7-1.569,2.091,2.091,0,0,1,.878-1.794,4.142,4.142,0,0,1,2.471-.639h1.23v-.581a1.42,1.42,0,0,0-.4-1.056A1.593,1.593,0,0,0,49.9-6.515a1.844,1.844,0,0,0-1.135.342,1.007,1.007,0,0,0-.458.827H47.031a1.745,1.745,0,0,1,.393-1.07,2.683,2.683,0,0,1,1.066-.817,3.588,3.588,0,0,1,1.48-.3,2.924,2.924,0,0,1,2,.639,2.306,2.306,0,0,1,.752,1.76v3.4a4.162,4.162,0,0,0,.26,1.62V0Zm-2.1-.964a2.223,2.223,0,0,0,1.128-.308,1.861,1.861,0,0,0,.772-.8V-3.589H50.47q-2.324,0-2.324,1.36a1.151,1.151,0,0,0,.4.93A1.524,1.524,0,0,0,49.561-.964Z" transform="translate(-6014.937 -9239.5)" fill="#12263f"/>
    <g transform="matrix(1, 0, 0, 1, -6313.44, -9483)" filter="url(#Trazado_189025)">
      <path id="Trazado_189025-2" data-name="Trazado 189025" d="M17,0H123a17,17,0,0,1,17,17V33a17,17,0,0,1-17,17H17A17,17,0,0,1,0,33V17A17,17,0,0,1,17,0Z" transform="translate(337 99)" fill="#fff1ba"/>
    </g>
    <path id="Trazado_189026" data-name="Trazado 189026" d="M-28.014,0h-1.312V-9.953h1.313Zm3.4-7.4.041.93A2.7,2.7,0,0,1-22.36-7.533q2.345,0,2.365,2.646V0H-21.26V-4.895a1.7,1.7,0,0,0-.366-1.183,1.466,1.466,0,0,0-1.118-.383,1.825,1.825,0,0,0-1.08.328,2.228,2.228,0,0,0-.725.861V0h-1.265V-7.4Zm6.228,3.637a4.347,4.347,0,0,1,.8-2.751A2.558,2.558,0,0,1-15.47-7.533a2.544,2.544,0,0,1,2.112.957l.062-.82h1.155V-.178a3.009,3.009,0,0,1-.851,2.263,3.141,3.141,0,0,1-2.287.827,3.8,3.8,0,0,1-1.565-.342,2.7,2.7,0,0,1-1.169-.937l.656-.759a2.473,2.473,0,0,0,1.989,1,1.938,1.938,0,0,0,1.439-.52A1.986,1.986,0,0,0-13.412-.1V-.738a2.6,2.6,0,0,1-2.071.875,2.527,2.527,0,0,1-2.1-1.046A4.571,4.571,0,0,1-18.389-3.76Zm1.271.144A3.316,3.316,0,0,0-16.6-1.651a1.666,1.666,0,0,0,1.436.714,1.852,1.852,0,0,0,1.757-1.087V-5.4a1.874,1.874,0,0,0-1.743-1.06,1.681,1.681,0,0,0-1.442.718A3.612,3.612,0,0,0-17.117-3.616ZM-7.164.137A3.232,3.232,0,0,1-9.611-.851a3.666,3.666,0,0,1-.943-2.642v-.232a4.438,4.438,0,0,1,.42-1.965A3.28,3.28,0,0,1-8.958-7.044a2.956,2.956,0,0,1,1.637-.489,2.77,2.77,0,0,1,2.242.95,4.114,4.114,0,0,1,.8,2.721v.526H-9.29a2.629,2.629,0,0,0,.639,1.767A2.009,2.009,0,0,0-7.1-.9a2.2,2.2,0,0,0,1.135-.273,2.851,2.851,0,0,0,.813-.725l.772.6A3.106,3.106,0,0,1-7.164.137Zm-.157-6.631a1.687,1.687,0,0,0-1.285.557,2.708,2.708,0,0,0-.643,1.562h3.705v-.1a2.409,2.409,0,0,0-.52-1.494A1.588,1.588,0,0,0-7.321-6.494Zm5.7-.9.041.93A2.7,2.7,0,0,1,.636-7.533Q2.98-7.533,3-4.888V0H1.736V-4.895a1.7,1.7,0,0,0-.366-1.183A1.466,1.466,0,0,0,.253-6.46a1.825,1.825,0,0,0-1.08.328,2.228,2.228,0,0,0-.725.861V0H-2.816V-7.4ZM6.282,0H5.018V-7.4H6.282ZM4.915-9.358a.755.755,0,0,1,.188-.52.706.706,0,0,1,.557-.212.717.717,0,0,1,.561.212.747.747,0,0,1,.191.52.722.722,0,0,1-.191.513.73.73,0,0,1-.561.205A.718.718,0,0,1,5.1-8.846.73.73,0,0,1,4.915-9.358Zm6.46,9.5A3.232,3.232,0,0,1,8.928-.851a3.666,3.666,0,0,1-.943-2.642v-.232A4.438,4.438,0,0,1,8.4-5.691,3.28,3.28,0,0,1,9.581-7.044a2.956,2.956,0,0,1,1.637-.489,2.77,2.77,0,0,1,2.242.95,4.114,4.114,0,0,1,.8,2.721v.526H9.249a2.629,2.629,0,0,0,.639,1.767A2.009,2.009,0,0,0,11.443-.9a2.2,2.2,0,0,0,1.135-.273,2.851,2.851,0,0,0,.813-.725l.772.6A3.106,3.106,0,0,1,11.375.137Zm-.157-6.631a1.687,1.687,0,0,0-1.285.557A2.708,2.708,0,0,0,9.29-4.375H13v-.1a2.409,2.409,0,0,0-.52-1.494A1.588,1.588,0,0,0,11.218-6.494Zm8.08.232a3.79,3.79,0,0,0-.622-.048,1.667,1.667,0,0,0-1.688,1.06V0H15.723V-7.4h1.23l.021.854a1.969,1.969,0,0,1,1.764-.991,1.292,1.292,0,0,1,.561.1ZM21.834,0H20.563V-7.4h1.271Zm.014-10.479h1.531L21.547-8.47l-1.019,0ZM28.485,0a2.657,2.657,0,0,1-.178-.779A2.822,2.822,0,0,1,26.2.137a2.611,2.611,0,0,1-1.794-.619,2,2,0,0,1-.7-1.569,2.091,2.091,0,0,1,.878-1.794,4.142,4.142,0,0,1,2.471-.639h1.23v-.581a1.42,1.42,0,0,0-.4-1.056,1.593,1.593,0,0,0-1.169-.393,1.844,1.844,0,0,0-1.135.342,1.007,1.007,0,0,0-.458.827H23.857a1.745,1.745,0,0,1,.393-1.07,2.683,2.683,0,0,1,1.066-.817,3.588,3.588,0,0,1,1.48-.3,2.924,2.924,0,0,1,2,.639,2.306,2.306,0,0,1,.752,1.76v3.4a4.162,4.162,0,0,0,.26,1.62V0Zm-2.1-.964a2.223,2.223,0,0,0,1.128-.308,1.861,1.861,0,0,0,.772-.8V-3.589H27.3q-2.324,0-2.324,1.36a1.151,1.151,0,0,0,.4.93A1.524,1.524,0,0,0,26.387-.964Z" transform="translate(-5906.437 -9354.5)" fill="#12263f"/>
    <g transform="matrix(1, 0, 0, 1, -6313.44, -9483)" filter="url(#Trazado_189037)">
      <path id="Trazado_189037-2" data-name="Trazado 189037" d="M17,0H123a17,17,0,0,1,17,17V33a17,17,0,0,1-17,17H17A17,17,0,0,1,0,33V17A17,17,0,0,1,17,0Z" transform="translate(501 99)" fill="#fff1ba"/>
    </g>
    <path id="Trazado_189038" data-name="Trazado 189038" d="M-29.6-4.4h-4.177V0h-1.312V-9.953h6.166V-8.88h-4.854v3.411H-29.6ZM-23.215,0a2.657,2.657,0,0,1-.178-.779A2.822,2.822,0,0,1-25.5.137a2.611,2.611,0,0,1-1.794-.619,2,2,0,0,1-.7-1.569,2.091,2.091,0,0,1,.878-1.794,4.142,4.142,0,0,1,2.471-.639h1.23v-.581a1.42,1.42,0,0,0-.4-1.056,1.593,1.593,0,0,0-1.169-.393,1.844,1.844,0,0,0-1.135.342,1.007,1.007,0,0,0-.458.827h-1.271a1.745,1.745,0,0,1,.393-1.07,2.683,2.683,0,0,1,1.066-.817,3.588,3.588,0,0,1,1.48-.3,2.924,2.924,0,0,1,2,.639,2.306,2.306,0,0,1,.752,1.76v3.4a4.162,4.162,0,0,0,.26,1.62V0Zm-2.1-.964a2.223,2.223,0,0,0,1.128-.308,1.861,1.861,0,0,0,.772-.8V-3.589H-24.4q-2.324,0-2.324,1.36a1.151,1.151,0,0,0,.4.93A1.524,1.524,0,0,0-25.313-.964ZM-13.9-3.616a4.4,4.4,0,0,1-.779,2.724A2.49,2.49,0,0,1-16.775.137a2.578,2.578,0,0,1-2.167-.991L-19,0h-1.162V-10.5H-18.9v3.917a2.564,2.564,0,0,1,2.112-.95,2.505,2.505,0,0,1,2.116,1.019A4.53,4.53,0,0,1-13.9-3.726Zm-1.265-.144a3.417,3.417,0,0,0-.5-2,1.652,1.652,0,0,0-1.436-.7A1.857,1.857,0,0,0-18.9-5.3v3.2A1.909,1.909,0,0,0-17.09-.937a1.643,1.643,0,0,0,1.415-.7A3.634,3.634,0,0,0-15.169-3.76Zm6.433-2.5a3.79,3.79,0,0,0-.622-.048,1.667,1.667,0,0,0-1.688,1.06V0h-1.265V-7.4h1.23l.021.854A1.969,1.969,0,0,1-9.3-7.533a1.292,1.292,0,0,1,.561.1ZM-6.2,0H-7.465V-7.4H-6.2ZM-7.567-9.358a.755.755,0,0,1,.188-.52.706.706,0,0,1,.557-.212.717.717,0,0,1,.561.212.747.747,0,0,1,.191.52.722.722,0,0,1-.191.513.73.73,0,0,1-.561.205.718.718,0,0,1-.557-.205A.73.73,0,0,1-7.567-9.358ZM-1.21-.9a1.822,1.822,0,0,0,1.183-.41A1.443,1.443,0,0,0,.533-2.331h1.2a2.293,2.293,0,0,1-.437,1.21A2.881,2.881,0,0,1,.215-.205,3.107,3.107,0,0,1-1.21.137a3.047,3.047,0,0,1-2.4-1.008A4.016,4.016,0,0,1-4.5-3.63v-.212a4.453,4.453,0,0,1,.4-1.921A3.02,3.02,0,0,1-2.97-7.068a3.233,3.233,0,0,1,1.753-.465,2.966,2.966,0,0,1,2.068.745,2.663,2.663,0,0,1,.878,1.935H.533A1.743,1.743,0,0,0-.01-6.033a1.691,1.691,0,0,0-1.207-.461A1.77,1.77,0,0,0-2.71-5.8a3.259,3.259,0,0,0-.53,2.006v.239a3.194,3.194,0,0,0,.526,1.969A1.779,1.779,0,0,0-1.21-.9ZM7.718,0A2.657,2.657,0,0,1,7.54-.779,2.822,2.822,0,0,1,5.435.137,2.611,2.611,0,0,1,3.64-.482a2,2,0,0,1-.7-1.569,2.091,2.091,0,0,1,.878-1.794,4.142,4.142,0,0,1,2.471-.639H7.52v-.581a1.42,1.42,0,0,0-.4-1.056,1.593,1.593,0,0,0-1.169-.393,1.844,1.844,0,0,0-1.135.342,1.007,1.007,0,0,0-.458.827H3.09a1.745,1.745,0,0,1,.393-1.07,2.683,2.683,0,0,1,1.066-.817,3.588,3.588,0,0,1,1.48-.3,2.924,2.924,0,0,1,2,.639,2.306,2.306,0,0,1,.752,1.76v3.4a4.162,4.162,0,0,0,.26,1.62V0Zm-2.1-.964a2.223,2.223,0,0,0,1.128-.308,1.861,1.861,0,0,0,.772-.8V-3.589H6.528Q4.2-3.589,4.2-2.229a1.151,1.151,0,0,0,.4.93A1.524,1.524,0,0,0,5.619-.964ZM13.733-.9a1.822,1.822,0,0,0,1.183-.41,1.443,1.443,0,0,0,.561-1.025h1.2a2.293,2.293,0,0,1-.437,1.21,2.881,2.881,0,0,1-1.077.916,3.107,3.107,0,0,1-1.425.342,3.047,3.047,0,0,1-2.4-1.008,4.016,4.016,0,0,1-.892-2.758v-.212a4.453,4.453,0,0,1,.4-1.921,3.02,3.02,0,0,1,1.138-1.306,3.233,3.233,0,0,1,1.753-.465,2.966,2.966,0,0,1,2.068.745,2.663,2.663,0,0,1,.878,1.935h-1.2a1.743,1.743,0,0,0-.543-1.179,1.691,1.691,0,0,0-1.207-.461,1.77,1.77,0,0,0-1.494.694,3.259,3.259,0,0,0-.53,2.006v.239a3.194,3.194,0,0,0,.526,1.969A1.779,1.779,0,0,0,13.733-.9Zm5.735.9H18.2V-7.4h1.265ZM18.1-9.358a.755.755,0,0,1,.188-.52.706.706,0,0,1,.557-.212.717.717,0,0,1,.561.212.747.747,0,0,1,.191.52.722.722,0,0,1-.191.513.73.73,0,0,1-.561.205.718.718,0,0,1-.557-.205A.73.73,0,0,1,18.1-9.358Zm3.056,5.592a4.369,4.369,0,0,1,.427-1.955,3.187,3.187,0,0,1,1.189-1.34,3.238,3.238,0,0,1,1.74-.472,3.119,3.119,0,0,1,2.444,1.046,4.024,4.024,0,0,1,.933,2.782v.089a4.407,4.407,0,0,1-.414,1.938A3.14,3.14,0,0,1,26.294-.342a3.275,3.275,0,0,1-1.767.479A3.111,3.111,0,0,1,22.09-.909a4,4,0,0,1-.933-2.769Zm1.271.15A3.164,3.164,0,0,0,23-1.641,1.827,1.827,0,0,0,24.527-.9a1.816,1.816,0,0,0,1.531-.755,3.46,3.46,0,0,0,.567-2.116,3.159,3.159,0,0,0-.578-1.972,1.836,1.836,0,0,0-1.535-.755A1.816,1.816,0,0,0,23-5.749,3.434,3.434,0,0,0,22.429-3.616Zm2.659-6.87h1.531l-1.832,2.01-1.019,0ZM30.673-7.4l.041.93a2.7,2.7,0,0,1,2.215-1.066q2.345,0,2.365,2.646V0H34.029V-4.895a1.7,1.7,0,0,0-.366-1.183,1.466,1.466,0,0,0-1.118-.383,1.825,1.825,0,0,0-1.08.328,2.228,2.228,0,0,0-.725.861V0H29.477V-7.4Z" transform="translate(-5742.437 -9354.5)" fill="#12263f"/>
    <g transform="matrix(1, 0, 0, 1, -6313.44, -9483)" filter="url(#Trazado_189029)">
      <path id="Trazado_189029-2" data-name="Trazado 189029" d="M17,0H123a17,17,0,0,1,17,17V33a17,17,0,0,1-17,17H17A17,17,0,0,1,0,33V17A17,17,0,0,1,17,0Z" transform="translate(419.5 214)" fill="#fff1ba"/>
    </g>
    <path id="Trazado_189030" data-name="Trazado 189030" d="M2.851-9.953,6.1-1.832,9.358-9.953h1.7V0H9.748V-3.876L9.871-8.06,6.6,0h-1L2.338-8.039l.13,4.163V0H1.155V-9.953ZM16.249.137A3.232,3.232,0,0,1,13.8-.851a3.666,3.666,0,0,1-.943-2.642v-.232a4.438,4.438,0,0,1,.42-1.965,3.28,3.28,0,0,1,1.176-1.354,2.956,2.956,0,0,1,1.637-.489,2.77,2.77,0,0,1,2.242.95,4.114,4.114,0,0,1,.8,2.721v.526H14.123a2.629,2.629,0,0,0,.639,1.767A2.009,2.009,0,0,0,16.317-.9a2.2,2.2,0,0,0,1.135-.273,2.851,2.851,0,0,0,.813-.725l.772.6A3.106,3.106,0,0,1,16.249.137Zm-.157-6.631a1.687,1.687,0,0,0-1.285.557,2.708,2.708,0,0,0-.643,1.562h3.705v-.1a2.409,2.409,0,0,0-.52-1.494A1.588,1.588,0,0,0,16.092-6.494ZM23.563-.9a1.822,1.822,0,0,0,1.183-.41,1.443,1.443,0,0,0,.561-1.025h1.2a2.293,2.293,0,0,1-.437,1.21,2.881,2.881,0,0,1-1.077.916,3.107,3.107,0,0,1-1.425.342,3.047,3.047,0,0,1-2.4-1.008,4.016,4.016,0,0,1-.892-2.758v-.212a4.453,4.453,0,0,1,.4-1.921A3.02,3.02,0,0,1,21.8-7.068a3.233,3.233,0,0,1,1.753-.465,2.966,2.966,0,0,1,2.068.745A2.663,2.663,0,0,1,26.5-4.854h-1.2a1.743,1.743,0,0,0-.543-1.179,1.691,1.691,0,0,0-1.207-.461,1.77,1.77,0,0,0-1.494.694,3.259,3.259,0,0,0-.53,2.006v.239a3.194,3.194,0,0,0,.526,1.969A1.779,1.779,0,0,0,23.563-.9Zm8.928.9a2.657,2.657,0,0,1-.178-.779,2.822,2.822,0,0,1-2.105.916,2.611,2.611,0,0,1-1.794-.619,2,2,0,0,1-.7-1.569,2.091,2.091,0,0,1,.878-1.794,4.142,4.142,0,0,1,2.471-.639h1.23v-.581a1.42,1.42,0,0,0-.4-1.056,1.593,1.593,0,0,0-1.169-.393,1.844,1.844,0,0,0-1.135.342,1.007,1.007,0,0,0-.458.827H27.863a1.745,1.745,0,0,1,.393-1.07,2.683,2.683,0,0,1,1.066-.817,3.588,3.588,0,0,1,1.48-.3,2.924,2.924,0,0,1,2,.639,2.306,2.306,0,0,1,.752,1.76v3.4a4.162,4.162,0,0,0,.26,1.62V0Zm-2.1-.964a2.223,2.223,0,0,0,1.128-.308,1.861,1.861,0,0,0,.772-.8V-3.589H31.3q-2.324,0-2.324,1.36a1.151,1.151,0,0,0,.4.93A1.524,1.524,0,0,0,30.393-.964Zm1.169-9.522h1.531l-1.832,2.01-1.019,0ZM36.736-7.4l.041.93a2.7,2.7,0,0,1,2.215-1.066q2.345,0,2.365,2.646V0H40.093V-4.895a1.7,1.7,0,0,0-.366-1.183,1.466,1.466,0,0,0-1.118-.383,1.825,1.825,0,0,0-1.08.328,2.228,2.228,0,0,0-.725.861V0H35.54V-7.4Zm7.9,7.4H43.374V-7.4h1.265ZM43.271-9.358a.755.755,0,0,1,.188-.52.706.706,0,0,1,.557-.212.717.717,0,0,1,.561.212.747.747,0,0,1,.191.52.722.722,0,0,1-.191.513.73.73,0,0,1-.561.205.718.718,0,0,1-.557-.205A.73.73,0,0,1,43.271-9.358ZM49.629-.9a1.822,1.822,0,0,0,1.183-.41,1.443,1.443,0,0,0,.561-1.025h1.2a2.293,2.293,0,0,1-.437,1.21,2.881,2.881,0,0,1-1.077.916,3.107,3.107,0,0,1-1.425.342,3.047,3.047,0,0,1-2.4-1.008,4.016,4.016,0,0,1-.892-2.758v-.212a4.453,4.453,0,0,1,.4-1.921,3.02,3.02,0,0,1,1.138-1.306,3.233,3.233,0,0,1,1.753-.465,2.966,2.966,0,0,1,2.068.745,2.663,2.663,0,0,1,.878,1.935h-1.2a1.743,1.743,0,0,0-.543-1.179,1.691,1.691,0,0,0-1.207-.461,1.77,1.77,0,0,0-1.494.694,3.259,3.259,0,0,0-.53,2.006v.239a3.194,3.194,0,0,0,.526,1.969A1.779,1.779,0,0,0,49.629-.9Zm8.928.9a2.657,2.657,0,0,1-.178-.779,2.822,2.822,0,0,1-2.105.916,2.611,2.611,0,0,1-1.794-.619,2,2,0,0,1-.7-1.569,2.091,2.091,0,0,1,.878-1.794,4.142,4.142,0,0,1,2.471-.639h1.23v-.581a1.42,1.42,0,0,0-.4-1.056,1.593,1.593,0,0,0-1.169-.393,1.844,1.844,0,0,0-1.135.342,1.007,1.007,0,0,0-.458.827H53.929a1.745,1.745,0,0,1,.393-1.07,2.683,2.683,0,0,1,1.066-.817,3.588,3.588,0,0,1,1.48-.3,2.924,2.924,0,0,1,2,.639,2.306,2.306,0,0,1,.752,1.76v3.4a4.162,4.162,0,0,0,.26,1.62V0Zm-2.1-.964a2.223,2.223,0,0,0,1.128-.308,1.861,1.861,0,0,0,.772-.8V-3.589h-.991q-2.324,0-2.324,1.36a1.151,1.151,0,0,0,.4.93A1.524,1.524,0,0,0,56.458-.964Z" transform="translate(-5854.437 -9239.5)" fill="#12263f"/>
    <path id="Trazado_189023" data-name="Trazado 189023" d="M.166,0,0,22" transform="translate(-5988.103 -9426.5)" fill="none" stroke="#707070" stroke-width="1"/>
    <path id="Trazado_189016" data-name="Trazado 189016" d="M164,0H0" transform="translate(-6233.937 -9404.5)" fill="none" stroke="#707070" stroke-width="1"/>
    <path id="Trazado_189017" data-name="Trazado 189017" d="M0,21V0" transform="translate(-6233.937 -9404.5)" fill="none" stroke="#707070" stroke-width="1"/>
    <path id="Trazado_189018" data-name="Trazado 189018" d="M0,0H164" transform="translate(-6069.937 -9404.5)" fill="none" stroke="#707070" stroke-width="1"/>
    <path id="Trazado_189031" data-name="Trazado 189031" d="M0,21V0" transform="translate(-5905.937 -9404.5)" fill="none" stroke="#707070" stroke-width="1"/>
    <path id="Trazado_189032" data-name="Trazado 189032" d="M0,0V44" transform="translate(-5905.937 -9333.5)" fill="none" stroke="#707070" stroke-width="1"/>
    <path id="Trazado_189033" data-name="Trazado 189033" d="M0,0H164" transform="translate(-5906.103 -9404.5)" fill="none" stroke="#707070" stroke-width="1"/>
    <path id="Trazado_189039" data-name="Trazado 189039" d="M0,21V0" transform="translate(-5742.103 -9404.5)" fill="none" stroke="#707070" stroke-width="1"/>
    <path id="Trazado_189024" data-name="Trazado 189024" d="M0,21V0" transform="translate(-5988.103 -9289.5)" fill="none" stroke="#707070" stroke-width="1"/>
    <path id="Trazado_189027" data-name="Trazado 189027" d="M82,0H0" transform="translate(-5988.103 -9289.5)" fill="none" stroke="#707070" stroke-width="1"/>
    <path id="Trazado_189040" data-name="Trazado 189040" d="M0,21V0" transform="translate(-5824.103 -9289.5)" fill="none" stroke="#707070" stroke-width="1"/>
    <path id="Trazado_189034" data-name="Trazado 189034" d="M0,0H82" transform="translate(-5906.103 -9289.5)" fill="none" stroke="#707070" stroke-width="1"/>
    <path id="Trazado_189028" data-name="Trazado 189028" d="M0,0V116" transform="translate(-6038.103 -9218.5)" fill="none" stroke="#707070" stroke-width="1"/>
    <path id="Trazado_189041" data-name="Trazado 189041" d="M13,0H0" transform="translate(-6038.103 -9173.5)" fill="none" stroke="#707070" stroke-width="1"/>
    <path id="Trazado_189044" data-name="Trazado 189044" d="M13,0H0" transform="translate(-6038.103 -9102.5)" fill="none" stroke="#707070" stroke-width="1"/>
  </g>
</svg>
