<svg xmlns="http://www.w3.org/2000/svg" xmlns:xlink="http://www.w3.org/1999/xlink" width="820" height="607.137" viewBox="0 0 820 607.137">
  <defs>
    <clipPath id="clip-path">
      <rect id="Rectángulo_40840" data-name="Rectángulo 40840" width="105.164" height="250.084" fill="none"/>
    </clipPath>
    <clipPath id="clip-path-2">
      <rect id="Rectángulo_40841" data-name="Rectángulo 40841" width="105.164" height="250.084" transform="translate(105.164 250.084) rotate(180)" fill="#6836bf"/>
    </clipPath>
    <clipPath id="clip-path-4">
      <rect id="Rectángulo_40843" data-name="Rectángulo 40843" width="105.164" height="250.084" transform="translate(105.164 250.084) rotate(180)" fill="none"/>
    </clipPath>
    <filter id="lista_de_check" x="376.404" y="106.788" width="57.322" height="72.808" filterUnits="userSpaceOnUse">
      <feOffset dy="3" input="SourceAlpha"/>
      <feGaussianBlur stdDeviation="3" result="blur"/>
      <feFlood flood-opacity="0.161"/>
      <feComposite operator="in" in2="blur"/>
      <feComposite in="SourceGraphic"/>
    </filter>
  </defs>
  <g id="Grupo_132012" data-name="Grupo 132012" transform="translate(-390 -572)">
    <path id="Trazado_189042" data-name="Trazado 189042" d="M42,0H778a42,42,0,0,1,42,42V550a42,42,0,0,1-42,42H42A42,42,0,0,1,0,550V42A42,42,0,0,1,42,0Z" transform="translate(390 572)" fill="#f7ca18" opacity="0.16"/>
    <path id="Trazado_189056" data-name="Trazado 189056" d="M39.7,16.176V21H36.268V6.781h5.674a6.608,6.608,0,0,1,2.886.6,4.526,4.526,0,0,1,1.943,1.709,4.667,4.667,0,0,1,.688,2.515,4.114,4.114,0,0,1-1.489,3.325,6.179,6.179,0,0,1-4.087,1.245Zm0-2.646h2.246a2.118,2.118,0,0,0,1.519-.5,1.85,1.85,0,0,0,.522-1.406,2.287,2.287,0,0,0-.537-1.592,1.9,1.9,0,0,0-1.465-.605H39.7ZM54.246,21.2a5.432,5.432,0,0,1-3.936-1.45,5.008,5.008,0,0,1-1.5-3.774V15.7a6.489,6.489,0,0,1,.6-2.861,4.395,4.395,0,0,1,1.753-1.919,5.292,5.292,0,0,1,2.734-.679A4.574,4.574,0,0,1,57.41,11.62,5.43,5.43,0,0,1,58.7,15.473v1.279H52.156a2.372,2.372,0,0,0,.771,1.4,2.3,2.3,0,0,0,1.543.508,2.958,2.958,0,0,0,2.441-1.094l1.5,1.777a4.2,4.2,0,0,1-1.743,1.353A5.891,5.891,0,0,1,54.246,21.2Zm-.371-8.418q-1.445,0-1.719,1.914h3.32v-.254a1.63,1.63,0,0,0-.4-1.226A1.593,1.593,0,0,0,53.875,12.777Zm12.539.635-1.084-.078a1.947,1.947,0,0,0-1.992.977V21H60.047V10.434h3.086l.107,1.357a2.548,2.548,0,0,1,2.314-1.553,3.209,3.209,0,0,1,.918.117ZM68.367,21V12.719H66.834V10.434h1.533v-.352A4.034,4.034,0,0,1,69.754,6.85a5.541,5.541,0,0,1,3.6-1.055,12.787,12.787,0,0,1,3.438.566l-.449,2.6L75.8,8.813a8.7,8.7,0,0,0-2.246-.283q-1.885,0-1.885,1.719v.186h2.07v2.285h-2.07V21Zm9.941,0H75V10.434h3.311Zm5.479,0h-3.3V6h3.3Zm6.592-5.361a6.455,6.455,0,0,1,1.084-3.955,3.568,3.568,0,0,1,3.027-1.445,3.035,3.035,0,0,1,2.383,1.113V6h3.3V21H97.215l-.166-1.133A3.116,3.116,0,0,1,94.471,21.2a3.562,3.562,0,0,1-2.988-1.445A6.659,6.659,0,0,1,90.379,15.639Zm3.291.205q0,2.813,1.641,2.813a1.62,1.62,0,0,0,1.563-.918V13.715a1.576,1.576,0,0,0-1.543-.937q-1.523,0-1.65,2.461ZM107.156,21.2a5.432,5.432,0,0,1-3.936-1.45,5.008,5.008,0,0,1-1.5-3.774V15.7a6.489,6.489,0,0,1,.6-2.861,4.395,4.395,0,0,1,1.753-1.919,5.292,5.292,0,0,1,2.734-.679,4.574,4.574,0,0,1,3.516,1.382,5.43,5.43,0,0,1,1.289,3.853v1.279h-6.543a2.372,2.372,0,0,0,.771,1.4,2.3,2.3,0,0,0,1.543.508,2.958,2.958,0,0,0,2.441-1.094l1.5,1.777a4.2,4.2,0,0,1-1.743,1.353A5.891,5.891,0,0,1,107.156,21.2Zm-.371-8.418q-1.445,0-1.719,1.914h3.32v-.254a1.63,1.63,0,0,0-.4-1.226A1.593,1.593,0,0,0,106.785,12.777ZM116.4,21h-3.3V6h3.3Zm11.475-2.344a1.464,1.464,0,0,0,1.074-.376,1.379,1.379,0,0,0,.371-1.05h3.086a3.653,3.653,0,0,1-1.245,2.852,4.631,4.631,0,0,1-3.208,1.113,4.689,4.689,0,0,1-3.633-1.445,5.7,5.7,0,0,1-1.328-4v-.137a6.436,6.436,0,0,1,.591-2.827,4.3,4.3,0,0,1,1.7-1.885,5.081,5.081,0,0,1,2.637-.659,4.573,4.573,0,0,1,3.271,1.143,4.053,4.053,0,0,1,1.211,3.1h-3.086a1.807,1.807,0,0,0-.4-1.26,1.382,1.382,0,0,0-1.074-.439q-1.279,0-1.494,1.631a11.508,11.508,0,0,0-.068,1.426,4.52,4.52,0,0,0,.381,2.207A1.319,1.319,0,0,0,127.879,18.656ZM139.754,21a3.716,3.716,0,0,1-.312-.947A3.06,3.06,0,0,1,136.9,21.2a3.749,3.749,0,0,1-2.539-.9,2.875,2.875,0,0,1-1.045-2.271,2.955,2.955,0,0,1,1.27-2.6,6.468,6.468,0,0,1,3.691-.879h1.016v-.559q0-1.462-1.26-1.462a1.03,1.03,0,0,0-1.172,1.158h-3.291a2.95,2.95,0,0,1,1.3-2.487,5.479,5.479,0,0,1,3.325-.956,4.8,4.8,0,0,1,3.193.986,3.429,3.429,0,0,1,1.2,2.705v4.678a4.79,4.79,0,0,0,.449,2.227V21Zm-2.061-2.148a1.836,1.836,0,0,0,1.021-.264,1.653,1.653,0,0,0,.581-.6V16.3h-.957q-1.719,0-1.719,1.543a.942.942,0,0,0,.3.728A1.1,1.1,0,0,0,137.693,18.852Zm13.115-5.439-1.084-.078a1.947,1.947,0,0,0-1.992.977V21h-3.291V10.434h3.086l.107,1.357a2.548,2.548,0,0,1,2.314-1.553,3.209,3.209,0,0,1,.918.117Zm.8,2.227a7.134,7.134,0,0,1,.527-2.832,4.245,4.245,0,0,1,1.514-1.9,3.99,3.99,0,0,1,2.295-.669,3.173,3.173,0,0,1,2.578,1.113l.117-.918h2.988V20.6a4.455,4.455,0,0,1-.649,2.427,4.167,4.167,0,0,1-1.88,1.582,6.91,6.91,0,0,1-2.852.552A5.961,5.961,0,0,1,154,24.721a4.063,4.063,0,0,1-1.665-1.143l1.377-1.934a3.018,3.018,0,0,0,2.422,1.084,1.96,1.96,0,0,0,2.188-2.246V20.15a3.09,3.09,0,0,1-2.393,1.045,3.819,3.819,0,0,1-3.125-1.479,6.13,6.13,0,0,1-1.191-3.96Zm3.3.205A3.759,3.759,0,0,0,155.4,17.9a1.541,1.541,0,0,0,1.367.757,1.748,1.748,0,0,0,1.553-.713V13.5a1.7,1.7,0,0,0-1.533-.723,1.551,1.551,0,0,0-1.377.786A4.287,4.287,0,0,0,154.91,15.844Zm8.174-.225A6.236,6.236,0,0,1,163.7,12.8a4.4,4.4,0,0,1,1.768-1.9,5.323,5.323,0,0,1,2.705-.664,4.858,4.858,0,0,1,3.74,1.47,5.64,5.64,0,0,1,1.367,4v.117a5.472,5.472,0,0,1-1.372,3.921,4.871,4.871,0,0,1-3.716,1.45,4.927,4.927,0,0,1-3.623-1.353,5.29,5.29,0,0,1-1.475-3.667Zm3.291.205a3.932,3.932,0,0,0,.459,2.148,1.529,1.529,0,0,0,1.357.684q1.758,0,1.8-2.705v-.332q0-2.842-1.816-2.842-1.65,0-1.787,2.451Z" transform="translate(696 593)" fill="#12263f"/>
    <g id="Grupo_128540" data-name="Grupo 128540" transform="translate(793.264 585)" clip-path="url(#clip-path)">
      <circle id="Elipse_5103" data-name="Elipse 5103" cx="68.44" cy="68.44" r="68.44" transform="translate(-68.982 61.746)" fill="#f7ca18"/>
    </g>
    <path id="Trazado_189044" data-name="Trazado 189044" d="M46.213,0A46.213,46.213,0,1,1,0,46.213,46.213,46.213,0,0,1,46.213,0Z" transform="translate(746.509 668.973)" fill="#fff"/>
    <g id="Grupo_128543" data-name="Grupo 128543" transform="translate(688.824 699.702)" clip-path="url(#clip-path-2)">
      <path id="Trazado_188651" data-name="Trazado 188651" d="M68.44,0A68.44,68.44,0,1,1,0,68.44,68.44,68.44,0,0,1,68.44,0Z" transform="translate(37.265 61.746)" fill="#6836bf"/>
    </g>
    <path id="Trazado_189045" data-name="Trazado 189045" d="M46.213,0A46.213,46.213,0,1,1,0,46.213,46.213,46.213,0,0,1,46.213,0Z" transform="translate(748.316 783.675)" fill="#fff"/>
    <g id="Grupo_128546" data-name="Grupo 128546" transform="translate(794.012 814.351)" clip-path="url(#clip-path)">
      <path id="Trazado_188652" data-name="Trazado 188652" d="M68.44,0A68.44,68.44,0,1,1,0,68.44,68.44,68.44,0,0,1,68.44,0Z" transform="translate(-68.982 61.746)" fill="#7fc733"/>
    </g>
    <path id="Trazado_188654" data-name="Trazado 188654" d="M46.213,0A46.213,46.213,0,1,1,0,46.213,46.213,46.213,0,0,1,46.213,0Z" transform="translate(747.257 898.323)" fill="#fff"/>
    <g id="Grupo_128549" data-name="Grupo 128549" transform="translate(689.572 929.053)" clip-path="url(#clip-path-4)">
      <path id="Trazado_188653" data-name="Trazado 188653" d="M68.44,0A68.44,68.44,0,1,1,0,68.44,68.44,68.44,0,0,1,68.44,0Z" transform="translate(37.265 61.746)" fill="#b13e8d"/>
    </g>
    <path id="Trazado_188655" data-name="Trazado 188655" d="M46.213,0A46.213,46.213,0,1,1,0,46.213,46.213,46.213,0,0,1,46.213,0Z" transform="translate(749.064 1013.025)" fill="#fff"/>
    <path id="Trazado_189054" data-name="Trazado 189054" d="M2.82-4.453V0H1.32V-11.375h4.2a4.215,4.215,0,0,1,2.926.953A3.231,3.231,0,0,1,9.5-7.9,3.189,3.189,0,0,1,8.465-5.348,4.4,4.4,0,0,1,5.5-4.453Zm0-1.227h2.7a2.7,2.7,0,0,0,1.844-.567A2.075,2.075,0,0,0,8-7.887a2.143,2.143,0,0,0-.641-1.628A2.525,2.525,0,0,0,5.6-10.148H2.82ZM16.406-.836A3.07,3.07,0,0,1,13.93.156a2.628,2.628,0,0,1-2.059-.785,3.4,3.4,0,0,1-.715-2.324v-5.5H12.6v5.461q0,1.922,1.563,1.922a2.163,2.163,0,0,0,2.2-1.234V-8.453h1.445V0H16.438Zm7.109.992a3.693,3.693,0,0,1-2.8-1.129,4.19,4.19,0,0,1-1.078-3.02v-.266a5.073,5.073,0,0,1,.48-2.246,3.748,3.748,0,0,1,1.344-1.547,3.378,3.378,0,0,1,1.871-.559A3.166,3.166,0,0,1,25.9-7.523a4.7,4.7,0,0,1,.914,3.109v.6H21.086a3,3,0,0,0,.73,2.02,2.3,2.3,0,0,0,1.777.77,2.517,2.517,0,0,0,1.3-.312,3.259,3.259,0,0,0,.93-.828l.883.688A3.55,3.55,0,0,1,23.516.156Zm-.18-7.578a1.928,1.928,0,0,0-1.469.637A3.1,3.1,0,0,0,21.133-5h4.234v-.109a2.753,2.753,0,0,0-.594-1.707A1.815,1.815,0,0,0,23.336-7.422Zm10.07,5.18a1.064,1.064,0,0,0-.441-.91,4.249,4.249,0,0,0-1.539-.559,7.277,7.277,0,0,1-1.742-.562,2.479,2.479,0,0,1-.953-.781,1.869,1.869,0,0,1-.309-1.078A2.193,2.193,0,0,1,29.3-7.891a3.432,3.432,0,0,1,2.246-.719,3.532,3.532,0,0,1,2.332.742,2.357,2.357,0,0,1,.895,1.9H33.32a1.3,1.3,0,0,0-.5-1.023,1.888,1.888,0,0,0-1.27-.43,1.976,1.976,0,0,0-1.234.344,1.082,1.082,0,0,0-.445.9.877.877,0,0,0,.414.789,5.1,5.1,0,0,0,1.5.508,7.8,7.8,0,0,1,1.754.578,2.558,2.558,0,0,1,1,.809,1.988,1.988,0,0,1,.324,1.152,2.163,2.163,0,0,1-.906,1.816,3.8,3.8,0,0,1-2.352.684A4.257,4.257,0,0,1,29.8-.2a2.922,2.922,0,0,1-1.223-1A2.42,2.42,0,0,1,28.133-2.6h1.445a1.5,1.5,0,0,0,.582,1.152,2.258,2.258,0,0,0,1.434.426,2.331,2.331,0,0,0,1.316-.332A1.02,1.02,0,0,0,33.406-2.242ZM38.7-10.5v2.047h1.578v1.117H38.7v5.249a1.173,1.173,0,0,0,.211.763.888.888,0,0,0,.719.254,3.5,3.5,0,0,0,.688-.094V0A4.215,4.215,0,0,1,39.2.156,1.8,1.8,0,0,1,37.742-.43a2.517,2.517,0,0,1-.492-1.664V-7.336H35.711V-8.453H37.25V-10.5Zm2.727,6.2a4.993,4.993,0,0,1,.488-2.234A3.643,3.643,0,0,1,43.27-8.07a3.7,3.7,0,0,1,1.988-.539,3.565,3.565,0,0,1,2.793,1.2,4.6,4.6,0,0,1,1.066,3.18v.1a5.036,5.036,0,0,1-.473,2.215A3.589,3.589,0,0,1,47.293-.391a3.743,3.743,0,0,1-2.02.547,3.556,3.556,0,0,1-2.785-1.2A4.575,4.575,0,0,1,41.422-4.2Zm1.453.172a3.616,3.616,0,0,0,.652,2.258,2.088,2.088,0,0,0,1.746.852,2.075,2.075,0,0,0,1.75-.863A3.955,3.955,0,0,0,47.672-4.3a3.61,3.61,0,0,0-.66-2.254,2.1,2.1,0,0,0-1.754-.863,2.075,2.075,0,0,0-1.727.852A3.925,3.925,0,0,0,42.875-4.133ZM55.852-2.242a1.064,1.064,0,0,0-.441-.91,4.249,4.249,0,0,0-1.539-.559,7.277,7.277,0,0,1-1.742-.562,2.479,2.479,0,0,1-.953-.781,1.869,1.869,0,0,1-.309-1.078,2.193,2.193,0,0,1,.879-1.758,3.432,3.432,0,0,1,2.246-.719,3.532,3.532,0,0,1,2.332.742,2.357,2.357,0,0,1,.895,1.9H55.766a1.3,1.3,0,0,0-.5-1.023,1.888,1.888,0,0,0-1.27-.43,1.976,1.976,0,0,0-1.234.344,1.082,1.082,0,0,0-.445.9.877.877,0,0,0,.414.789,5.1,5.1,0,0,0,1.5.508,7.8,7.8,0,0,1,1.754.578,2.558,2.558,0,0,1,1,.809A1.988,1.988,0,0,1,57.3-2.344a2.163,2.163,0,0,1-.906,1.816,3.8,3.8,0,0,1-2.352.684,4.257,4.257,0,0,1-1.8-.359,2.922,2.922,0,0,1-1.223-1A2.42,2.42,0,0,1,50.578-2.6h1.445a1.5,1.5,0,0,0,.582,1.152,2.258,2.258,0,0,0,1.434.426,2.331,2.331,0,0,0,1.316-.332A1.02,1.02,0,0,0,55.852-2.242ZM62.789-4.3a4.952,4.952,0,0,1,.922-3.129,2.915,2.915,0,0,1,2.414-1.184,2.932,2.932,0,0,1,2.352,1.016V-12h1.445V0H68.594l-.07-.906A2.943,2.943,0,0,1,66.109.156a2.887,2.887,0,0,1-2.395-1.2,5.008,5.008,0,0,1-.926-3.141Zm1.445.164a3.749,3.749,0,0,0,.594,2.25,1.92,1.92,0,0,0,1.641.813A2.109,2.109,0,0,0,68.477-2.3V-6.187a2.125,2.125,0,0,0-1.992-1.2,1.929,1.929,0,0,0-1.656.82A4.128,4.128,0,0,0,64.234-4.133ZM75.672.156a3.693,3.693,0,0,1-2.8-1.129A4.19,4.19,0,0,1,71.8-3.992v-.266a5.073,5.073,0,0,1,.48-2.246,3.748,3.748,0,0,1,1.344-1.547,3.378,3.378,0,0,1,1.871-.559,3.166,3.166,0,0,1,2.563,1.086,4.7,4.7,0,0,1,.914,3.109v.6H73.242a3,3,0,0,0,.73,2.02,2.3,2.3,0,0,0,1.777.77,2.517,2.517,0,0,0,1.3-.312,3.259,3.259,0,0,0,.93-.828l.883.688A3.55,3.55,0,0,1,75.672.156Zm-.18-7.578a1.928,1.928,0,0,0-1.469.637A3.1,3.1,0,0,0,73.289-5h4.234v-.109a2.753,2.753,0,0,0-.594-1.707A1.815,1.815,0,0,0,75.492-7.422ZM86.563-10.5v2.047h1.578v1.117H86.563v5.249a1.173,1.173,0,0,0,.211.763.888.888,0,0,0,.719.254,3.5,3.5,0,0,0,.688-.094V0A4.215,4.215,0,0,1,87.07.156,1.8,1.8,0,0,1,85.609-.43a2.517,2.517,0,0,1-.492-1.664V-7.336H83.578V-8.453h1.539V-10.5Zm7.352,3.344a4.331,4.331,0,0,0-.711-.055A1.9,1.9,0,0,0,91.273-6V0H89.828V-8.453h1.406l.023.977a2.251,2.251,0,0,1,2.016-1.133,1.477,1.477,0,0,1,.641.109ZM100.148,0a3.036,3.036,0,0,1-.2-.891A3.225,3.225,0,0,1,97.539.156a2.984,2.984,0,0,1-2.051-.707,2.288,2.288,0,0,1-.8-1.793,2.39,2.39,0,0,1,1-2.051,4.733,4.733,0,0,1,2.824-.73h1.406v-.664A1.623,1.623,0,0,0,99.469-7a1.821,1.821,0,0,0-1.336-.449,2.108,2.108,0,0,0-1.3.391,1.151,1.151,0,0,0-.523.945H94.859a2,2,0,0,1,.449-1.223,3.066,3.066,0,0,1,1.219-.934,4.1,4.1,0,0,1,1.691-.344,3.342,3.342,0,0,1,2.289.73,2.635,2.635,0,0,1,.859,2.012v3.891a4.757,4.757,0,0,0,.3,1.852V0Zm-2.4-1.1a2.54,2.54,0,0,0,1.289-.352,2.127,2.127,0,0,0,.883-.914V-4.1H98.789q-2.656,0-2.656,1.555a1.316,1.316,0,0,0,.453,1.063A1.742,1.742,0,0,0,97.75-1.1Zm13.039-3.031A5.026,5.026,0,0,1,109.9-1.02,2.846,2.846,0,0,1,107.508.156a2.947,2.947,0,0,1-2.477-1.133l-.07.977h-1.328V-12h1.445v4.477a2.93,2.93,0,0,1,2.414-1.086,2.863,2.863,0,0,1,2.418,1.164,5.177,5.177,0,0,1,.879,3.188ZM109.344-4.3a3.906,3.906,0,0,0-.57-2.281,1.888,1.888,0,0,0-1.641-.8,2.122,2.122,0,0,0-2.055,1.328V-2.4a2.181,2.181,0,0,0,2.07,1.328,1.878,1.878,0,0,0,1.617-.8A4.153,4.153,0,0,0,109.344-4.3ZM117.828,0a3.036,3.036,0,0,1-.2-.891A3.225,3.225,0,0,1,115.219.156a2.984,2.984,0,0,1-2.051-.707,2.288,2.288,0,0,1-.8-1.793,2.39,2.39,0,0,1,1-2.051,4.733,4.733,0,0,1,2.824-.73H117.6v-.664A1.623,1.623,0,0,0,117.148-7a1.821,1.821,0,0,0-1.336-.449,2.108,2.108,0,0,0-1.3.391,1.151,1.151,0,0,0-.523.945h-1.453a2,2,0,0,1,.449-1.223,3.066,3.066,0,0,1,1.219-.934,4.1,4.1,0,0,1,1.691-.344,3.342,3.342,0,0,1,2.289.73,2.635,2.635,0,0,1,.859,2.012v3.891a4.757,4.757,0,0,0,.3,1.852V0Zm-2.4-1.1a2.54,2.54,0,0,0,1.289-.352,2.127,2.127,0,0,0,.883-.914V-4.1h-1.133q-2.656,0-2.656,1.555a1.316,1.316,0,0,0,.453,1.063A1.742,1.742,0,0,0,115.43-1.1ZM122.8-8.453V.977q0,2.437-2.211,2.438a2.7,2.7,0,0,1-.883-.14V2.125a2.794,2.794,0,0,0,.656.063.982.982,0,0,0,.738-.262,1.3,1.3,0,0,0,.254-.911V-8.453ZM121.211-10.7a.867.867,0,0,1,.215-.59.79.79,0,0,1,.629-.246.819.819,0,0,1,.641.242.854.854,0,0,1,.219.594.826.826,0,0,1-.219.586.834.834,0,0,1-.641.234.808.808,0,0,1-.633-.234A.843.843,0,0,1,121.211-10.7ZM124.75-4.3a4.993,4.993,0,0,1,.488-2.234A3.643,3.643,0,0,1,126.6-8.07a3.7,3.7,0,0,1,1.988-.539,3.565,3.565,0,0,1,2.793,1.2,4.6,4.6,0,0,1,1.066,3.18v.1a5.036,5.036,0,0,1-.473,2.215,3.589,3.589,0,0,1-1.352,1.527,3.743,3.743,0,0,1-2.02.547,3.556,3.556,0,0,1-2.785-1.2A4.575,4.575,0,0,1,124.75-4.2Zm1.453.172a3.616,3.616,0,0,0,.652,2.258,2.088,2.088,0,0,0,1.746.852,2.075,2.075,0,0,0,1.75-.863A3.954,3.954,0,0,0,131-4.3a3.61,3.61,0,0,0-.66-2.254,2.1,2.1,0,0,0-1.754-.863,2.075,2.075,0,0,0-1.727.852A3.925,3.925,0,0,0,126.2-4.133Z" transform="translate(572 717.692)" fill="#12263f"/>
    <path id="Trazado_189047" data-name="Trazado 189047" d="M7.594-5.023H2.82V0H1.32V-11.375H8.367v1.227H2.82v3.9H7.594ZM14.984-.836a3.07,3.07,0,0,1-2.477.992,2.628,2.628,0,0,1-2.059-.785,3.4,3.4,0,0,1-.715-2.324v-5.5H11.18v5.461q0,1.922,1.563,1.922a2.163,2.163,0,0,0,2.2-1.234V-8.453h1.445V0H15.016Zm4.969-7.617L20-7.391a3.08,3.08,0,0,1,2.531-1.219q2.68,0,2.7,3.023V0H23.789V-5.594a1.946,1.946,0,0,0-.418-1.352,1.675,1.675,0,0,0-1.277-.437,2.086,2.086,0,0,0-1.234.375,2.546,2.546,0,0,0-.828.984V0H18.586V-8.453ZM30.8-1.023a2.082,2.082,0,0,0,1.352-.469A1.649,1.649,0,0,0,32.8-2.664h1.367a2.621,2.621,0,0,1-.5,1.383,3.293,3.293,0,0,1-1.23,1.047A3.55,3.55,0,0,1,30.8.156,3.482,3.482,0,0,1,28.059-1a4.59,4.59,0,0,1-1.02-3.152v-.242a5.089,5.089,0,0,1,.453-2.2,3.451,3.451,0,0,1,1.3-1.492,3.7,3.7,0,0,1,2-.531,3.39,3.39,0,0,1,2.363.852,3.043,3.043,0,0,1,1,2.211H32.8a1.992,1.992,0,0,0-.621-1.348A1.932,1.932,0,0,0,30.8-7.422a2.023,2.023,0,0,0-1.707.793,3.724,3.724,0,0,0-.605,2.293v.273a3.65,3.65,0,0,0,.6,2.25A2.033,2.033,0,0,0,30.8-1.023ZM37.359,0H35.914V-8.453h1.445ZM35.8-10.7a.863.863,0,0,1,.215-.594.807.807,0,0,1,.637-.242.819.819,0,0,1,.641.242.854.854,0,0,1,.219.594.826.826,0,0,1-.219.586.834.834,0,0,1-.641.234.821.821,0,0,1-.637-.234A.834.834,0,0,1,35.8-10.7ZM39.289-4.3a4.993,4.993,0,0,1,.488-2.234A3.643,3.643,0,0,1,41.137-8.07a3.7,3.7,0,0,1,1.988-.539,3.565,3.565,0,0,1,2.793,1.2,4.6,4.6,0,0,1,1.066,3.18v.1a5.036,5.036,0,0,1-.473,2.215A3.589,3.589,0,0,1,45.16-.391a3.743,3.743,0,0,1-2.02.547,3.556,3.556,0,0,1-2.785-1.2A4.575,4.575,0,0,1,39.289-4.2Zm1.453.172a3.616,3.616,0,0,0,.652,2.258,2.088,2.088,0,0,0,1.746.852,2.075,2.075,0,0,0,1.75-.863A3.955,3.955,0,0,0,45.539-4.3a3.61,3.61,0,0,0-.66-2.254,2.1,2.1,0,0,0-1.754-.863A2.075,2.075,0,0,0,41.4-6.57,3.925,3.925,0,0,0,40.742-4.133Zm9.422-4.32.047,1.063a3.08,3.08,0,0,1,2.531-1.219q2.68,0,2.7,3.023V0H54V-5.594a1.946,1.946,0,0,0-.418-1.352A1.675,1.675,0,0,0,52.3-7.383a2.086,2.086,0,0,0-1.234.375,2.546,2.546,0,0,0-.828.984V0H48.8V-8.453ZM61.133.156a3.693,3.693,0,0,1-2.8-1.129,4.19,4.19,0,0,1-1.078-3.02v-.266a5.073,5.073,0,0,1,.48-2.246,3.748,3.748,0,0,1,1.344-1.547,3.378,3.378,0,0,1,1.871-.559,3.166,3.166,0,0,1,2.563,1.086,4.7,4.7,0,0,1,.914,3.109v.6H58.7a3,3,0,0,0,.73,2.02,2.3,2.3,0,0,0,1.777.77,2.517,2.517,0,0,0,1.3-.312,3.259,3.259,0,0,0,.93-.828l.883.688A3.55,3.55,0,0,1,61.133.156Zm-.18-7.578a1.928,1.928,0,0,0-1.469.637A3.1,3.1,0,0,0,58.75-5h4.234v-.109a2.753,2.753,0,0,0-.594-1.707A1.815,1.815,0,0,0,60.953-7.422Zm10.07,5.18a1.064,1.064,0,0,0-.441-.91,4.249,4.249,0,0,0-1.539-.559A7.277,7.277,0,0,1,67.3-4.273a2.479,2.479,0,0,1-.953-.781,1.869,1.869,0,0,1-.309-1.078,2.193,2.193,0,0,1,.879-1.758,3.432,3.432,0,0,1,2.246-.719,3.532,3.532,0,0,1,2.332.742,2.357,2.357,0,0,1,.895,1.9H70.938a1.3,1.3,0,0,0-.5-1.023,1.888,1.888,0,0,0-1.27-.43,1.976,1.976,0,0,0-1.234.344,1.082,1.082,0,0,0-.445.9.877.877,0,0,0,.414.789,5.1,5.1,0,0,0,1.5.508,7.8,7.8,0,0,1,1.754.578,2.558,2.558,0,0,1,1,.809,1.988,1.988,0,0,1,.324,1.152,2.163,2.163,0,0,1-.906,1.816,3.8,3.8,0,0,1-2.352.684,4.257,4.257,0,0,1-1.8-.359,2.922,2.922,0,0,1-1.223-1A2.42,2.42,0,0,1,65.75-2.6H67.2a1.5,1.5,0,0,0,.582,1.152,2.258,2.258,0,0,0,1.434.426,2.331,2.331,0,0,0,1.316-.332A1.02,1.02,0,0,0,71.023-2.242Z" transform="translate(632 950.5)" fill="#12263f"/>
    <path id="Trazado_189055" data-name="Trazado 189055" d="M10.359-5.43a6.867,6.867,0,0,1-.594,2.945,4.472,4.472,0,0,1-1.7,1.953A4.7,4.7,0,0,1,5.531.156a4.732,4.732,0,0,1-2.523-.68A4.515,4.515,0,0,1,1.289-2.465a6.67,6.67,0,0,1-.617-2.9V-5.93a6.831,6.831,0,0,1,.605-2.957,4.508,4.508,0,0,1,1.711-1.961,4.706,4.706,0,0,1,2.527-.684,4.706,4.706,0,0,1,2.527.684A4.508,4.508,0,0,1,9.754-8.887a6.811,6.811,0,0,1,.605,2.949ZM7.984-5.945a4.787,4.787,0,0,0-.641-2.719,2.088,2.088,0,0,0-1.828-.93,2.088,2.088,0,0,0-1.82.918,4.732,4.732,0,0,0-.648,2.691v.555a4.847,4.847,0,0,0,.641,2.7,2.082,2.082,0,0,0,1.844.961,2.064,2.064,0,0,0,1.813-.926,4.819,4.819,0,0,0,.641-2.7Zm11.547,1.8A5.119,5.119,0,0,1,18.664-.98,2.872,2.872,0,0,1,16.242.156,2.639,2.639,0,0,1,14.047-.9l-.1.9H11.914V-12h2.258v4.3a2.571,2.571,0,0,1,2.055-.914,2.9,2.9,0,0,1,2.426,1.137,5.126,5.126,0,0,1,.879,3.2Zm-2.258-.164a3.363,3.363,0,0,0-.406-1.871,1.374,1.374,0,0,0-1.211-.59,1.489,1.489,0,0,0-1.484.883v3.336a1.509,1.509,0,0,0,1.5.891,1.394,1.394,0,0,0,1.438-1.078A5.562,5.562,0,0,0,17.273-4.312Zm6.039-4.141V.461a3.024,3.024,0,0,1-.742,2.176,2.821,2.821,0,0,1-2.141.777,4.591,4.591,0,0,1-1.117-.133V1.492a4.238,4.238,0,0,0,.711.07q1.023,0,1.023-1.086v-8.93Zm-2.445-2.187a1.112,1.112,0,0,1,.34-.836,1.277,1.277,0,0,1,.926-.328,1.277,1.277,0,0,1,.926.328,1.112,1.112,0,0,1,.34.836,1.108,1.108,0,0,1-.348.844,1.283,1.283,0,0,1-.918.328,1.283,1.283,0,0,1-.918-.328A1.108,1.108,0,0,1,20.867-10.641Zm8.1,10.8A4.15,4.15,0,0,1,25.941-.984a4.054,4.054,0,0,1-1.168-3.039v-.219a5.106,5.106,0,0,1,.492-2.277A3.612,3.612,0,0,1,26.66-8.066a3.914,3.914,0,0,1,2.059-.543,3.508,3.508,0,0,1,2.73,1.094,4.444,4.444,0,0,1,1,3.1v.922H27.063a2.1,2.1,0,0,0,.66,1.328,2,2,0,0,0,1.395.5,2.437,2.437,0,0,0,2.039-.945l1.109,1.242A3.389,3.389,0,0,1,30.891-.246,4.511,4.511,0,0,1,28.969.156Zm-.258-6.945a1.411,1.411,0,0,0-1.09.455,2.357,2.357,0,0,0-.535,1.3h3.141v-.181a1.681,1.681,0,0,0-.406-1.165A1.456,1.456,0,0,0,28.711-6.789Zm7.719-3.742v2.078h1.445V-6.8H36.43v4.219a1.007,1.007,0,0,0,.18.672.9.9,0,0,0,.688.2,3.6,3.6,0,0,0,.664-.055V-.047a4.648,4.648,0,0,1-1.367.2,2.156,2.156,0,0,1-2.422-2.4V-6.8H32.938V-8.453h1.234v-2.078ZM41.516,0H39.25V-8.453h2.266Zm-2.4-10.641a1.112,1.112,0,0,1,.34-.836,1.277,1.277,0,0,1,.926-.328,1.28,1.28,0,0,1,.922.328,1.105,1.105,0,0,1,.344.836A1.108,1.108,0,0,1,41.3-9.8a1.283,1.283,0,0,1-.918.328,1.283,1.283,0,0,1-.918-.328A1.108,1.108,0,0,1,39.117-10.641Zm7.422,7.883,1.57-5.7h2.359L47.617,0H45.461L42.609-8.453h2.359ZM50.992-4.3a5.013,5.013,0,0,1,.484-2.242A3.546,3.546,0,0,1,52.871-8.07a4.069,4.069,0,0,1,2.113-.539,3.849,3.849,0,0,1,2.793,1.047,4.2,4.2,0,0,1,1.207,2.844L59-4.141A4.418,4.418,0,0,1,57.914-1.02,3.775,3.775,0,0,1,55,.156a3.793,3.793,0,0,1-2.918-1.172A4.5,4.5,0,0,1,50.992-4.2Zm2.258.16A3.16,3.16,0,0,0,53.7-2.3a1.5,1.5,0,0,0,1.3.638,1.5,1.5,0,0,0,1.281-.63,3.457,3.457,0,0,0,.461-2.015,3.128,3.128,0,0,0-.461-1.831,1.5,1.5,0,0,0-1.3-.649,1.474,1.474,0,0,0-1.281.646A3.516,3.516,0,0,0,53.25-4.144ZM64.969-2.336a.727.727,0,0,0-.41-.652,4.659,4.659,0,0,0-1.316-.426q-3.016-.633-3.016-2.562a2.323,2.323,0,0,1,.934-1.879A3.766,3.766,0,0,1,63.6-8.609a4.053,4.053,0,0,1,2.574.758,2.388,2.388,0,0,1,.965,1.969H64.883a1.092,1.092,0,0,0-.312-.8A1.322,1.322,0,0,0,63.594-7a1.351,1.351,0,0,0-.883.258.814.814,0,0,0-.312.656.7.7,0,0,0,.355.605,3.657,3.657,0,0,0,1.2.4,9.8,9.8,0,0,1,1.422.379A2.336,2.336,0,0,1,67.164-2.43a2.2,2.2,0,0,1-.992,1.871,4.28,4.28,0,0,1-2.562.715,4.47,4.47,0,0,1-1.887-.379A3.166,3.166,0,0,1,60.43-1.262a2.414,2.414,0,0,1-.469-1.426H62.1a1.179,1.179,0,0,0,.445.922,1.766,1.766,0,0,0,1.109.32,1.635,1.635,0,0,0,.98-.246A.766.766,0,0,0,64.969-2.336Z" transform="translate(898 719)" fill="#12263f"/>
    <path id="Trazado_189053" data-name="Trazado 189053" d="M-150.789-5.023h-4.773V0h-1.5V-11.375h7.047v1.227h-5.547v3.9h4.773Zm1.8.719a4.993,4.993,0,0,1,.488-2.234,3.642,3.642,0,0,1,1.359-1.531,3.7,3.7,0,0,1,1.988-.539,3.565,3.565,0,0,1,2.793,1.2,4.6,4.6,0,0,1,1.066,3.18v.1a5.036,5.036,0,0,1-.473,2.215,3.589,3.589,0,0,1-1.352,1.527,3.743,3.743,0,0,1-2.02.547,3.556,3.556,0,0,1-2.785-1.2A4.575,4.575,0,0,1-148.992-4.2Zm1.453.172a3.616,3.616,0,0,0,.652,2.258,2.088,2.088,0,0,0,1.746.852,2.075,2.075,0,0,0,1.75-.863,3.954,3.954,0,0,0,.648-2.418,3.61,3.61,0,0,0-.66-2.254,2.1,2.1,0,0,0-1.754-.863,2.075,2.075,0,0,0-1.727.852A3.925,3.925,0,0,0-147.539-4.133ZM-135.4-7.156a4.331,4.331,0,0,0-.711-.055A1.9,1.9,0,0,0-138.039-6V0h-1.445V-8.453h1.406l.023.977a2.251,2.251,0,0,1,2.016-1.133,1.477,1.477,0,0,1,.641.109Zm2.688-1.3.039.938a3.122,3.122,0,0,1,2.508-1.094A2.417,2.417,0,0,1-127.75-7.25a3.2,3.2,0,0,1,1.1-.984,3.242,3.242,0,0,1,1.6-.375q2.781,0,2.828,2.945V0h-1.445V-5.578a1.941,1.941,0,0,0-.414-1.355,1.823,1.823,0,0,0-1.391-.449,1.916,1.916,0,0,0-1.336.48,1.949,1.949,0,0,0-.617,1.293V0h-1.453V-5.539a1.613,1.613,0,0,0-1.8-1.844,1.934,1.934,0,0,0-1.945,1.211V0h-1.445V-8.453ZM-114.828,0a3.036,3.036,0,0,1-.2-.891A3.225,3.225,0,0,1-117.437.156a2.984,2.984,0,0,1-2.051-.707,2.288,2.288,0,0,1-.8-1.793,2.39,2.39,0,0,1,1-2.051,4.733,4.733,0,0,1,2.824-.73h1.406v-.664A1.623,1.623,0,0,0-115.508-7a1.821,1.821,0,0,0-1.336-.449,2.108,2.108,0,0,0-1.3.391,1.151,1.151,0,0,0-.523.945h-1.453a2,2,0,0,1,.449-1.223,3.066,3.066,0,0,1,1.219-.934,4.1,4.1,0,0,1,1.691-.344,3.342,3.342,0,0,1,2.289.73,2.635,2.635,0,0,1,.859,2.012v3.891a4.757,4.757,0,0,0,.3,1.852V0Zm-2.4-1.1a2.54,2.54,0,0,0,1.289-.352,2.127,2.127,0,0,0,.883-.914V-4.1h-1.133q-2.656,0-2.656,1.555a1.316,1.316,0,0,0,.453,1.063A1.742,1.742,0,0,0-117.227-1.1Zm9.273.078a2.082,2.082,0,0,0,1.352-.469,1.649,1.649,0,0,0,.641-1.172h1.367a2.621,2.621,0,0,1-.5,1.383,3.293,3.293,0,0,1-1.23,1.047,3.55,3.55,0,0,1-1.629.391A3.482,3.482,0,0,1-110.7-1a4.59,4.59,0,0,1-1.02-3.152v-.242a5.089,5.089,0,0,1,.453-2.2,3.451,3.451,0,0,1,1.3-1.492,3.7,3.7,0,0,1,2-.531,3.39,3.39,0,0,1,2.363.852,3.043,3.043,0,0,1,1,2.211h-1.367a1.992,1.992,0,0,0-.621-1.348,1.932,1.932,0,0,0-1.379-.527,2.023,2.023,0,0,0-1.707.793,3.724,3.724,0,0,0-.605,2.293v.273a3.65,3.65,0,0,0,.6,2.25A2.033,2.033,0,0,0-107.953-1.023ZM-101.4,0h-1.445V-8.453h1.445Zm-1.562-10.7a.863.863,0,0,1,.215-.594.807.807,0,0,1,.637-.242.819.819,0,0,1,.641.242.854.854,0,0,1,.219.594.826.826,0,0,1-.219.586.834.834,0,0,1-.641.234.821.821,0,0,1-.637-.234A.834.834,0,0,1-102.961-10.7ZM-99.469-4.3a4.993,4.993,0,0,1,.488-2.234A3.643,3.643,0,0,1-97.621-8.07a3.7,3.7,0,0,1,1.988-.539,3.565,3.565,0,0,1,2.793,1.2,4.6,4.6,0,0,1,1.066,3.18v.1a5.036,5.036,0,0,1-.473,2.215A3.589,3.589,0,0,1-93.6-.391a3.743,3.743,0,0,1-2.02.547,3.556,3.556,0,0,1-2.785-1.2A4.575,4.575,0,0,1-99.469-4.2Zm1.453.172a3.616,3.616,0,0,0,.652,2.258,2.088,2.088,0,0,0,1.746.852,2.075,2.075,0,0,0,1.75-.863A3.955,3.955,0,0,0-93.219-4.3a3.61,3.61,0,0,0-.66-2.254,2.1,2.1,0,0,0-1.754-.863,2.075,2.075,0,0,0-1.727.852A3.925,3.925,0,0,0-98.016-4.133ZM-94.977-12h1.75L-95.32-9.7l-1.164,0Zm6.383,3.547.047,1.063a3.08,3.08,0,0,1,2.531-1.219q2.68,0,2.7,3.023V0h-1.445V-5.594a1.946,1.946,0,0,0-.418-1.352,1.675,1.675,0,0,0-1.277-.437,2.086,2.086,0,0,0-1.234.375,2.546,2.546,0,0,0-.828.984V0h-1.445V-8.453ZM-71.953,0a3.036,3.036,0,0,1-.2-.891A3.225,3.225,0,0,1-74.562.156a2.984,2.984,0,0,1-2.051-.707,2.288,2.288,0,0,1-.8-1.793,2.39,2.39,0,0,1,1-2.051,4.733,4.733,0,0,1,2.824-.73h1.406v-.664A1.623,1.623,0,0,0-72.633-7a1.821,1.821,0,0,0-1.336-.449,2.108,2.108,0,0,0-1.3.391,1.151,1.151,0,0,0-.523.945h-1.453a2,2,0,0,1,.449-1.223,3.066,3.066,0,0,1,1.219-.934,4.1,4.1,0,0,1,1.691-.344,3.342,3.342,0,0,1,2.289.73,2.635,2.635,0,0,1,.859,2.012v3.891a4.757,4.757,0,0,0,.3,1.852V0Zm-2.4-1.1a2.54,2.54,0,0,0,1.289-.352,2.127,2.127,0,0,0,.883-.914V-4.1h-1.133q-2.656,0-2.656,1.555a1.316,1.316,0,0,0,.453,1.063A1.742,1.742,0,0,0-74.352-1.1Zm9.273.078a2.082,2.082,0,0,0,1.352-.469,1.649,1.649,0,0,0,.641-1.172h1.367a2.621,2.621,0,0,1-.5,1.383,3.293,3.293,0,0,1-1.23,1.047,3.55,3.55,0,0,1-1.629.391A3.482,3.482,0,0,1-67.824-1a4.59,4.59,0,0,1-1.02-3.152v-.242a5.089,5.089,0,0,1,.453-2.2,3.451,3.451,0,0,1,1.3-1.492,3.7,3.7,0,0,1,2-.531,3.39,3.39,0,0,1,2.363.852,3.043,3.043,0,0,1,1,2.211h-1.367a1.992,1.992,0,0,0-.621-1.348,1.932,1.932,0,0,0-1.379-.527,2.023,2.023,0,0,0-1.707.793A3.724,3.724,0,0,0-67.4-4.336v.273a3.65,3.65,0,0,0,.6,2.25A2.033,2.033,0,0,0-65.078-1.023ZM-54.875,0a3.036,3.036,0,0,1-.2-.891A3.225,3.225,0,0,1-57.484.156a2.984,2.984,0,0,1-2.051-.707,2.287,2.287,0,0,1-.8-1.793,2.39,2.39,0,0,1,1-2.051,4.733,4.733,0,0,1,2.824-.73H-55.1v-.664A1.623,1.623,0,0,0-55.555-7a1.821,1.821,0,0,0-1.336-.449,2.107,2.107,0,0,0-1.3.391,1.151,1.151,0,0,0-.523.945h-1.453a2,2,0,0,1,.449-1.223A3.066,3.066,0,0,1-58.5-8.266,4.1,4.1,0,0,1-56.8-8.609a3.342,3.342,0,0,1,2.289.73,2.635,2.635,0,0,1,.859,2.012v3.891a4.757,4.757,0,0,0,.3,1.852V0Zm-2.4-1.1a2.54,2.54,0,0,0,1.289-.352,2.127,2.127,0,0,0,.883-.914V-4.1h-1.133q-2.656,0-2.656,1.555a1.316,1.316,0,0,0,.453,1.063A1.742,1.742,0,0,0-57.273-1.1Zm5.531-3.2a4.952,4.952,0,0,1,.922-3.129,2.915,2.915,0,0,1,2.414-1.184,2.932,2.932,0,0,1,2.352,1.016V-12h1.445V0h-1.328l-.07-.906A2.943,2.943,0,0,1-48.422.156a2.887,2.887,0,0,1-2.395-1.2,5.008,5.008,0,0,1-.926-3.141Zm1.445.164a3.749,3.749,0,0,0,.594,2.25,1.92,1.92,0,0,0,1.641.813A2.108,2.108,0,0,0-46.055-2.3V-6.187a2.125,2.125,0,0,0-1.992-1.2,1.929,1.929,0,0,0-1.656.82A4.128,4.128,0,0,0-50.3-4.133ZM-38.859.156a3.693,3.693,0,0,1-2.8-1.129,4.19,4.19,0,0,1-1.078-3.02v-.266a5.073,5.073,0,0,1,.48-2.246A3.748,3.748,0,0,1-40.91-8.051a3.378,3.378,0,0,1,1.871-.559,3.166,3.166,0,0,1,2.563,1.086,4.7,4.7,0,0,1,.914,3.109v.6h-5.727a3,3,0,0,0,.73,2.02,2.3,2.3,0,0,0,1.777.77,2.517,2.517,0,0,0,1.3-.312,3.259,3.259,0,0,0,.93-.828l.883.688A3.55,3.55,0,0,1-38.859.156Zm-.18-7.578a1.928,1.928,0,0,0-1.469.637A3.1,3.1,0,0,0-41.242-5h4.234v-.109A2.753,2.753,0,0,0-37.6-6.816,1.815,1.815,0,0,0-39.039-7.422Zm.7-4.578h1.75L-38.68-9.7l-1.164,0Zm5.8,3.547.039.938a3.122,3.122,0,0,1,2.508-1.094A2.417,2.417,0,0,1-27.57-7.25a3.2,3.2,0,0,1,1.1-.984,3.242,3.242,0,0,1,1.6-.375q2.781,0,2.828,2.945V0h-1.445V-5.578a1.941,1.941,0,0,0-.414-1.355A1.823,1.823,0,0,0-25.3-7.383a1.916,1.916,0,0,0-1.336.48,1.949,1.949,0,0,0-.617,1.293V0H-28.7V-5.539a1.613,1.613,0,0,0-1.8-1.844,1.934,1.934,0,0,0-1.945,1.211V0H-33.9V-8.453ZM-18.3,0h-1.445V-8.453H-18.3Zm-1.562-10.7a.863.863,0,0,1,.215-.594.807.807,0,0,1,.637-.242.819.819,0,0,1,.641.242.854.854,0,0,1,.219.594.826.826,0,0,1-.219.586.834.834,0,0,1-.641.234.821.821,0,0,1-.637-.234A.834.834,0,0,1-19.859-10.7Zm7.266,9.672a2.082,2.082,0,0,0,1.352-.469A1.649,1.649,0,0,0-10.6-2.664h1.367a2.621,2.621,0,0,1-.5,1.383,3.293,3.293,0,0,1-1.23,1.047,3.55,3.55,0,0,1-1.629.391A3.482,3.482,0,0,1-15.34-1a4.59,4.59,0,0,1-1.02-3.152v-.242a5.089,5.089,0,0,1,.453-2.2,3.451,3.451,0,0,1,1.3-1.492,3.7,3.7,0,0,1,2-.531,3.39,3.39,0,0,1,2.363.852,3.043,3.043,0,0,1,1,2.211H-10.6a1.992,1.992,0,0,0-.621-1.348A1.932,1.932,0,0,0-12.6-7.422a2.023,2.023,0,0,0-1.707.793,3.724,3.724,0,0,0-.605,2.293v.273a3.65,3.65,0,0,0,.6,2.25A2.033,2.033,0,0,0-12.594-1.023ZM-2.391,0a3.036,3.036,0,0,1-.2-.891A3.225,3.225,0,0,1-5,.156,2.984,2.984,0,0,1-7.051-.551a2.287,2.287,0,0,1-.8-1.793,2.39,2.39,0,0,1,1-2.051,4.733,4.733,0,0,1,2.824-.73h1.406v-.664A1.623,1.623,0,0,0-3.07-7a1.821,1.821,0,0,0-1.336-.449,2.107,2.107,0,0,0-1.3.391,1.151,1.151,0,0,0-.523.945H-7.68A2,2,0,0,1-7.23-7.332a3.066,3.066,0,0,1,1.219-.934A4.1,4.1,0,0,1-4.32-8.609a3.342,3.342,0,0,1,2.289.73,2.635,2.635,0,0,1,.859,2.012v3.891a4.757,4.757,0,0,0,.3,1.852V0Zm-2.4-1.1A2.54,2.54,0,0,0-3.5-1.453a2.127,2.127,0,0,0,.883-.914V-4.1H-3.75q-2.656,0-2.656,1.555a1.316,1.316,0,0,0,.453,1.063A1.742,1.742,0,0,0-4.789-1.1ZM-91.7,21.883l1.969-6.336h1.547l-3.4,9.758q-.789,2.109-2.508,2.109l-.273-.023-.539-.1V26.117l.391.031a1.923,1.923,0,0,0,1.145-.3,2.149,2.149,0,0,0,.676-1.086l.32-.859-3.016-8.359H-93.8Zm19.867-2.016a5.062,5.062,0,0,1-.883,3.109,2.829,2.829,0,0,1-2.391,1.18,3.1,3.1,0,0,1-2.422-.977v4.07h-1.445v-11.7h1.32l.07.938a2.977,2.977,0,0,1,2.453-1.094,2.882,2.882,0,0,1,2.41,1.148,5.117,5.117,0,0,1,.887,3.2Zm-1.445-.164a3.735,3.735,0,0,0-.609-2.258,1.963,1.963,0,0,0-1.672-.828,2.125,2.125,0,0,0-1.969,1.164V21.82a2.129,2.129,0,0,0,1.984,1.156,1.954,1.954,0,0,0,1.652-.824A4.077,4.077,0,0,0-73.273,19.7Zm7.367-2.859a4.331,4.331,0,0,0-.711-.055A1.9,1.9,0,0,0-68.547,18v6h-1.445V15.547h1.406l.023.977a2.251,2.251,0,0,1,2.016-1.133,1.477,1.477,0,0,1,.641.109Zm.789,2.852a4.993,4.993,0,0,1,.488-2.234A3.643,3.643,0,0,1-63.27,15.93a3.7,3.7,0,0,1,1.988-.539,3.565,3.565,0,0,1,2.793,1.2,4.6,4.6,0,0,1,1.066,3.18v.1a5.036,5.036,0,0,1-.473,2.215,3.589,3.589,0,0,1-1.352,1.527,3.743,3.743,0,0,1-2.02.547,3.556,3.556,0,0,1-2.785-1.2A4.575,4.575,0,0,1-65.117,19.8Zm1.453.172a3.616,3.616,0,0,0,.652,2.258,2.088,2.088,0,0,0,1.746.852,2.075,2.075,0,0,0,1.75-.863,3.955,3.955,0,0,0,.648-2.418,3.61,3.61,0,0,0-.66-2.254,2.1,2.1,0,0,0-1.754-.863,2.075,2.075,0,0,0-1.727.852A3.925,3.925,0,0,0-63.664,19.867ZM-54.9,24V16.664h-1.336V15.547H-54.9V14.68a2.878,2.878,0,0,1,.727-2.1,2.745,2.745,0,0,1,2.055-.742,3.816,3.816,0,0,1,.992.132l-.078,1.165a4.151,4.151,0,0,0-.781-.07,1.41,1.41,0,0,0-1.086.411,1.669,1.669,0,0,0-.383,1.18v.893h1.8v1.117h-1.8V24Zm8.352.156a3.693,3.693,0,0,1-2.8-1.129,4.19,4.19,0,0,1-1.078-3.02v-.266a5.073,5.073,0,0,1,.48-2.246A3.748,3.748,0,0,1-48.6,15.949a3.378,3.378,0,0,1,1.871-.559,3.166,3.166,0,0,1,2.563,1.086,4.7,4.7,0,0,1,.914,3.109v.6h-5.727a3,3,0,0,0,.73,2.02,2.3,2.3,0,0,0,1.777.77,2.517,2.517,0,0,0,1.3-.312,3.259,3.259,0,0,0,.93-.828l.883.688A3.55,3.55,0,0,1-46.547,24.156Zm-.18-7.578a1.928,1.928,0,0,0-1.469.637A3.1,3.1,0,0,0-48.93,19H-44.7v-.109a2.753,2.753,0,0,0-.594-1.707A1.815,1.815,0,0,0-46.727,16.578Zm10.07,5.18a1.064,1.064,0,0,0-.441-.91,4.249,4.249,0,0,0-1.539-.559,7.277,7.277,0,0,1-1.742-.562,2.479,2.479,0,0,1-.953-.781,1.869,1.869,0,0,1-.309-1.078,2.193,2.193,0,0,1,.879-1.758,3.432,3.432,0,0,1,2.246-.719,3.532,3.532,0,0,1,2.332.742,2.357,2.357,0,0,1,.895,1.9h-1.453a1.3,1.3,0,0,0-.5-1.023,1.888,1.888,0,0,0-1.27-.43,1.976,1.976,0,0,0-1.234.344,1.082,1.082,0,0,0-.445.9.877.877,0,0,0,.414.789,5.1,5.1,0,0,0,1.5.508,7.8,7.8,0,0,1,1.754.578,2.558,2.558,0,0,1,1,.809,1.988,1.988,0,0,1,.324,1.152,2.163,2.163,0,0,1-.906,1.816,3.8,3.8,0,0,1-2.352.684,4.257,4.257,0,0,1-1.8-.359,2.922,2.922,0,0,1-1.223-1A2.42,2.42,0,0,1-41.93,21.4h1.445a1.5,1.5,0,0,0,.582,1.152,2.258,2.258,0,0,0,1.434.426,2.331,2.331,0,0,0,1.316-.332A1.02,1.02,0,0,0-36.656,21.758Zm4.9,2.242H-33.2V15.547h1.445ZM-33.32,13.3a.863.863,0,0,1,.215-.594.807.807,0,0,1,.637-.242.819.819,0,0,1,.641.242.854.854,0,0,1,.219.594.826.826,0,0,1-.219.586.834.834,0,0,1-.641.234.821.821,0,0,1-.637-.234A.834.834,0,0,1-33.32,13.3Zm3.492,6.391a4.993,4.993,0,0,1,.488-2.234A3.643,3.643,0,0,1-27.98,15.93a3.7,3.7,0,0,1,1.988-.539,3.565,3.565,0,0,1,2.793,1.2,4.6,4.6,0,0,1,1.066,3.18v.1a5.036,5.036,0,0,1-.473,2.215,3.589,3.589,0,0,1-1.352,1.527,3.743,3.743,0,0,1-2.02.547,3.556,3.556,0,0,1-2.785-1.2A4.575,4.575,0,0,1-29.828,19.8Zm1.453.172a3.616,3.616,0,0,0,.652,2.258,2.088,2.088,0,0,0,1.746.852,2.075,2.075,0,0,0,1.75-.863,3.955,3.955,0,0,0,.648-2.418,3.61,3.61,0,0,0-.66-2.254,2.1,2.1,0,0,0-1.754-.863,2.075,2.075,0,0,0-1.727.852A3.925,3.925,0,0,0-28.375,19.867Zm9.422-4.32.047,1.063a3.08,3.08,0,0,1,2.531-1.219q2.68,0,2.7,3.023V24h-1.445V18.406a1.946,1.946,0,0,0-.418-1.352,1.675,1.675,0,0,0-1.277-.437,2.086,2.086,0,0,0-1.234.375,2.546,2.546,0,0,0-.828.984V24H-20.32V15.547ZM-6.273,24a3.036,3.036,0,0,1-.2-.891,3.225,3.225,0,0,1-2.406,1.047,2.984,2.984,0,0,1-2.051-.707,2.287,2.287,0,0,1-.8-1.793,2.39,2.39,0,0,1,1-2.051,4.733,4.733,0,0,1,2.824-.73H-6.5v-.664A1.623,1.623,0,0,0-6.953,17a1.821,1.821,0,0,0-1.336-.449,2.108,2.108,0,0,0-1.3.391,1.151,1.151,0,0,0-.523.945h-1.453a2,2,0,0,1,.449-1.223,3.066,3.066,0,0,1,1.219-.934A4.1,4.1,0,0,1-8.2,15.391a3.342,3.342,0,0,1,2.289.73,2.635,2.635,0,0,1,.859,2.012v3.891a4.757,4.757,0,0,0,.3,1.852V24Zm-2.4-1.1a2.54,2.54,0,0,0,1.289-.352,2.127,2.127,0,0,0,.883-.914V19.9H-7.633q-2.656,0-2.656,1.555a1.316,1.316,0,0,0,.453,1.063A1.742,1.742,0,0,0-8.672,22.9ZM-1.219,24H-2.664V12h1.445Z" transform="translate(705 810.001)" fill="#12263f"/>
    <path id="Trazado_189048" data-name="Trazado 189048" d="M-102.648-4.6h-2.672V0h-1.508V-11.375h3.766a4.457,4.457,0,0,1,2.957.875A3.148,3.148,0,0,1-99.07-7.953,3.062,3.062,0,0,1-99.645-6.1a3.428,3.428,0,0,1-1.6,1.18L-98.57-.094V0h-1.609Zm-2.672-1.227h2.3a2.6,2.6,0,0,0,1.777-.579,1.959,1.959,0,0,0,.66-1.55,2.062,2.062,0,0,0-.629-1.62,2.663,2.663,0,0,0-1.816-.571h-2.3ZM-93.687.156a3.693,3.693,0,0,1-2.8-1.129,4.19,4.19,0,0,1-1.078-3.02v-.266a5.073,5.073,0,0,1,.48-2.246,3.748,3.748,0,0,1,1.344-1.547,3.378,3.378,0,0,1,1.871-.559A3.166,3.166,0,0,1-91.3-7.523a4.7,4.7,0,0,1,.914,3.109v.6h-5.727a3,3,0,0,0,.73,2.02,2.3,2.3,0,0,0,1.777.77,2.517,2.517,0,0,0,1.3-.312,3.259,3.259,0,0,0,.93-.828l.883.688A3.55,3.55,0,0,1-93.687.156Zm-.18-7.578a1.928,1.928,0,0,0-1.469.637A3.1,3.1,0,0,0-96.07-5h4.234v-.109a2.753,2.753,0,0,0-.594-1.707A1.815,1.815,0,0,0-93.867-7.422ZM-87.148,0h-1.445V-12h1.445Zm7.531,0a3.036,3.036,0,0,1-.2-.891A3.225,3.225,0,0,1-82.227.156a2.984,2.984,0,0,1-2.051-.707,2.288,2.288,0,0,1-.8-1.793,2.39,2.39,0,0,1,1-2.051,4.733,4.733,0,0,1,2.824-.73h1.406v-.664A1.623,1.623,0,0,0-80.3-7a1.821,1.821,0,0,0-1.336-.449,2.108,2.108,0,0,0-1.3.391,1.151,1.151,0,0,0-.523.945h-1.453a2,2,0,0,1,.449-1.223,3.066,3.066,0,0,1,1.219-.934,4.1,4.1,0,0,1,1.691-.344,3.342,3.342,0,0,1,2.289.73A2.635,2.635,0,0,1-78.4-5.867v3.891a4.757,4.757,0,0,0,.3,1.852V0Zm-2.4-1.1a2.54,2.54,0,0,0,1.289-.352,2.127,2.127,0,0,0,.883-.914V-4.1h-1.133q-2.656,0-2.656,1.555a1.316,1.316,0,0,0,.453,1.063A1.742,1.742,0,0,0-82.016-1.1Zm9.273.078a2.082,2.082,0,0,0,1.352-.469,1.649,1.649,0,0,0,.641-1.172h1.367a2.621,2.621,0,0,1-.5,1.383,3.293,3.293,0,0,1-1.23,1.047,3.55,3.55,0,0,1-1.629.391A3.482,3.482,0,0,1-75.488-1a4.59,4.59,0,0,1-1.02-3.152v-.242a5.089,5.089,0,0,1,.453-2.2,3.451,3.451,0,0,1,1.3-1.492,3.7,3.7,0,0,1,2-.531,3.39,3.39,0,0,1,2.363.852,3.043,3.043,0,0,1,1,2.211H-70.75a1.992,1.992,0,0,0-.621-1.348,1.932,1.932,0,0,0-1.379-.527,2.023,2.023,0,0,0-1.707.793,3.724,3.724,0,0,0-.605,2.293v.273a3.65,3.65,0,0,0,.6,2.25A2.033,2.033,0,0,0-72.742-1.023ZM-66.187,0h-1.445V-8.453h1.445ZM-67.75-10.7a.863.863,0,0,1,.215-.594.807.807,0,0,1,.637-.242.819.819,0,0,1,.641.242.854.854,0,0,1,.219.594.826.826,0,0,1-.219.586.834.834,0,0,1-.641.234.821.821,0,0,1-.637-.234A.834.834,0,0,1-67.75-10.7ZM-64.258-4.3a4.993,4.993,0,0,1,.488-2.234A3.643,3.643,0,0,1-62.41-8.07a3.7,3.7,0,0,1,1.988-.539,3.565,3.565,0,0,1,2.793,1.2,4.6,4.6,0,0,1,1.066,3.18v.1a5.036,5.036,0,0,1-.473,2.215A3.589,3.589,0,0,1-58.387-.391a3.743,3.743,0,0,1-2.02.547,3.556,3.556,0,0,1-2.785-1.2A4.575,4.575,0,0,1-64.258-4.2Zm1.453.172a3.616,3.616,0,0,0,.652,2.258,2.088,2.088,0,0,0,1.746.852,2.075,2.075,0,0,0,1.75-.863A3.955,3.955,0,0,0-58.008-4.3a3.61,3.61,0,0,0-.66-2.254,2.1,2.1,0,0,0-1.754-.863,2.075,2.075,0,0,0-1.727.852A3.925,3.925,0,0,0-62.8-4.133Zm9.422-4.32.047,1.063A3.08,3.08,0,0,1-50.8-8.609q2.68,0,2.7,3.023V0h-1.445V-5.594a1.946,1.946,0,0,0-.418-1.352,1.675,1.675,0,0,0-1.277-.437,2.086,2.086,0,0,0-1.234.375,2.546,2.546,0,0,0-.828.984V0H-54.75V-8.453ZM-42.414.156a3.693,3.693,0,0,1-2.8-1.129,4.19,4.19,0,0,1-1.078-3.02v-.266a5.073,5.073,0,0,1,.48-2.246,3.748,3.748,0,0,1,1.344-1.547,3.378,3.378,0,0,1,1.871-.559,3.166,3.166,0,0,1,2.563,1.086,4.7,4.7,0,0,1,.914,3.109v.6h-5.727a3,3,0,0,0,.73,2.02,2.3,2.3,0,0,0,1.777.77,2.517,2.517,0,0,0,1.3-.312,3.259,3.259,0,0,0,.93-.828l.883.688A3.55,3.55,0,0,1-42.414.156Zm-.18-7.578a1.928,1.928,0,0,0-1.469.637A3.1,3.1,0,0,0-44.8-5h4.234v-.109a2.753,2.753,0,0,0-.594-1.707A1.815,1.815,0,0,0-42.594-7.422Zm10.07,5.18a1.064,1.064,0,0,0-.441-.91A4.249,4.249,0,0,0-34.5-3.711a7.277,7.277,0,0,1-1.742-.562,2.479,2.479,0,0,1-.953-.781,1.869,1.869,0,0,1-.309-1.078,2.193,2.193,0,0,1,.879-1.758,3.432,3.432,0,0,1,2.246-.719,3.532,3.532,0,0,1,2.332.742,2.357,2.357,0,0,1,.895,1.9h-1.453a1.3,1.3,0,0,0-.5-1.023,1.888,1.888,0,0,0-1.27-.43,1.976,1.976,0,0,0-1.234.344,1.082,1.082,0,0,0-.445.9.877.877,0,0,0,.414.789,5.1,5.1,0,0,0,1.5.508A7.8,7.8,0,0,1-32.4-4.3a2.558,2.558,0,0,1,1,.809,1.988,1.988,0,0,1,.324,1.152,2.163,2.163,0,0,1-.906,1.816,3.8,3.8,0,0,1-2.352.684,4.257,4.257,0,0,1-1.8-.359,2.922,2.922,0,0,1-1.223-1A2.42,2.42,0,0,1-37.8-2.6h1.445a1.5,1.5,0,0,0,.582,1.152,2.258,2.258,0,0,0,1.434.426,2.331,2.331,0,0,0,1.316-.332A1.02,1.02,0,0,0-32.523-2.242Zm10.68,1.219a2.082,2.082,0,0,0,1.352-.469,1.649,1.649,0,0,0,.641-1.172h1.367a2.621,2.621,0,0,1-.5,1.383,3.293,3.293,0,0,1-1.23,1.047,3.55,3.55,0,0,1-1.629.391A3.482,3.482,0,0,1-24.59-1a4.59,4.59,0,0,1-1.02-3.152v-.242a5.089,5.089,0,0,1,.453-2.2,3.451,3.451,0,0,1,1.3-1.492,3.7,3.7,0,0,1,2-.531,3.39,3.39,0,0,1,2.363.852,3.043,3.043,0,0,1,1,2.211h-1.367a1.992,1.992,0,0,0-.621-1.348,1.932,1.932,0,0,0-1.379-.527,2.023,2.023,0,0,0-1.707.793,3.724,3.724,0,0,0-.605,2.293v.273a3.65,3.65,0,0,0,.6,2.25A2.033,2.033,0,0,0-21.844-1.023Zm4.6-3.281a4.993,4.993,0,0,1,.488-2.234A3.643,3.643,0,0,1-15.395-8.07a3.7,3.7,0,0,1,1.988-.539,3.565,3.565,0,0,1,2.793,1.2,4.6,4.6,0,0,1,1.066,3.18v.1a5.036,5.036,0,0,1-.473,2.215A3.589,3.589,0,0,1-11.371-.391a3.743,3.743,0,0,1-2.02.547,3.556,3.556,0,0,1-2.785-1.2A4.575,4.575,0,0,1-17.242-4.2Zm1.453.172a3.616,3.616,0,0,0,.652,2.258,2.088,2.088,0,0,0,1.746.852,2.075,2.075,0,0,0,1.75-.863A3.955,3.955,0,0,0-10.992-4.3a3.61,3.61,0,0,0-.66-2.254,2.1,2.1,0,0,0-1.754-.863,2.075,2.075,0,0,0-1.727.852A3.925,3.925,0,0,0-15.789-4.133Zm9.422-4.32.047,1.063A3.08,3.08,0,0,1-3.789-8.609q2.68,0,2.7,3.023V0H-2.531V-5.594a1.946,1.946,0,0,0-.418-1.352,1.675,1.675,0,0,0-1.277-.437,2.086,2.086,0,0,0-1.234.375,2.546,2.546,0,0,0-.828.984V0H-7.734V-8.453ZM-79.2,19.7a4.993,4.993,0,0,1,.488-2.234,3.643,3.643,0,0,1,1.359-1.531,3.7,3.7,0,0,1,1.988-.539,3.565,3.565,0,0,1,2.793,1.2,4.6,4.6,0,0,1,1.066,3.18v.1a5.036,5.036,0,0,1-.473,2.215,3.589,3.589,0,0,1-1.352,1.527,3.743,3.743,0,0,1-2.02.547,3.556,3.556,0,0,1-2.785-1.2A4.575,4.575,0,0,1-79.2,19.8Zm1.453.172a3.616,3.616,0,0,0,.652,2.258,2.088,2.088,0,0,0,1.746.852,2.075,2.075,0,0,0,1.75-.863,3.955,3.955,0,0,0,.648-2.418,3.61,3.61,0,0,0-.66-2.254,2.1,2.1,0,0,0-1.754-.863,2.075,2.075,0,0,0-1.727.852A3.925,3.925,0,0,0-77.75,19.867ZM-67.734,13.5v2.047h1.578v1.117h-1.578v5.249a1.173,1.173,0,0,0,.211.763.888.888,0,0,0,.719.254,3.5,3.5,0,0,0,.688-.094V24a4.215,4.215,0,0,1-1.109.155,1.8,1.8,0,0,1-1.461-.586,2.517,2.517,0,0,1-.492-1.664V16.664h-1.539V15.547h1.539V13.5Zm7.352,3.344a4.331,4.331,0,0,0-.711-.055A1.9,1.9,0,0,0-63.023,18v6h-1.445V15.547h1.406l.023.977a2.251,2.251,0,0,1,2.016-1.133,1.477,1.477,0,0,1,.641.109ZM-54.148,24a3.036,3.036,0,0,1-.2-.891,3.225,3.225,0,0,1-2.406,1.047,2.984,2.984,0,0,1-2.051-.707,2.287,2.287,0,0,1-.8-1.793,2.39,2.39,0,0,1,1-2.051,4.733,4.733,0,0,1,2.824-.73h1.406v-.664A1.623,1.623,0,0,0-54.828,17a1.821,1.821,0,0,0-1.336-.449,2.107,2.107,0,0,0-1.3.391,1.151,1.151,0,0,0-.523.945h-1.453a2,2,0,0,1,.449-1.223,3.066,3.066,0,0,1,1.219-.934,4.1,4.1,0,0,1,1.691-.344,3.342,3.342,0,0,1,2.289.73,2.635,2.635,0,0,1,.859,2.012v3.891a4.757,4.757,0,0,0,.3,1.852V24Zm-2.4-1.1a2.54,2.54,0,0,0,1.289-.352,2.127,2.127,0,0,0,.883-.914V19.9h-1.133q-2.656,0-2.656,1.555a1.316,1.316,0,0,0,.453,1.063A1.742,1.742,0,0,0-56.547,22.9Zm10.8-1.141a1.064,1.064,0,0,0-.441-.91,4.249,4.249,0,0,0-1.539-.559,7.277,7.277,0,0,1-1.742-.562,2.479,2.479,0,0,1-.953-.781,1.869,1.869,0,0,1-.309-1.078,2.193,2.193,0,0,1,.879-1.758,3.432,3.432,0,0,1,2.246-.719,3.532,3.532,0,0,1,2.332.742,2.357,2.357,0,0,1,.895,1.9h-1.453a1.3,1.3,0,0,0-.5-1.023,1.888,1.888,0,0,0-1.27-.43,1.976,1.976,0,0,0-1.234.344,1.082,1.082,0,0,0-.445.9.877.877,0,0,0,.414.789,5.1,5.1,0,0,0,1.5.508,7.8,7.8,0,0,1,1.754.578,2.558,2.558,0,0,1,1,.809,1.988,1.988,0,0,1,.324,1.152,2.163,2.163,0,0,1-.906,1.816,3.8,3.8,0,0,1-2.352.684,4.257,4.257,0,0,1-1.8-.359,2.922,2.922,0,0,1-1.223-1,2.42,2.42,0,0,1-.441-1.395h1.445a1.5,1.5,0,0,0,.582,1.152,2.258,2.258,0,0,0,1.434.426,2.331,2.331,0,0,0,1.316-.332A1.02,1.02,0,0,0-45.742,21.758ZM-33.234,24a3.036,3.036,0,0,1-.2-.891,3.225,3.225,0,0,1-2.406,1.047,2.984,2.984,0,0,1-2.051-.707,2.287,2.287,0,0,1-.8-1.793,2.39,2.39,0,0,1,1-2.051,4.733,4.733,0,0,1,2.824-.73h1.406v-.664A1.623,1.623,0,0,0-33.914,17a1.821,1.821,0,0,0-1.336-.449,2.107,2.107,0,0,0-1.3.391,1.151,1.151,0,0,0-.523.945h-1.453a2,2,0,0,1,.449-1.223,3.066,3.066,0,0,1,1.219-.934,4.1,4.1,0,0,1,1.691-.344,3.342,3.342,0,0,1,2.289.73,2.635,2.635,0,0,1,.859,2.012v3.891a4.757,4.757,0,0,0,.3,1.852V24Zm-2.4-1.1a2.54,2.54,0,0,0,1.289-.352,2.127,2.127,0,0,0,.883-.914V19.9h-1.133q-2.656,0-2.656,1.555a1.316,1.316,0,0,0,.453,1.063A1.742,1.742,0,0,0-35.633,22.9ZM-34.3,12h1.75l-2.094,2.3-1.164,0Zm8.633,4.844a4.331,4.331,0,0,0-.711-.055A1.9,1.9,0,0,0-28.3,18v6H-29.75V15.547h1.406l.023.977A2.251,2.251,0,0,1-26.3,15.391a1.477,1.477,0,0,1,.641.109Zm4.836,7.313a3.693,3.693,0,0,1-2.8-1.129,4.19,4.19,0,0,1-1.078-3.02v-.266a5.073,5.073,0,0,1,.48-2.246,3.748,3.748,0,0,1,1.344-1.547,3.378,3.378,0,0,1,1.871-.559,3.166,3.166,0,0,1,2.563,1.086,4.7,4.7,0,0,1,.914,3.109v.6h-5.727a3,3,0,0,0,.73,2.02,2.3,2.3,0,0,0,1.777.77,2.517,2.517,0,0,0,1.3-.312,3.259,3.259,0,0,0,.93-.828l.883.688A3.55,3.55,0,0,1-20.828,24.156Zm-.18-7.578a1.928,1.928,0,0,0-1.469.637A3.1,3.1,0,0,0-23.211,19h4.234v-.109a2.753,2.753,0,0,0-.594-1.707A1.815,1.815,0,0,0-21.008,16.578ZM-10.641,24a3.036,3.036,0,0,1-.2-.891,3.225,3.225,0,0,1-2.406,1.047,2.984,2.984,0,0,1-2.051-.707,2.287,2.287,0,0,1-.8-1.793,2.39,2.39,0,0,1,1-2.051,4.733,4.733,0,0,1,2.824-.73h1.406v-.664A1.623,1.623,0,0,0-11.32,17a1.821,1.821,0,0,0-1.336-.449,2.108,2.108,0,0,0-1.3.391,1.151,1.151,0,0,0-.523.945H-15.93a2,2,0,0,1,.449-1.223,3.066,3.066,0,0,1,1.219-.934,4.1,4.1,0,0,1,1.691-.344,3.342,3.342,0,0,1,2.289.73,2.635,2.635,0,0,1,.859,2.012v3.891a4.757,4.757,0,0,0,.3,1.852V24Zm-2.4-1.1a2.54,2.54,0,0,0,1.289-.352,2.127,2.127,0,0,0,.883-.914V19.9H-12q-2.656,0-2.656,1.555a1.316,1.316,0,0,0,.453,1.063A1.742,1.742,0,0,0-13.039,22.9Zm10.8-1.141a1.064,1.064,0,0,0-.441-.91,4.249,4.249,0,0,0-1.539-.559,7.277,7.277,0,0,1-1.742-.562,2.479,2.479,0,0,1-.953-.781,1.869,1.869,0,0,1-.309-1.078,2.193,2.193,0,0,1,.879-1.758,3.432,3.432,0,0,1,2.246-.719,3.532,3.532,0,0,1,2.332.742,2.357,2.357,0,0,1,.895,1.9H-2.32a1.3,1.3,0,0,0-.5-1.023,1.888,1.888,0,0,0-1.27-.43,1.976,1.976,0,0,0-1.234.344,1.082,1.082,0,0,0-.445.9.877.877,0,0,0,.414.789,5.1,5.1,0,0,0,1.5.508,7.8,7.8,0,0,1,1.754.578,2.558,2.558,0,0,1,1,.809,1.988,1.988,0,0,1,.324,1.152A2.163,2.163,0,0,1-1.7,23.473a3.8,3.8,0,0,1-2.352.684,4.257,4.257,0,0,1-1.8-.359,2.922,2.922,0,0,1-1.223-1A2.42,2.42,0,0,1-7.508,21.4h1.445a1.5,1.5,0,0,0,.582,1.152,2.258,2.258,0,0,0,1.434.426,2.331,2.331,0,0,0,1.316-.332A1.02,1.02,0,0,0-2.234,21.758Z" transform="translate(704 1048.5)" fill="#12263f"/>
    <path id="Trazado_189052" data-name="Trazado 189052" d="M7.859-4.93h-4.5v3.047H8.641V0H1.016V-11.375H8.625v1.9H3.359v2.711h4.5Zm5.227-1,1.422-2.523h2.414L14.516-4.312,17.023,0H14.6L13.094-2.656,11.594,0H9.164l2.508-4.312-2.4-4.141H11.7ZM25.617-4.148A5.07,5.07,0,0,1,24.73-1.02,2.843,2.843,0,0,1,22.336.156a2.633,2.633,0,0,1-2.07-.891V3.25H18.008v-11.7H20.1l.078.828a2.654,2.654,0,0,1,2.141-.984,2.862,2.862,0,0,1,2.43,1.156,5.207,5.207,0,0,1,.867,3.188Zm-2.258-.164a3.327,3.327,0,0,0-.418-1.82,1.361,1.361,0,0,0-1.215-.641,1.478,1.478,0,0,0-1.461.813V-2.5a1.5,1.5,0,0,0,1.477.836Q23.359-1.664,23.359-4.312ZM30.906.156A4.15,4.15,0,0,1,27.879-.984a4.054,4.054,0,0,1-1.168-3.039v-.219A5.106,5.106,0,0,1,27.2-6.52,3.612,3.612,0,0,1,28.6-8.066a3.914,3.914,0,0,1,2.059-.543,3.508,3.508,0,0,1,2.73,1.094,4.444,4.444,0,0,1,1,3.1v.922H29a2.1,2.1,0,0,0,.66,1.328,2,2,0,0,0,1.395.5,2.437,2.437,0,0,0,2.039-.945L34.2-1.367A3.389,3.389,0,0,1,32.828-.246,4.511,4.511,0,0,1,30.906.156Zm-.258-6.945a1.411,1.411,0,0,0-1.09.455,2.357,2.357,0,0,0-.535,1.3h3.141v-.181a1.681,1.681,0,0,0-.406-1.165A1.456,1.456,0,0,0,30.648-6.789Zm9.766.453A6.134,6.134,0,0,0,39.6-6.4a1.654,1.654,0,0,0-1.68.867V0H35.664V-8.453H37.8l.063,1.008a2.092,2.092,0,0,1,1.883-1.164,2.366,2.366,0,0,1,.7.1ZM43.883,0H41.617V-8.453h2.266Zm-2.4-10.641a1.112,1.112,0,0,1,.34-.836,1.277,1.277,0,0,1,.926-.328,1.28,1.28,0,0,1,.922.328,1.105,1.105,0,0,1,.344.836,1.108,1.108,0,0,1-.348.844,1.283,1.283,0,0,1-.918.328,1.283,1.283,0,0,1-.918-.328A1.108,1.108,0,0,1,41.484-10.641ZM49.633.156A4.15,4.15,0,0,1,46.605-.984a4.054,4.054,0,0,1-1.168-3.039v-.219A5.106,5.106,0,0,1,45.93-6.52a3.612,3.612,0,0,1,1.395-1.547,3.914,3.914,0,0,1,2.059-.543,3.508,3.508,0,0,1,2.73,1.094,4.444,4.444,0,0,1,1,3.1v.922H47.727a2.1,2.1,0,0,0,.66,1.328,2,2,0,0,0,1.395.5,2.437,2.437,0,0,0,2.039-.945L52.93-1.367A3.389,3.389,0,0,1,51.555-.246,4.511,4.511,0,0,1,49.633.156Zm-.258-6.945a1.411,1.411,0,0,0-1.09.455,2.357,2.357,0,0,0-.535,1.3h3.141v-.181a1.681,1.681,0,0,0-.406-1.165A1.456,1.456,0,0,0,49.375-6.789Zm7.094-1.664.07.977a2.951,2.951,0,0,1,2.43-1.133,2.453,2.453,0,0,1,2,.789,3.682,3.682,0,0,1,.672,2.359V0H59.383V-5.406a1.465,1.465,0,0,0-.312-1.043,1.4,1.4,0,0,0-1.039-.324,1.553,1.553,0,0,0-1.43.813V0H54.344V-8.453Zm10.4,6.789a1.481,1.481,0,0,0,1.016-.344,1.2,1.2,0,0,0,.406-.914h2.117a2.9,2.9,0,0,1-.469,1.574A3.093,3.093,0,0,1,68.676-.238a3.949,3.949,0,0,1-1.77.395A3.67,3.67,0,0,1,64.047-1,4.56,4.56,0,0,1,63-4.18v-.148a4.508,4.508,0,0,1,1.039-3.117,3.627,3.627,0,0,1,2.852-1.164,3.555,3.555,0,0,1,2.543.9,3.2,3.2,0,0,1,.973,2.4H68.289a1.551,1.551,0,0,0-.406-1.072,1.354,1.354,0,0,0-1.031-.412,1.36,1.36,0,0,0-1.191.575,3.333,3.333,0,0,0-.4,1.866v.235a3.375,3.375,0,0,0,.4,1.878A1.377,1.377,0,0,0,66.867-1.664ZM74.078,0H71.813V-8.453h2.266Zm-2.4-10.641a1.112,1.112,0,0,1,.34-.836,1.277,1.277,0,0,1,.926-.328,1.28,1.28,0,0,1,.922.328,1.105,1.105,0,0,1,.344.836,1.108,1.108,0,0,1-.348.844,1.283,1.283,0,0,1-.918.328,1.283,1.283,0,0,1-.918-.328A1.108,1.108,0,0,1,71.68-10.641ZM80.836,0a2.507,2.507,0,0,1-.227-.758,2.732,2.732,0,0,1-2.133.914,3,3,0,0,1-2.059-.719A2.312,2.312,0,0,1,75.6-2.375a2.389,2.389,0,0,1,1-2.062,4.915,4.915,0,0,1,2.879-.727h1.039v-.484a1.393,1.393,0,0,0-.3-.937,1.183,1.183,0,0,0-.949-.352,1.345,1.345,0,0,0-.895.273.929.929,0,0,0-.324.75H75.789a2.268,2.268,0,0,1,.453-1.359,3,3,0,0,1,1.281-.98,4.669,4.669,0,0,1,1.859-.355,3.689,3.689,0,0,1,2.48.785,2.747,2.747,0,0,1,.918,2.207v3.664a4.041,4.041,0,0,0,.336,1.82V0ZM78.969-1.57a1.945,1.945,0,0,0,.922-.223,1.462,1.462,0,0,0,.625-.6V-3.844h-.844q-1.7,0-1.8,1.172l-.008.133a.9.9,0,0,0,.3.7A1.153,1.153,0,0,0,78.969-1.57ZM8.477,19.852A5.07,5.07,0,0,1,7.59,22.98,2.843,2.843,0,0,1,5.2,24.156a2.633,2.633,0,0,1-2.07-.891V27.25H.867v-11.7H2.961l.078.828a2.654,2.654,0,0,1,2.141-.984,2.862,2.862,0,0,1,2.43,1.156,5.207,5.207,0,0,1,.867,3.188Zm-2.258-.164a3.327,3.327,0,0,0-.418-1.82,1.361,1.361,0,0,0-1.215-.641,1.478,1.478,0,0,0-1.461.813V21.5a1.5,1.5,0,0,0,1.477.836Q6.219,22.336,6.219,19.688Zm8.406-2.023a6.134,6.134,0,0,0-.812-.062,1.654,1.654,0,0,0-1.68.867V24H9.875V15.547h2.133l.063,1.008a2.092,2.092,0,0,1,1.883-1.164,2.366,2.366,0,0,1,.7.1Zm.453,2.031a5.013,5.013,0,0,1,.484-2.242,3.546,3.546,0,0,1,1.395-1.523,4.069,4.069,0,0,1,2.113-.539,3.849,3.849,0,0,1,2.793,1.047,4.2,4.2,0,0,1,1.207,2.844l.016.578A4.418,4.418,0,0,1,22,22.98a3.775,3.775,0,0,1-2.914,1.176,3.793,3.793,0,0,1-2.918-1.172,4.5,4.5,0,0,1-1.09-3.187Zm2.258.16a3.16,3.16,0,0,0,.453,1.843,1.628,1.628,0,0,0,2.578.008,3.457,3.457,0,0,0,.461-2.015,3.128,3.128,0,0,0-.461-1.831,1.5,1.5,0,0,0-1.3-.649,1.474,1.474,0,0,0-1.281.646A3.516,3.516,0,0,0,17.336,19.856ZM25.094,24V17.2H23.836V15.547h1.258v-.719a2.918,2.918,0,0,1,.816-2.207,3.162,3.162,0,0,1,2.285-.785,5.278,5.278,0,0,1,1.148.156l-.023,1.75a2.878,2.878,0,0,0-.687-.07q-1.273,0-1.273,1.2v.68h1.68V17.2h-1.68V24Zm9.008.156a4.15,4.15,0,0,1-3.027-1.141,4.054,4.054,0,0,1-1.168-3.039v-.219A5.106,5.106,0,0,1,30.4,17.48a3.612,3.612,0,0,1,1.395-1.547,3.914,3.914,0,0,1,2.059-.543,3.508,3.508,0,0,1,2.73,1.094,4.444,4.444,0,0,1,1,3.1v.922H32.2a2.1,2.1,0,0,0,.66,1.328,2,2,0,0,0,1.395.5,2.437,2.437,0,0,0,2.039-.945L37.4,22.633a3.389,3.389,0,0,1-1.375,1.121A4.511,4.511,0,0,1,34.1,24.156Zm-.258-6.945a1.411,1.411,0,0,0-1.09.455,2.357,2.357,0,0,0-.535,1.3h3.141v-.181a1.681,1.681,0,0,0-.406-1.165A1.456,1.456,0,0,0,33.844,17.211Zm9.594,4.453a.727.727,0,0,0-.41-.652,4.659,4.659,0,0,0-1.316-.426Q38.7,19.953,38.7,18.023a2.323,2.323,0,0,1,.934-1.879,3.766,3.766,0,0,1,2.441-.754,4.053,4.053,0,0,1,2.574.758,2.388,2.388,0,0,1,.965,1.969H43.352a1.092,1.092,0,0,0-.312-.8A1.322,1.322,0,0,0,42.063,17a1.351,1.351,0,0,0-.883.258.814.814,0,0,0-.312.656.7.7,0,0,0,.355.605,3.657,3.657,0,0,0,1.2.4,9.8,9.8,0,0,1,1.422.379,2.336,2.336,0,0,1,1.789,2.273,2.2,2.2,0,0,1-.992,1.871,4.28,4.28,0,0,1-2.562.715,4.47,4.47,0,0,1-1.887-.379A3.166,3.166,0,0,1,38.9,22.738a2.414,2.414,0,0,1-.469-1.426H40.57a1.179,1.179,0,0,0,.445.922,1.766,1.766,0,0,0,1.109.32,1.635,1.635,0,0,0,.98-.246A.766.766,0,0,0,43.438,21.664ZM49.469,24H47.2V15.547h2.266Zm-2.4-10.641a1.112,1.112,0,0,1,.34-.836,1.465,1.465,0,0,1,1.848,0,1.193,1.193,0,0,1,0,1.68,1.448,1.448,0,0,1-1.836,0A1.108,1.108,0,0,1,47.07,13.359ZM50.977,19.7a5.013,5.013,0,0,1,.484-2.242,3.546,3.546,0,0,1,1.395-1.523,4.069,4.069,0,0,1,2.113-.539,3.849,3.849,0,0,1,2.793,1.047,4.2,4.2,0,0,1,1.207,2.844l.016.578A4.418,4.418,0,0,1,57.9,22.98a4.209,4.209,0,0,1-5.832,0,4.5,4.5,0,0,1-1.09-3.187Zm2.258.16a3.16,3.16,0,0,0,.453,1.843,1.628,1.628,0,0,0,2.578.008,3.457,3.457,0,0,0,.461-2.015,3.128,3.128,0,0,0-.461-1.831,1.5,1.5,0,0,0-1.3-.649,1.474,1.474,0,0,0-1.281.646A3.516,3.516,0,0,0,53.234,19.856Zm9.219-4.309.07.977a2.951,2.951,0,0,1,2.43-1.133,2.453,2.453,0,0,1,2,.789,3.682,3.682,0,0,1,.672,2.359V24H65.367V18.594a1.465,1.465,0,0,0-.312-1.043,1.4,1.4,0,0,0-1.039-.324,1.553,1.553,0,0,0-1.43.813V24H60.328V15.547ZM74.234,24a2.507,2.507,0,0,1-.227-.758,2.732,2.732,0,0,1-2.133.914,3,3,0,0,1-2.059-.719A2.312,2.312,0,0,1,69,21.625a2.389,2.389,0,0,1,1-2.062,4.915,4.915,0,0,1,2.879-.727h1.039v-.484a1.393,1.393,0,0,0-.3-.937,1.183,1.183,0,0,0-.949-.352,1.345,1.345,0,0,0-.895.273.929.929,0,0,0-.324.75H69.188a2.268,2.268,0,0,1,.453-1.359,3,3,0,0,1,1.281-.98,4.669,4.669,0,0,1,1.859-.355,3.689,3.689,0,0,1,2.48.785,2.747,2.747,0,0,1,.918,2.207v3.664a4.041,4.041,0,0,0,.336,1.82V24Zm-1.867-1.57a1.945,1.945,0,0,0,.922-.223,1.462,1.462,0,0,0,.625-.6V20.156H73.07q-1.7,0-1.8,1.172l-.008.133a.9.9,0,0,0,.3.7A1.153,1.153,0,0,0,72.367,22.43ZM80.3,24H78.031V12H80.3Z" transform="translate(898 819)" fill="#12263f"/>
    <path id="Trazado_189046" data-name="Trazado 189046" d="M3.359-4.008V0H1.016V-11.375H5.453a5.134,5.134,0,0,1,2.254.469A3.454,3.454,0,0,1,9.2-9.574a3.714,3.714,0,0,1,.523,1.965A3.266,3.266,0,0,1,8.582-4.973a4.767,4.767,0,0,1-3.168.965Zm0-1.9H5.453a2.059,2.059,0,0,0,1.418-.437,1.591,1.591,0,0,0,.488-1.25,1.876,1.876,0,0,0-.492-1.352,1.839,1.839,0,0,0-1.359-.531H3.359Zm7.375,1.6a5.013,5.013,0,0,1,.484-2.242A3.546,3.546,0,0,1,12.613-8.07a4.069,4.069,0,0,1,2.113-.539A3.849,3.849,0,0,1,17.52-7.562a4.2,4.2,0,0,1,1.207,2.844l.016.578A4.418,4.418,0,0,1,17.656-1.02,3.775,3.775,0,0,1,14.742.156a3.793,3.793,0,0,1-2.918-1.172A4.5,4.5,0,0,1,10.734-4.2Zm2.258.16A3.16,3.16,0,0,0,13.445-2.3a1.5,1.5,0,0,0,1.3.638,1.5,1.5,0,0,0,1.281-.63,3.457,3.457,0,0,0,.461-2.015,3.128,3.128,0,0,0-.461-1.831,1.5,1.5,0,0,0-1.3-.649,1.474,1.474,0,0,0-1.281.646A3.516,3.516,0,0,0,12.992-4.144ZM24.711-2.336a.727.727,0,0,0-.41-.652,4.659,4.659,0,0,0-1.316-.426q-3.016-.633-3.016-2.562A2.323,2.323,0,0,1,20.9-7.855a3.766,3.766,0,0,1,2.441-.754,4.053,4.053,0,0,1,2.574.758,2.388,2.388,0,0,1,.965,1.969H24.625a1.092,1.092,0,0,0-.312-.8A1.322,1.322,0,0,0,23.336-7a1.351,1.351,0,0,0-.883.258.814.814,0,0,0-.312.656.7.7,0,0,0,.355.605,3.657,3.657,0,0,0,1.2.4,9.8,9.8,0,0,1,1.422.379A2.336,2.336,0,0,1,26.906-2.43a2.2,2.2,0,0,1-.992,1.871,4.28,4.28,0,0,1-2.562.715,4.47,4.47,0,0,1-1.887-.379,3.166,3.166,0,0,1-1.293-1.039A2.414,2.414,0,0,1,19.7-2.687h2.141a1.179,1.179,0,0,0,.445.922,1.766,1.766,0,0,0,1.109.32,1.635,1.635,0,0,0,.98-.246A.766.766,0,0,0,24.711-2.336ZM30.742,0H28.477V-8.453h2.266Zm-2.4-10.641a1.112,1.112,0,0,1,.34-.836,1.277,1.277,0,0,1,.926-.328,1.28,1.28,0,0,1,.922.328,1.105,1.105,0,0,1,.344.836,1.108,1.108,0,0,1-.348.844,1.283,1.283,0,0,1-.918.328,1.283,1.283,0,0,1-.918-.328A1.108,1.108,0,0,1,28.344-10.641Zm7.773,8.977a1.481,1.481,0,0,0,1.016-.344,1.2,1.2,0,0,0,.406-.914h2.117a2.9,2.9,0,0,1-.469,1.574A3.093,3.093,0,0,1,37.926-.238a3.949,3.949,0,0,1-1.77.395A3.67,3.67,0,0,1,33.3-1,4.56,4.56,0,0,1,32.25-4.18v-.148a4.508,4.508,0,0,1,1.039-3.117,3.627,3.627,0,0,1,2.852-1.164,3.555,3.555,0,0,1,2.543.9,3.2,3.2,0,0,1,.973,2.4H37.539a1.551,1.551,0,0,0-.406-1.072A1.354,1.354,0,0,0,36.1-6.789a1.36,1.36,0,0,0-1.191.575,3.333,3.333,0,0,0-.4,1.866v.235a3.375,3.375,0,0,0,.4,1.878A1.377,1.377,0,0,0,36.117-1.664ZM43.328,0H41.063V-8.453h2.266Zm-2.4-10.641a1.112,1.112,0,0,1,.34-.836A1.277,1.277,0,0,1,42.2-11.8a1.28,1.28,0,0,1,.922.328,1.105,1.105,0,0,1,.344.836,1.108,1.108,0,0,1-.348.844,1.283,1.283,0,0,1-.918.328,1.283,1.283,0,0,1-.918-.328A1.108,1.108,0,0,1,40.93-10.641ZM44.836-4.3a5.013,5.013,0,0,1,.484-2.242A3.546,3.546,0,0,1,46.715-8.07a4.069,4.069,0,0,1,2.113-.539,3.849,3.849,0,0,1,2.793,1.047,4.2,4.2,0,0,1,1.207,2.844l.016.578A4.418,4.418,0,0,1,51.758-1.02,3.775,3.775,0,0,1,48.844.156a3.793,3.793,0,0,1-2.918-1.172A4.5,4.5,0,0,1,44.836-4.2Zm2.258.16A3.16,3.16,0,0,0,47.547-2.3a1.5,1.5,0,0,0,1.3.638,1.5,1.5,0,0,0,1.281-.63,3.457,3.457,0,0,0,.461-2.015,3.128,3.128,0,0,0-.461-1.831,1.5,1.5,0,0,0-1.3-.649,1.474,1.474,0,0,0-1.281.646A3.516,3.516,0,0,0,47.094-4.144ZM49.273-12h2.461L49.57-9.578H47.734Zm7.039,3.547.07.977a2.951,2.951,0,0,1,2.43-1.133,2.453,2.453,0,0,1,2,.789,3.682,3.682,0,0,1,.672,2.359V0H59.227V-5.406a1.465,1.465,0,0,0-.312-1.043,1.4,1.4,0,0,0-1.039-.324,1.553,1.553,0,0,0-1.43.813V0H54.188V-8.453Zm-53.055,24v8.914a3.024,3.024,0,0,1-.742,2.176,2.821,2.821,0,0,1-2.141.777,4.591,4.591,0,0,1-1.117-.133V25.492a4.238,4.238,0,0,0,.711.07q1.023,0,1.023-1.086v-8.93ZM.813,13.359a1.112,1.112,0,0,1,.34-.836,1.277,1.277,0,0,1,.926-.328A1.277,1.277,0,0,1,3,12.523,1.2,1.2,0,0,1,3,14.2a1.283,1.283,0,0,1-.918.328A1.283,1.283,0,0,1,1.16,14.2,1.108,1.108,0,0,1,.813,13.359Zm8.1,10.8a4.15,4.15,0,0,1-3.027-1.141,4.054,4.054,0,0,1-1.168-3.039v-.219a5.106,5.106,0,0,1,.492-2.277,3.612,3.612,0,0,1,1.395-1.547,3.914,3.914,0,0,1,2.059-.543,3.508,3.508,0,0,1,2.73,1.094,4.444,4.444,0,0,1,1,3.1v.922H7.008a2.1,2.1,0,0,0,.66,1.328,2,2,0,0,0,1.395.5,2.437,2.437,0,0,0,2.039-.945l1.109,1.242a3.389,3.389,0,0,1-1.375,1.121A4.511,4.511,0,0,1,8.914,24.156Zm-.258-6.945a1.411,1.411,0,0,0-1.09.455,2.357,2.357,0,0,0-.535,1.3h3.141v-.181a1.681,1.681,0,0,0-.406-1.165A1.456,1.456,0,0,0,8.656,17.211Zm9.766.453a6.134,6.134,0,0,0-.812-.062,1.654,1.654,0,0,0-1.68.867V24H13.672V15.547H15.8l.063,1.008a2.092,2.092,0,0,1,1.883-1.164,2.366,2.366,0,0,1,.7.1ZM24.406,24a2.507,2.507,0,0,1-.227-.758,2.732,2.732,0,0,1-2.133.914,3,3,0,0,1-2.059-.719,2.312,2.312,0,0,1-.816-1.812,2.389,2.389,0,0,1,1-2.062,4.915,4.915,0,0,1,2.879-.727h1.039v-.484a1.393,1.393,0,0,0-.3-.937,1.183,1.183,0,0,0-.949-.352,1.345,1.345,0,0,0-.895.273.929.929,0,0,0-.324.75H19.359a2.268,2.268,0,0,1,.453-1.359,3,3,0,0,1,1.281-.98,4.669,4.669,0,0,1,1.859-.355,3.689,3.689,0,0,1,2.48.785,2.747,2.747,0,0,1,.918,2.207v3.664a4.041,4.041,0,0,0,.336,1.82V24Zm-1.867-1.57a1.945,1.945,0,0,0,.922-.223,1.462,1.462,0,0,0,.625-.6V20.156h-.844q-1.7,0-1.8,1.172l-.008.133a.9.9,0,0,0,.3.7A1.153,1.153,0,0,0,22.539,22.43ZM23.4,12h2.461L23.7,14.422H21.859Zm9.438,5.664a6.134,6.134,0,0,0-.812-.062,1.654,1.654,0,0,0-1.68.867V24H28.086V15.547h2.133l.063,1.008a2.092,2.092,0,0,1,1.883-1.164,2.366,2.366,0,0,1,.7.1ZM33.57,19.7a5.053,5.053,0,0,1,.887-3.148,2.9,2.9,0,0,1,2.434-1.156,2.6,2.6,0,0,1,2.164,1.039l.148-.883h1.984v11.7H38.922V23.273a2.6,2.6,0,0,1-2.047.883,2.878,2.878,0,0,1-2.406-1.172A5.3,5.3,0,0,1,33.57,19.7Zm2.258.16a3.314,3.314,0,0,0,.426,1.847,1.363,1.363,0,0,0,1.2.634,1.518,1.518,0,0,0,1.469-.829v-3.5a1.506,1.506,0,0,0-1.453-.8,1.38,1.38,0,0,0-1.211.634A3.661,3.661,0,0,0,35.828,19.856Zm12.2,3.285a2.831,2.831,0,0,1-2.312,1.016,2.67,2.67,0,0,1-2.074-.781,3.335,3.335,0,0,1-.73-2.289V15.547h2.258v5.467q0,1.322,1.2,1.322a1.63,1.63,0,0,0,1.578-.8V15.547h2.266V24H48.086ZM54.3,24H52.031V15.547H54.3ZM51.9,13.359a1.112,1.112,0,0,1,.34-.836,1.465,1.465,0,0,1,1.848,0,1.193,1.193,0,0,1,0,1.68,1.448,1.448,0,0,1-1.836,0A1.108,1.108,0,0,1,51.9,13.359Zm7.773,8.977a1.481,1.481,0,0,0,1.016-.344,1.2,1.2,0,0,0,.406-.914h2.117a2.9,2.9,0,0,1-.469,1.574,3.093,3.093,0,0,1-1.262,1.109,3.949,3.949,0,0,1-1.77.395A3.67,3.67,0,0,1,56.852,23,4.56,4.56,0,0,1,55.8,19.82v-.148a4.508,4.508,0,0,1,1.039-3.117A3.627,3.627,0,0,1,59.7,15.391a3.555,3.555,0,0,1,2.543.9,3.2,3.2,0,0,1,.973,2.4H61.094a1.551,1.551,0,0,0-.406-1.072,1.51,1.51,0,0,0-2.223.163,3.333,3.333,0,0,0-.4,1.866v.235a3.375,3.375,0,0,0,.4,1.878A1.377,1.377,0,0,0,59.672,22.336ZM69.4,24a2.507,2.507,0,0,1-.227-.758,2.732,2.732,0,0,1-2.133.914,3,3,0,0,1-2.059-.719,2.312,2.312,0,0,1-.816-1.812,2.389,2.389,0,0,1,1-2.062,4.915,4.915,0,0,1,2.879-.727h1.039v-.484a1.393,1.393,0,0,0-.3-.937,1.183,1.183,0,0,0-.949-.352,1.345,1.345,0,0,0-.895.273.929.929,0,0,0-.324.75H64.352a2.268,2.268,0,0,1,.453-1.359,3,3,0,0,1,1.281-.98,4.669,4.669,0,0,1,1.859-.355,3.689,3.689,0,0,1,2.48.785,2.747,2.747,0,0,1,.918,2.207v3.664a4.041,4.041,0,0,0,.336,1.82V24Zm-1.867-1.57a1.945,1.945,0,0,0,.922-.223,1.462,1.462,0,0,0,.625-.6V20.156h-.844q-1.7,0-1.8,1.172l-.008.133a.9.9,0,0,0,.3.7A1.153,1.153,0,0,0,67.531,22.43Z" transform="translate(899 933.5)" fill="#12263f"/>
    <path id="Trazado_189043" data-name="Trazado 189043" d="M5.227-4.164H3.359V0H1.016V-11.375H5.242a4.778,4.778,0,0,1,3.109.9A3.1,3.1,0,0,1,9.445-7.937,3.5,3.5,0,0,1,8.941-6,3.437,3.437,0,0,1,7.414-4.758L9.875-.109V0H7.359Zm-1.867-1.9H5.25a1.936,1.936,0,0,0,1.367-.449A1.606,1.606,0,0,0,7.1-7.75a1.719,1.719,0,0,0-.457-1.266,1.9,1.9,0,0,0-1.4-.461H3.359ZM15.977,0a2.507,2.507,0,0,1-.227-.758,2.732,2.732,0,0,1-2.133.914,3,3,0,0,1-2.059-.719,2.312,2.312,0,0,1-.816-1.812,2.389,2.389,0,0,1,1-2.062,4.915,4.915,0,0,1,2.879-.727h1.039v-.484a1.393,1.393,0,0,0-.3-.937,1.183,1.183,0,0,0-.949-.352,1.345,1.345,0,0,0-.895.273.929.929,0,0,0-.324.75H10.93a2.268,2.268,0,0,1,.453-1.359,3,3,0,0,1,1.281-.98,4.669,4.669,0,0,1,1.859-.355A3.689,3.689,0,0,1,17-7.824a2.747,2.747,0,0,1,.918,2.207v3.664a4.041,4.041,0,0,0,.336,1.82V0ZM14.109-1.57a1.945,1.945,0,0,0,.922-.223,1.462,1.462,0,0,0,.625-.6V-3.844h-.844q-1.7,0-1.8,1.172L13-2.539a.9.9,0,0,0,.3.7A1.153,1.153,0,0,0,14.109-1.57Zm7.625-6.883.07.977a2.951,2.951,0,0,1,2.43-1.133,2.453,2.453,0,0,1,2,.789,3.682,3.682,0,0,1,.672,2.359V0H24.648V-5.406a1.465,1.465,0,0,0-.312-1.043A1.4,1.4,0,0,0,23.3-6.773a1.553,1.553,0,0,0-1.43.813V0H19.609V-8.453Zm6.555,4.164a4.954,4.954,0,0,1,.926-3.133,3,3,0,0,1,2.5-1.187,2.631,2.631,0,0,1,2.164.953l.094-.8h2.047V-.281a3.613,3.613,0,0,1-.5,1.93A3.236,3.236,0,0,1,34.094,2.9a4.985,4.985,0,0,1-2.141.43,4.635,4.635,0,0,1-1.812-.371A3.217,3.217,0,0,1,28.8,2l1-1.375a2.645,2.645,0,0,0,2.047.945,1.936,1.936,0,0,0,1.4-.48,1.8,1.8,0,0,0,.5-1.363V-.727A2.612,2.612,0,0,1,31.7.156,2.992,2.992,0,0,1,29.23-1.035a4.953,4.953,0,0,1-.941-3.16Zm2.258.168a3.085,3.085,0,0,0,.461,1.8,1.466,1.466,0,0,0,1.266.653,1.568,1.568,0,0,0,1.477-.775V-6a1.564,1.564,0,0,0-1.461-.775,1.476,1.476,0,0,0-1.277.665A3.477,3.477,0,0,0,30.547-4.121ZM37.4-4.3a5.013,5.013,0,0,1,.484-2.242A3.546,3.546,0,0,1,39.277-8.07a4.069,4.069,0,0,1,2.113-.539,3.849,3.849,0,0,1,2.793,1.047,4.2,4.2,0,0,1,1.207,2.844l.016.578A4.418,4.418,0,0,1,44.32-1.02,3.775,3.775,0,0,1,41.406.156a3.793,3.793,0,0,1-2.918-1.172A4.5,4.5,0,0,1,37.4-4.2Zm2.258.16A3.16,3.16,0,0,0,40.109-2.3a1.5,1.5,0,0,0,1.3.638,1.5,1.5,0,0,0,1.281-.63,3.457,3.457,0,0,0,.461-2.015,3.128,3.128,0,0,0-.461-1.831,1.5,1.5,0,0,0-1.3-.649,1.474,1.474,0,0,0-1.281.646A3.516,3.516,0,0,0,39.656-4.144Zm15.7,1.808a.727.727,0,0,0-.41-.652,4.659,4.659,0,0,0-1.316-.426q-3.016-.633-3.016-2.562a2.323,2.323,0,0,1,.934-1.879,3.766,3.766,0,0,1,2.441-.754,4.053,4.053,0,0,1,2.574.758,2.388,2.388,0,0,1,.965,1.969H55.273a1.092,1.092,0,0,0-.312-.8A1.322,1.322,0,0,0,53.984-7a1.351,1.351,0,0,0-.883.258.814.814,0,0,0-.312.656.7.7,0,0,0,.355.605,3.657,3.657,0,0,0,1.2.4,9.8,9.8,0,0,1,1.422.379A2.336,2.336,0,0,1,57.555-2.43a2.2,2.2,0,0,1-.992,1.871A4.28,4.28,0,0,1,54,.156a4.47,4.47,0,0,1-1.887-.379A3.166,3.166,0,0,1,50.82-1.262a2.414,2.414,0,0,1-.469-1.426h2.141a1.179,1.179,0,0,0,.445.922,1.766,1.766,0,0,0,1.109.32,1.635,1.635,0,0,0,.98-.246A.766.766,0,0,0,55.359-2.336ZM63.906,0a2.507,2.507,0,0,1-.227-.758,2.732,2.732,0,0,1-2.133.914,3,3,0,0,1-2.059-.719,2.312,2.312,0,0,1-.816-1.812,2.389,2.389,0,0,1,1-2.062,4.915,4.915,0,0,1,2.879-.727h1.039v-.484a1.393,1.393,0,0,0-.3-.937,1.183,1.183,0,0,0-.949-.352,1.345,1.345,0,0,0-.895.273.929.929,0,0,0-.324.75H58.859a2.268,2.268,0,0,1,.453-1.359,3,3,0,0,1,1.281-.98,4.669,4.669,0,0,1,1.859-.355,3.689,3.689,0,0,1,2.48.785,2.747,2.747,0,0,1,.918,2.207v3.664a4.041,4.041,0,0,0,.336,1.82V0ZM62.039-1.57a1.945,1.945,0,0,0,.922-.223,1.462,1.462,0,0,0,.625-.6V-3.844h-.844q-1.7,0-1.8,1.172l-.008.133a.9.9,0,0,0,.3.7A1.153,1.153,0,0,0,62.039-1.57ZM69.969,0H67.7V-12h2.266Zm6.758,0A2.507,2.507,0,0,1,76.5-.758a2.732,2.732,0,0,1-2.133.914,3,3,0,0,1-2.059-.719,2.312,2.312,0,0,1-.816-1.812,2.389,2.389,0,0,1,1-2.062,4.915,4.915,0,0,1,2.879-.727h1.039v-.484a1.393,1.393,0,0,0-.3-.937,1.183,1.183,0,0,0-.949-.352,1.345,1.345,0,0,0-.895.273.929.929,0,0,0-.324.75H71.68a2.268,2.268,0,0,1,.453-1.359,3,3,0,0,1,1.281-.98,4.669,4.669,0,0,1,1.859-.355,3.689,3.689,0,0,1,2.48.785,2.747,2.747,0,0,1,.918,2.207v3.664a4.041,4.041,0,0,0,.336,1.82V0ZM74.859-1.57a1.945,1.945,0,0,0,.922-.223,1.462,1.462,0,0,0,.625-.6V-3.844h-.844q-1.7,0-1.8,1.172l-.008.133a.9.9,0,0,0,.3.7A1.153,1.153,0,0,0,74.859-1.57Zm10.3-4.766a6.134,6.134,0,0,0-.812-.062,1.654,1.654,0,0,0-1.68.867V0H80.406V-8.453h2.133L82.6-7.445a2.092,2.092,0,0,1,1.883-1.164,2.366,2.366,0,0,1,.7.1ZM88.625,0H86.359V-8.453h2.266Zm-2.4-10.641a1.112,1.112,0,0,1,.34-.836,1.277,1.277,0,0,1,.926-.328,1.28,1.28,0,0,1,.922.328,1.105,1.105,0,0,1,.344.836,1.108,1.108,0,0,1-.348.844,1.283,1.283,0,0,1-.918.328,1.283,1.283,0,0,1-.918-.328A1.108,1.108,0,0,1,86.227-10.641ZM95.383,0a2.507,2.507,0,0,1-.227-.758,2.732,2.732,0,0,1-2.133.914,3,3,0,0,1-2.059-.719,2.312,2.312,0,0,1-.816-1.812,2.389,2.389,0,0,1,1-2.062,4.915,4.915,0,0,1,2.879-.727h1.039v-.484a1.393,1.393,0,0,0-.3-.937,1.183,1.183,0,0,0-.949-.352,1.345,1.345,0,0,0-.895.273.929.929,0,0,0-.324.75H90.336a2.268,2.268,0,0,1,.453-1.359,3,3,0,0,1,1.281-.98,4.669,4.669,0,0,1,1.859-.355,3.689,3.689,0,0,1,2.48.785,2.747,2.747,0,0,1,.918,2.207v3.664a4.041,4.041,0,0,0,.336,1.82V0ZM93.516-1.57a1.945,1.945,0,0,0,.922-.223,1.462,1.462,0,0,0,.625-.6V-3.844h-.844q-1.7,0-1.8,1.172l-.008.133a.9.9,0,0,0,.3.7A1.153,1.153,0,0,0,93.516-1.57ZM101.445,0H99.18V-12h2.266Z" transform="translate(898 1063.5)" fill="#12263f"/>
    <g id="Grupo_128645" data-name="Grupo 128645" transform="translate(760.762 939.505)">
      <path id="Trazado_188698" data-name="Trazado 188698" d="M31.752,220.184H26.443a5.816,5.816,0,0,1-6.033-6.031v-15.93a.722.722,0,1,1,1.445,0v15.93c0,.185.079,4.587,4.588,4.587H31.75a.722.722,0,0,1,0,1.445Z" transform="translate(-20.41 -197.5)" fill="#6836bf" stroke="#683cbc" stroke-width="0.5"/>
    </g>
    <g id="Grupo_128646" data-name="Grupo 128646" transform="translate(771.383 944.816)">
      <path id="Trazado_188699" data-name="Trazado 188699" d="M97.912,253.264a.722.722,0,0,1-.7-.547L94.56,242.1a.706.706,0,0,1-.021-.175c-.075-.5-1.532-1.93-7.247-1.93a.722.722,0,0,1-.722-.722V231.3a.722.722,0,0,1,1.445,0v7.253c7.162.151,7.9,2.538,7.964,3.261l2.636,10.551a.722.722,0,0,1-.527.875A.76.76,0,0,1,97.912,253.264Z" transform="translate(-86.57 -230.58)" fill="#6836bf" stroke="#683cbc" stroke-width="0.5"/>
    </g>
    <g id="Grupo_128647" data-name="Grupo 128647" transform="translate(763.417 936.854)">
      <path id="Trazado_188700" data-name="Trazado 188700" d="M50.951,211.627a.722.722,0,0,1-.685-.494l-2.493-7.468H40.328a3.285,3.285,0,0,1-3.378-3.379v-15.93a3.28,3.28,0,0,1,3.378-3.375h2.655c2.644,0,5.01,3.949,5.746,5.307h7.528c.95,0,1.557.3,1.8.9.45,1.085-.755,2.455-1.292,2.992a.725.725,0,0,1-.511.212H45.637a.722.722,0,0,1-.511-.212l-2.652-2.655A.722.722,0,0,1,43.5,186.5l2.442,2.443H55.948a3.5,3.5,0,0,0,.764-1.19c-.047.013-.189-.022-.453-.022H48.292a.726.726,0,0,1-.647-.4c-.952-1.9-3.058-4.908-4.662-4.908H40.328a1.836,1.836,0,0,0-1.931,1.93v15.93a1.842,1.842,0,0,0,1.933,1.934h7.964a.722.722,0,0,1,.685.494l2.657,7.961a.722.722,0,0,1-.685.952Z" transform="translate(-36.95 -180.98)" fill="#6836bf" stroke="#683cbc" stroke-width="0.5"/>
    </g>
    <g id="Grupo_128648" data-name="Grupo 128648" transform="translate(766.074 926.23)">
      <path id="Trazado_188701" data-name="Trazado 188701" d="M58.2,124.219a4.7,4.7,0,1,1,4.705-4.705A4.71,4.71,0,0,1,58.2,124.219Zm0-7.963a3.26,3.26,0,1,0,3.261,3.259A3.262,3.262,0,0,0,58.2,116.256Z" transform="translate(-53.5 -114.81)" fill="#6836bf" stroke="#683cbc" stroke-width="0.5"/>
    </g>
    <g id="Grupo_128649" data-name="Grupo 128649" transform="translate(766.073 960.744)">
      <path id="Trazado_188702" data-name="Trazado 188702" d="M54.212,336.555a.721.721,0,0,1-.722-.722v-5.311a.722.722,0,1,1,1.445,0v5.311A.721.721,0,0,1,54.212,336.555Z" transform="translate(-53.49 -329.8)" fill="#6836bf" stroke="#683cbc" stroke-width="0.5"/>
    </g>
    <g id="Grupo_128651" data-name="Grupo 128651" transform="translate(815.175 939.505)">
      <path id="Trazado_188703" data-name="Trazado 188703" d="M365.383,220.184h-5.311a.722.722,0,1,1,0-1.445h5.311c4.534,0,4.585-4.4,4.585-4.587v-15.93a.722.722,0,1,1,1.445,0v15.93A5.813,5.813,0,0,1,365.383,220.184Z" transform="translate(-359.35 -197.5)" fill="#6836bf" stroke="#683cbc" stroke-width="0.5"/>
    </g>
    <g id="Grupo_128652" data-name="Grupo 128652" transform="translate(804.555 944.817)">
      <path id="Trazado_188704" data-name="Trazado 188704" d="M293.921,253.272a.748.748,0,0,1-.177-.021.723.723,0,0,1-.527-.875l2.634-10.551c.061-.721.8-3.11,7.963-3.261v-7.253a.722.722,0,1,1,1.445,0v7.967a.723.723,0,0,1-.722.722c-5.714,0-7.168,1.426-7.247,1.975l-2.671,10.75A.72.72,0,0,1,293.921,253.272Z" transform="translate(-293.196 -230.59)" fill="#6836bf" stroke="#683cbc" stroke-width="0.5"/>
    </g>
    <g id="Grupo_128653" data-name="Grupo 128653" transform="translate(803.374 936.854)">
      <path id="Trazado_188705" data-name="Trazado 188705" d="M293.057,211.627a.706.706,0,0,1-.228-.037.723.723,0,0,1-.456-.915l2.654-7.961a.723.723,0,0,1,.685-.494h7.966a1.84,1.84,0,0,0,1.93-1.938V184.354a1.841,1.841,0,0,0-1.93-1.93h-2.655c-1.8,0-4.028,3.635-4.665,4.908a.724.724,0,0,1-.647.4h-7.964a1.118,1.118,0,0,0-.522.075,6.65,6.65,0,0,0,.833,1.137h10.008l2.443-2.443a.722.722,0,1,1,1.021,1.021l-2.655,2.655a.725.725,0,0,1-.511.212h-10.62a.722.722,0,0,1-.511-.212c-.538-.538-1.743-1.907-1.292-2.992.247-.594.852-.9,1.8-.9h7.526c.735-1.358,3.1-5.307,5.749-5.307h2.655a3.28,3.28,0,0,1,3.374,3.374v15.93a3.283,3.283,0,0,1-3.374,3.379h-7.446l-2.488,7.468A.723.723,0,0,1,293.057,211.627Z" transform="translate(-285.843 -180.98)" fill="#6836bf" stroke="#683cbc" stroke-width="0.5"/>
    </g>
    <g id="Grupo_128654" data-name="Grupo 128654" transform="translate(812.52 926.23)">
      <path id="Trazado_188706" data-name="Trazado 188706" d="M347.517,124.219a4.7,4.7,0,1,1,4.7-4.705A4.711,4.711,0,0,1,347.517,124.219Zm0-7.963a3.26,3.26,0,1,0,3.259,3.259A3.264,3.264,0,0,0,347.517,116.256Z" transform="translate(-342.81 -114.81)" fill="#6836bf" stroke="#683cbc" stroke-width="0.5"/>
    </g>
    <g id="Grupo_128655" data-name="Grupo 128655" transform="translate(820.486 960.744)">
      <path id="Trazado_188707" data-name="Trazado 188707" d="M393.152,336.555a.721.721,0,0,1-.722-.722v-5.311a.722.722,0,1,1,1.445,0v5.311A.721.721,0,0,1,393.152,336.555Z" transform="translate(-392.43 -329.8)" fill="#6836bf" stroke="#683cbc" stroke-width="0.5"/>
    </g>
    <path id="Trazado_188708" data-name="Trazado 188708" d="M203.563,89.432A4.736,4.736,0,1,1,208.3,84.7,4.739,4.739,0,0,1,203.563,89.432Zm0-8.025a3.291,3.291,0,1,0,3.291,3.291A3.292,3.292,0,0,0,203.563,81.406Z" transform="translate(590.575 840.676)" fill="#6836bf" stroke="#683cbc" stroke-width="0.5"/>
    <g id="Grupo_128658" data-name="Grupo 128658" transform="translate(785.391 931.341)">
      <path id="Trazado_188709" data-name="Trazado 188709" d="M174.542,155.726a.721.721,0,0,1-.722-.722v-4.969a3.3,3.3,0,0,1,3.4-3.4h5.351a.722.722,0,0,1,0,1.445h-5.351a1.863,1.863,0,0,0-1.952,1.951V155A.723.723,0,0,1,174.542,155.726Z" transform="translate(-173.82 -146.64)" fill="#6836bf" stroke="#683cbc" stroke-width="0.5"/>
    </g>
    <g id="Grupo_128659" data-name="Grupo 128659" transform="translate(793.416 931.341)">
      <path id="Trazado_188710" data-name="Trazado 188710" d="M232.559,155.726a.722.722,0,0,1-.722-.722v-4.969a1.857,1.857,0,0,0-1.954-1.951h-5.351a.722.722,0,0,1,0-1.445h5.351a3.3,3.3,0,0,1,3.4,3.4V155A.721.721,0,0,1,232.559,155.726Z" transform="translate(-223.81 -146.64)" fill="#6836bf" stroke="#683cbc" stroke-width="0.5"/>
    </g>
    <g id="Grupo_128660" data-name="Grupo 128660" transform="translate(788.065 936.691)">
      <path id="Trazado_188711" data-name="Trazado 188711" d="M191.2,183.706a.721.721,0,0,1-.722-.722v-2.291a.722.722,0,0,1,1.445,0v2.291A.722.722,0,0,1,191.2,183.706Z" transform="translate(-190.48 -179.97)" fill="#6836bf" stroke="#683cbc" stroke-width="0.5"/>
    </g>
    <g id="Grupo_128661" data-name="Grupo 128661" transform="translate(798.767 936.691)">
      <path id="Trazado_188712" data-name="Trazado 188712" d="M257.862,183.706a.721.721,0,0,1-.722-.722v-2.291a.722.722,0,0,1,1.445,0v2.291A.722.722,0,0,1,257.862,183.706Z" transform="translate(-257.14 -179.97)" fill="#6836bf" stroke="#683cbc" stroke-width="0.5"/>
    </g>
    <path id="Trazado_188713" data-name="Trazado 188713" d="M141.1,246.285H102.182a.722.722,0,1,1,0-1.445H141.1a.722.722,0,1,1,0,1.445Z" transform="translate(672.314 702.266)" fill="#6836bf" stroke="#683cbc" stroke-width="0.5"/>
    <g id="Grupo_128664" data-name="Grupo 128664" transform="translate(790.743 947.563)">
      <path id="Trazado_188714" data-name="Trazado 188714" d="M207.882,267.627a.721.721,0,0,1-.722-.722V248.412a.722.722,0,0,1,1.445,0V266.9A.721.721,0,0,1,207.882,267.627Z" transform="translate(-207.16 -247.69)" fill="#6836bf" stroke="#683cbc" stroke-width="0.5"/>
    </g>
    <g id="Grupo_128665" data-name="Grupo 128665" transform="translate(795.724 947.563)">
      <path id="Trazado_188715" data-name="Trazado 188715" d="M238.912,267.627a.721.721,0,0,1-.722-.722V248.412a.722.722,0,0,1,1.445,0V266.9A.723.723,0,0,1,238.912,267.627Z" transform="translate(-238.19 -247.69)" fill="#6836bf" stroke="#683cbc" stroke-width="0.5"/>
    </g>
    <path id="Trazado_188716" data-name="Trazado 188716" d="M646.8,406.238a9.368,9.368,0,0,0-9.377-9.378" transform="translate(159.618 419.226)" fill="none" stroke="#6836bf" stroke-linecap="round" stroke-linejoin="round" stroke-miterlimit="10" stroke-width="2"/>
    <path id="Trazado_189049" data-name="Trazado 189049" d="M13.4,0A13.4,13.4,0,1,1,0,13.4,13.4,13.4,0,0,1,13.4,0Z" transform="translate(781.733 814.292) rotate(-8.865)" fill="none" stroke="#6836bf" stroke-linecap="round" stroke-width="2"/>
    <path id="Trazado_189050" data-name="Trazado 189050" d="M17.387,0A17.387,17.387,0,1,1,0,17.387,17.387,17.387,0,0,1,17.387,0Z" transform="translate(772.448 825.463) rotate(-45)" fill="none" stroke="#6836bf" stroke-linecap="round" stroke-width="2"/>
    <path id="Trazado_188717" data-name="Trazado 188717" d="M312.673,665.35l.224.224a3,3,0,0,0,4.233,0L327.1,655.6a3,3,0,0,0,0-4.233l-.224-.224a3,3,0,0,0-4.233,0l-9.974,9.974A3,3,0,0,0,312.673,665.35Z" transform="translate(454.573 189.68)" fill="none" stroke="#6836bf" stroke-linecap="round" stroke-linejoin="round" stroke-miterlimit="10" stroke-width="2"/>
    <path id="Trazado_189051" data-name="Trazado 189051" d="M2.846,0,0,2.846" transform="translate(781.788 837.868)" fill="none" stroke="#6836bf" stroke-linecap="round" stroke-width="2"/>
    <g transform="matrix(1, 0, 0, 1, 390, 572)" filter="url(#lista_de_check)">
      <path id="lista_de_check-2" data-name="lista de check" d="M1191.6,824.662h-6.246a3.645,3.645,0,0,0-3.432-2.43h-2.767a4.516,4.516,0,0,0-8.958,0h-2.767a3.645,3.645,0,0,0-3.432,2.43h-6.246a2.489,2.489,0,0,0-2.486,2.486v42.964a2.489,2.489,0,0,0,2.486,2.486H1191.6a2.489,2.489,0,0,0,2.486-2.486V827.148A2.489,2.489,0,0,0,1191.6,824.662Zm-26.607,0a2.723,2.723,0,0,1,2.436-1.511h3.64l.012-.447a3.6,3.6,0,0,1,7.189,0l.012.447h3.639a2.719,2.719,0,0,1,2.72,2.72v2.606a1.154,1.154,0,0,1-1.153,1.153h-17.627a1.154,1.154,0,0,1-1.153-1.153v-2.606a2.746,2.746,0,0,1,.016-.29A2.713,2.713,0,0,1,1164.989,824.662Zm.869,5.887h17.626a2.074,2.074,0,0,0,2.072-2.072v-.78h3.433a1.919,1.919,0,0,1,1.917,1.917v38.032a1.919,1.919,0,0,1-1.917,1.917h-28.635a1.919,1.919,0,0,1-1.917-1.917V829.614a1.919,1.919,0,0,1,1.917-1.917h3.432v.78A2.074,2.074,0,0,0,1165.857,830.549Zm27.3,39.563a1.569,1.569,0,0,1-1.567,1.567h-33.849a1.569,1.569,0,0,1-1.567-1.567V827.148a1.569,1.569,0,0,1,1.567-1.567h6.051q-.011.144-.011.29v.906h-3.432a2.839,2.839,0,0,0-2.836,2.836v38.032a2.839,2.839,0,0,0,2.836,2.836h28.635a2.839,2.839,0,0,0,2.836-2.836V829.614a2.839,2.839,0,0,0-2.836-2.836h-3.433v-.906q0-.146-.011-.29h6.051a1.569,1.569,0,0,1,1.567,1.567v42.964Zm-19.835-47.855a1.344,1.344,0,1,1,1.344,1.344A1.344,1.344,0,0,1,1173.327,822.257Zm-9.978,13.216,1.619,2.063,3.271-3.58a.46.46,0,1,1,.679.62l-4,4.382-2.288-2.917a.459.459,0,1,1,.723-.567Zm8.921.783a.46.46,0,0,1,.46-.46h13.623a.46.46,0,1,1,0,.919H1172.73A.46.46,0,0,1,1172.271,836.255Zm-3.382,6.464a.46.46,0,0,1,.029.649l-4,4.382-2.288-2.917a.46.46,0,1,1,.723-.567l1.619,2.063,3.271-3.58A.46.46,0,0,1,1168.889,842.72Zm3.382,2.33a.459.459,0,0,1,.46-.46h13.623a.46.46,0,1,1,0,.919H1172.73A.46.46,0,0,1,1172.271,845.05Zm-3.382,6.465a.46.46,0,0,1,.029.649l-4,4.382-2.288-2.917a.46.46,0,1,1,.723-.567l1.619,2.063,3.271-3.58A.459.459,0,0,1,1168.889,851.515Zm3.382,2.33a.459.459,0,0,1,.46-.46h13.623a.46.46,0,1,1,0,.919H1172.73A.46.46,0,0,1,1172.271,853.844Zm-3.382,6.465a.46.46,0,0,1,.029.649l-4,4.382-2.288-2.917a.46.46,0,1,1,.723-.567l1.619,2.063,3.271-3.58A.459.459,0,0,1,1168.889,860.309Zm3.382,2.33a.46.46,0,0,1,.46-.46h13.623a.46.46,0,1,1,0,.919H1172.73A.46.46,0,0,1,1172.271,862.639Z" transform="translate(-769.61 -705.25)" fill="#6836bf" stroke="#683cbc" stroke-width="0.5"/>
    </g>
    <path id="Trazado_188819" data-name="Trazado 188819" d="M54.4,115.209l-9.141-11.878a1.067,1.067,0,0,0-1.422-.246l-5.9,3.753h-7.7a.982.982,0,0,0-.3.053l-5.966,1.721-6.19-1.689-6.03-3.838a1.076,1.076,0,0,0-1.411.235L.229,115.84a1.073,1.073,0,0,0,.139,1.486l5.3,4.565,4.758,6.4a3.789,3.789,0,0,0,2.384,6.361,3.5,3.5,0,0,0-.043.577,3.8,3.8,0,0,0,3.785,3.785H16.6v.075a3.8,3.8,0,0,0,3.785,3.785,5.244,5.244,0,0,0,.588-.043,3.826,3.826,0,0,0,1.091,2.309,3.769,3.769,0,0,0,5.346,0l.577-.577.246.192a3.782,3.782,0,0,0,5.3-.053,3.8,3.8,0,0,0,1.112-2.737,3.78,3.78,0,0,0,3.849-3.838,3.718,3.718,0,0,0,2.737-1.112,3.8,3.8,0,0,0,1.112-2.737,3.792,3.792,0,0,0,3.24-5.848l3.475-7.27,5.217-4.49A1.087,1.087,0,0,0,54.4,115.209Zm-42.99-9.8,4.33,2.748L6.323,119.625l-3.774-3.25Zm.609,24.323,1.3-1.3a1.132,1.132,0,0,1,.128-.107,1.713,1.713,0,0,1,.887-.364h.032c.043,0,.1-.011.139-.011a1.642,1.642,0,0,1,1.1,2.844l-1.262,1.262a1.644,1.644,0,0,1-2.331-2.32Zm3.357,6.661a1.652,1.652,0,0,1,0-2.331l2.534-2.534a1.664,1.664,0,0,1,1.871-.321,1.644,1.644,0,0,1,.909,1.7,1.761,1.761,0,0,1-.492.994l-2.491,2.491a1.652,1.652,0,0,1-2.331,0Zm3.828,3.87a1.652,1.652,0,0,1,0-2.331l2.534-2.534a1.665,1.665,0,0,1,1.989-.257,1.63,1.63,0,0,1,.78,1.657,1.673,1.673,0,0,1-.492.962l-2.491,2.491a1.642,1.642,0,0,1-1.165.481A1.582,1.582,0,0,1,19.206,140.259Zm4.362,3.368a1.639,1.639,0,0,1,0-2.32l1.3-1.3A1.134,1.134,0,0,1,25,139.9h0a1.691,1.691,0,0,1,.727-.342h.021c.043-.011.1-.011.139-.021h.171a1.679,1.679,0,0,1,1.176.513,1.133,1.133,0,0,1,.107.128,1.7,1.7,0,0,1-.182,2.213L25.9,143.649A1.672,1.672,0,0,1,23.568,143.627ZM43.55,131.663a1.639,1.639,0,0,1-2.32,0,.464.464,0,0,0-.075-.064l-6.885-6.96a1.074,1.074,0,1,0-1.529,1.507l6.96,7.035h0a1.644,1.644,0,0,1-2.331,2.32l-4.661-4.7A1.074,1.074,0,0,0,31.18,132.3l4.587,4.629c.021.032.053.053.075.086a1.641,1.641,0,0,1-2.32,2.32l-2.545-2.566a1.074,1.074,0,1,0-1.529,1.507l2.47,2.5c.021.032.053.053.075.086a1.641,1.641,0,1,1-2.32,2.32,2.17,2.17,0,0,0-.246-.192c-.075-.053-.086-.086-.053-.171a2.7,2.7,0,0,1,.128-.246,2.467,2.467,0,0,0,.107-.3,3.912,3.912,0,0,0,.139-1.646,3.723,3.723,0,0,0-1.6-2.609,3.881,3.881,0,0,0-1.593-.62,3.764,3.764,0,0,0-3.614-4.629H22.82a3.758,3.758,0,0,0-3.71-3.86,4.227,4.227,0,0,0-.909.1,3.787,3.787,0,0,0-1.251-2.3,3.713,3.713,0,0,0-2.416-.919,3.785,3.785,0,0,0-2.587.973l-4.138-5.581,9.911-12.071,3.154.866-4.127,7.281a3.792,3.792,0,0,0,1.433,5.164.851.851,0,0,0,.171.086.01.01,0,0,1,.011.011,4.049,4.049,0,0,0,.449.192,3.8,3.8,0,0,0,4.533-1.721l2.684-4.726,4.79.342,12.744,12.744A1.636,1.636,0,0,1,43.55,131.663Zm.438-4.907L32.036,114.8a.465.465,0,0,0-.075-.064,1.062,1.062,0,0,0-.609-.246l-5.859-.417a1.072,1.072,0,0,0-1,.545l-3,5.314a1.6,1.6,0,0,1-.994.77,1.646,1.646,0,0,1-1.251-.15,1.6,1.6,0,0,1-.77-.994,1.646,1.646,0,0,1,.15-1.251l4.02-7.1,1.625-.47c.011,0,.021-.011.032-.011l6.083-1.753h7.356l9.173,11.664Zm4.33-7.794L39.83,108.174l4.33-2.758,7.933,10.3Z" transform="translate(766.38 941.212)" fill="#6836bf"/>
    <path id="Trazado_188820" data-name="Trazado 188820" d="M300.647,41.829a1.1,1.1,0,0,0,.759-.31l7.313-7.313a1.074,1.074,0,0,0-1.518-1.518L299.888,40a1.078,1.078,0,0,0,0,1.518A1.1,1.1,0,0,0,300.647,41.829Z" transform="translate(498.828 1004.211)" fill="#6836bf"/>
    <path id="Trazado_188821" data-name="Trazado 188821" d="M130.6,41.519a1.05,1.05,0,0,0,.759.31,1.1,1.1,0,0,0,.759-.31,1.078,1.078,0,0,0,0-1.518l-7.313-7.313a1.074,1.074,0,0,0-1.518,1.518Z" transform="translate(656.547 1004.211)" fill="#6836bf"/>
    <path id="Trazado_188822" data-name="Trazado 188822" d="M246.569,52.3a1.072,1.072,0,0,0,1.069-1.069V45.169a1.069,1.069,0,1,0-2.138,0v6.051A1.075,1.075,0,0,0,246.569,52.3Z" transform="translate(547.122 993.74)" fill="#6836bf"/>
    <path id="Trazado_188823" data-name="Trazado 188823" d="M245.625,5.527a1.066,1.066,0,1,0,1.636-1.251,1.094,1.094,0,0,0-1.251-.043A1.074,1.074,0,0,0,245.625,5.527Z" transform="translate(547.082 1029.501)" fill="#6836bf"/>
  </g>
</svg>
