<svg xmlns="http://www.w3.org/2000/svg" xmlns:xlink="http://www.w3.org/1999/xlink" width="108" height="108" viewBox="0 0 108 108">
  <defs>
    <filter id="Rect치ngulo_41179" x="0" y="0" width="108" height="108" filterUnits="userSpaceOnUse">
      <feOffset dy="3" input="SourceAlpha"/>
      <feGaussianBlur stdDeviation="3" result="blur"/>
      <feFlood flood-opacity="0.161"/>
      <feComposite operator="in" in2="blur"/>
      <feComposite in="SourceGraphic"/>
    </filter>
  </defs>
  <g id="Grupo_132006" data-name="Grupo 132006" transform="translate(11601.146 10902.587)">
    <g id="Grupo_132005" data-name="Grupo 132005">
      <g id="Grupo_132004" data-name="Grupo 132004">
        <g id="Grupo_132003" data-name="Grupo 132003" transform="translate(-7130.146 -13.587)">
          <g transform="matrix(1, 0, 0, 1, -4471, -10889)" filter="url(#Rect치ngulo_41179)">
            <path id="Rect치ngulo_41179-2" data-name="Rect치ngulo 41179" d="M10,0H80A10,10,0,0,1,90,10V90a0,0,0,0,1,0,0H10A10,10,0,0,1,0,80V10A10,10,0,0,1,10,0Z" transform="translate(9 6)" fill="#f6f6f6"/>
          </g>
        </g>
      </g>
    </g>
    <g id="organizacion" transform="translate(-11583.146 -10887.236)">
      <path id="Trazado_188678" data-name="Trazado 188678" d="M64.449,53.071,62.9,52.634l-.376-1.489a6.673,6.673,0,0,0,2.826-5.438V41.539a5.055,5.055,0,0,0,.785-.631,4.9,4.9,0,0,0,1.473-3.513v-.137a3.825,3.825,0,0,0-2.5-3.6,5.706,5.706,0,0,0-.835-1.409l.576-.236-3.457-8.261-4.317,1.772a.372.372,0,0,1-.448-.178.356.356,0,0,1,.02-.457l3.3-3.273-6.387-6.322-3.306,3.272a.375.375,0,0,1-.484,0,.354.354,0,0,1-.156-.428l1.788-4.275-5.319-2.181c.028-.3.073-.6.073-.9V9.749a8.641,8.641,0,0,0-2.589-6.186A8.826,8.826,0,0,0,37.322,1H34.677a8.826,8.826,0,0,0-6.25,2.563,8.646,8.646,0,0,0-2.588,6.186v1.033c0,.3.045.6.073.9l-5.318,2.181,1.788,4.275a.407.407,0,0,1-.641.422l-3.3-3.272L12.05,21.613l3.306,3.273a.406.406,0,0,1-.429.636L10.608,23.75,7.151,32.011l2.388.979a11.194,11.194,0,0,0-7.41,10.483v6.1a4.454,4.454,0,0,0,3.482,4.334A8.952,8.952,0,0,0,1,61.669V70.3H25.839V66.29l3.1,1.271,1.788-4.275a.373.373,0,0,1,.444-.188.359.359,0,0,1,.313.336v4.627h9.032V63.435a.372.372,0,0,1,.34-.343.361.361,0,0,1,.417.193l1.788,4.275,3.1-1.27V70.3H71V61.669a8.994,8.994,0,0,0-6.551-8.6Zm-3.708.216-2.161,2.853-2.162-2.853.288-1.14a6.7,6.7,0,0,0,3.747,0ZM63.1,45.708a4.516,4.516,0,0,1-9.032,0v-2.84a2.247,2.247,0,0,1,1.815-2.192l1-.2a7.835,7.835,0,0,0,3.693,1.664l.878.145a5.3,5.3,0,0,0,.838.068H62.6a4.861,4.861,0,0,0,.5-.048ZM17.331,56.885H9.507L8.352,55.17l2.617-.741.576-2.281a6.718,6.718,0,0,0,3.747,0l.576,2.281,2.617.741ZM15.826,59.12l-2.407,3.573L11.012,59.12ZM13.419,40.557a33.57,33.57,0,0,0,4.289,3.365l.227.149v1.637a4.516,4.516,0,0,1-9.032,0V44.071l.227-.15a33.462,33.462,0,0,0,4.289-3.364Zm4.229,11.7-.281-1.113a6.677,6.677,0,0,0,2.826-5.439V42.875l-1.233-.814a31.061,31.061,0,0,1-4.412-3.539V34.608a8.982,8.982,0,0,1,7.9,8.864v6.1a2.236,2.236,0,0,1-1.887,2.205Zm1.125-18.624A18.132,18.132,0,0,1,31.537,21.68q.247.216.515.407l-.384,1.519-1.15.38A8.547,8.547,0,0,0,27.2,26.016a8.312,8.312,0,0,0-2.488,5.946V39H47.29V31.963A8.312,8.312,0,0,0,44.8,26.016a8.559,8.559,0,0,0-3.32-2.032l-1.149-.379-.384-1.519q.268-.191.515-.407A18.056,18.056,0,0,1,53.342,34.012a6.675,6.675,0,0,0-1.8,10.777l.266.264v.655a6.653,6.653,0,0,0,.2,1.576A18.129,18.129,0,0,1,23.837,52.2a4.418,4.418,0,0,0,.873-2.621v-6.1a11.17,11.17,0,0,0-5.936-9.837ZM32.11,25.816l2.76,4.554v6.4h-7.9v-4.8A6.1,6.1,0,0,1,28.795,27.6a6.279,6.279,0,0,1,2.438-1.491Zm5.019,4.554,2.76-4.555.878.289A6.286,6.286,0,0,1,43.205,27.6a6.107,6.107,0,0,1,1.827,4.366v4.8h-7.9Zm1.049-6.076L36,27.887l-2.178-3.595.3-1.206a6.7,6.7,0,0,0,3.746,0Zm2.338-7.646a4.516,4.516,0,0,1-9.032,0V13.607a3.369,3.369,0,0,1,2.5-3.236,3.427,3.427,0,0,0,2.637,2.109l2.012.332a2.236,2.236,0,0,1,1.888,2.205ZM52.054,41.436a4.375,4.375,0,0,1,2.171-5.364,7.625,7.625,0,0,0,.98,2.479A4.5,4.5,0,0,0,52.054,41.436Zm13.3-4.18v.137a2.7,2.7,0,0,1-.81,1.931,2.749,2.749,0,0,1-1.943.8h-.3a2.893,2.893,0,0,1-.47-.038l-.88-.145A5.481,5.481,0,0,1,56.326,34.7a3.588,3.588,0,0,1,6.155-1.1,3.885,3.885,0,0,0-2.294,1.958l-.358.709,2.02,1,.358-.709a1.684,1.684,0,0,1,1.551-.91h0a1.586,1.586,0,0,1,1.126.463,1.6,1.6,0,0,1,.47,1.145ZM48.539,20.44a2.642,2.642,0,0,0,3.316-.3l1.708-1.691,3.194,3.161-1.708,1.692a2.586,2.586,0,0,0-.286,3.3,2.639,2.639,0,0,0,3.175.979l2.232-.915,1.576,3.767a5.8,5.8,0,0,0-6.607,1.825A20.347,20.347,0,0,0,41.986,19.777a6.626,6.626,0,0,0,.546-1.383,9.9,9.9,0,0,0,3.1-4.479l2.824,1.157-.925,2.211a2.593,2.593,0,0,0,1.008,3.156ZM28.1,9.749a6.436,6.436,0,0,1,1.927-4.606,6.572,6.572,0,0,1,4.654-1.908h2.645a6.572,6.572,0,0,1,4.654,1.908A6.441,6.441,0,0,1,43.9,9.749v1.033A7.518,7.518,0,0,1,43.5,13.2a7.627,7.627,0,0,1-.746,1.551A4.463,4.463,0,0,0,39,10.608l-2.012-.332a1.168,1.168,0,0,1-.335-2.2l.98-.485-1.009-2-.981.485A3.4,3.4,0,0,0,33.9,8.1l-.134.026a5.62,5.62,0,0,0-4.538,5.481v1.1A7.325,7.325,0,0,1,28.1,10.782ZM12.334,31.717,10.1,30.8l1.729-4.13,2.233.915a2.652,2.652,0,0,0,3.187-1,2.581,2.581,0,0,0-.3-3.283l-1.708-1.692,3.194-3.161,1.708,1.691a2.656,2.656,0,0,0,3.336.284,2.585,2.585,0,0,0,.988-3.144l-.925-2.211,2.824-1.157a9.757,9.757,0,0,0,2.515,3.9l.574.541a6.617,6.617,0,0,0,.557,1.423,20.416,20.416,0,0,0-13.337,13,11.369,11.369,0,0,0-3.258-.478c-.076,0-.149.01-.225.011A2.583,2.583,0,0,0,12.334,31.717ZM4.387,49.574v-6.1a8.982,8.982,0,0,1,7.9-8.864v3.914a31.219,31.219,0,0,1-4.412,3.539l-1.233.814v2.833a6.677,6.677,0,0,0,2.826,5.439L9.19,52.26l-2.915-.481a2.236,2.236,0,0,1-1.888-2.205ZM23.581,68.062H3.258V61.669a6.711,6.711,0,0,1,3.011-5.563l7.15,10.618,7.15-10.618a6.712,6.712,0,0,1,3.011,5.563Zm20.7-3.422-.925-2.211A2.652,2.652,0,0,0,40.391,60.9a2.612,2.612,0,0,0-2.133,2.532v2.392H33.742V63.435a2.667,2.667,0,0,0-5.1-1.006l-.925,2.211-1.879-.769v-2.2a8.953,8.953,0,0,0-4.61-7.76,4.558,4.558,0,0,0,.846-.287,20.4,20.4,0,0,0,31.1-3.883,6.756,6.756,0,0,0,1.454,1.408l-.376,1.489-1.543.437a8.991,8.991,0,0,0-6.552,8.6v2.2Zm4.137-2.971a6.745,6.745,0,0,1,4.914-6.448l1.424-.4,2.7,3.558v9.687H48.419Zm20.323,6.393H59.71V58.375L62.4,54.818l1.425.4a6.742,6.742,0,0,1,4.914,6.447Z" fill="#6836bf"/>
      <path id="Trazado_188679" data-name="Trazado 188679" d="M55,57h3.157v3.157H55Z" transform="translate(3.372 3.826)" fill="#6836bf"/>
      <path id="Trazado_188680" data-name="Trazado 188680" d="M55,53h3.157v3.157H55Z" transform="translate(3.372 1.512)" fill="#6836bf"/>
      <path id="Trazado_188681" data-name="Trazado 188681" d="M33,45h3.157v3.157H33Z" transform="translate(3.65 4.503)" fill="#6836bf"/>
      <path id="Trazado_188682" data-name="Trazado 188682" d="M37,45h3.157v3.157H37Z" transform="translate(4.106 4.503)" fill="#6836bf"/>
      <path id="Trazado_188683" data-name="Trazado 188683" d="M29,45h3.157v3.157H29Z" transform="translate(3.193 4.503)" fill="#6836bf"/>
      <path id="Trazado_188684" data-name="Trazado 188684" d="M25,45h3.157v3.157H25Z" transform="translate(2.737 4.503)" fill="#6836bf"/>
    </g>
  </g>
</svg>
