<svg xmlns="http://www.w3.org/2000/svg" xmlns:xlink="http://www.w3.org/1999/xlink" width="108" height="108" viewBox="0 0 108 108">
  <defs>
    <filter id="Rect치ngulo_41179" x="0" y="0" width="108" height="108" filterUnits="userSpaceOnUse">
      <feOffset dy="3" input="SourceAlpha"/>
      <feGaussianBlur stdDeviation="3" result="blur"/>
      <feFlood flood-opacity="0.161"/>
      <feComposite operator="in" in2="blur"/>
      <feComposite in="SourceGraphic"/>
    </filter>
  </defs>
  <g id="Grupo_132018" data-name="Grupo 132018" transform="translate(5241 11240.988)">
    <g id="Grupo_131900" data-name="Grupo 131900" transform="translate(-770 -351.988)">
      <g transform="matrix(1, 0, 0, 1, -4471, -10889)" filter="url(#Rect치ngulo_41179)">
        <path id="Rect치ngulo_41179-2" data-name="Rect치ngulo 41179" d="M10,0H80A10,10,0,0,1,90,10V90a0,0,0,0,1,0,0H10A10,10,0,0,1,0,80V10A10,10,0,0,1,10,0Z" transform="translate(9 6)" fill="#f6f6f6"/>
      </g>
    </g>
    <g id="headhunting" transform="translate(-5223.678 -11224.492)">
      <g id="Grupo_128644" data-name="Grupo 128644" transform="translate(2.512 0)">
        <path id="Trazado_188691" data-name="Trazado 188691" d="M334.944,194.709h-17.43a1.011,1.011,0,1,0,0,2.021h17.43a1.011,1.011,0,1,0,0-2.021Z" transform="translate(-274.182 -168.466)" fill="#6836bf"/>
        <path id="Trazado_188692" data-name="Trazado 188692" d="M334.944,239.922h-17.43a1.011,1.011,0,1,0,0,2.021h17.43a1.011,1.011,0,1,0,0-2.021Z" transform="translate(-274.182 -207.585)" fill="#6836bf"/>
        <path id="Trazado_188693" data-name="Trazado 188693" d="M335.955,286.146a1.011,1.011,0,0,0-1.011-1.011h-17.43a1.011,1.011,0,1,0,0,2.021h17.43A1.011,1.011,0,0,0,335.955,286.146Z" transform="translate(-274.182 -246.704)" fill="#6836bf"/>
        <path id="Trazado_188694" data-name="Trazado 188694" d="M317.514,330.348a1.011,1.011,0,1,0,0,2.021h8.715a1.011,1.011,0,1,0,0-2.021Z" transform="translate(-274.182 -285.823)" fill="#6836bf"/>
        <path id="Trazado_188695" data-name="Trazado 188695" d="M69.379,11.887,58.957,1.465A5,5,0,0,0,55.42,0H21.126a5.007,5.007,0,0,0-5,5V15.35a1.011,1.011,0,0,0,2.021,0V5a2.983,2.983,0,0,1,2.98-2.98H55.42a2.975,2.975,0,0,1,.642.07V11.3a3.489,3.489,0,0,0,3.485,3.485h9.2a2.98,2.98,0,0,1,.07.642V64.008a2.983,2.983,0,0,1-2.98,2.98H52.263a4.557,4.557,0,0,0-.565-5.745l-9.19-9.19a2.36,2.36,0,0,0-2.479-.544l-1.979-1.979a19.614,19.614,0,1,0-4.5,4.5l1.979,1.979a2.36,2.36,0,0,0,.544,2.479l8.5,8.5H21.126a2.983,2.983,0,0,1-2.98-2.98V60.768a1.011,1.011,0,1,0-2.021,0v3.239a5.007,5.007,0,0,0,5,5H65.842a5.007,5.007,0,0,0,5-5V15.423a5.01,5.01,0,0,0-1.465-3.536ZM9.677,50.531a17.59,17.59,0,1,1,26.244-1.536,17.849,17.849,0,0,1-2.9,2.9A17.6,17.6,0,0,1,9.677,50.531Zm25.465,2.222a19.891,19.891,0,0,0,1.636-1.636l1.665,1.665-1.64,1.64-1.664-1.665,0,0ZM46.693,66.247l-9.19-9.19a.338.338,0,0,1,0-.478l.013-.013h0L40.6,53.482a.338.338,0,0,1,.478,0l9.19,9.19a2.528,2.528,0,1,1-3.575,3.575ZM58.084,11.3V3.451l9.308,9.308H59.547A1.465,1.465,0,0,1,58.084,11.3Z" transform="translate(-2.512 0)" fill="#6836bf"/>
        <path id="Trazado_188696" data-name="Trazado 188696" d="M172.683,48.663H152.629a2.177,2.177,0,0,0-2.174,2.174v3.874a2.177,2.177,0,0,0,2.174,2.174h20.054a2.177,2.177,0,0,0,2.174-2.174V50.837A2.177,2.177,0,0,0,172.683,48.663Zm.152,6.048a.153.153,0,0,1-.152.152H152.629a.153.153,0,0,1-.152-.152V50.837a.153.153,0,0,1,.152-.152h20.054a.153.153,0,0,1,.152.152v3.874Z" transform="translate(-130.515 -42.104)" fill="#6836bf"/>
        <path id="Trazado_188697" data-name="Trazado 188697" d="M60.029,193.672a15.58,15.58,0,1,0-26.418-13.385,1.011,1.011,0,0,0,2,.306,13.559,13.559,0,1,1,23.605,10.991,4.372,4.372,0,0,0-2.187-2.074,19.69,19.69,0,0,0-4.532-1.03l-.005-1.276a5.93,5.93,0,0,0,2.348-3.844,1.795,1.795,0,0,0,1.1-1.665c-.009-1.34-.008-3.56-.008-4.853a2.482,2.482,0,0,0-2.058-2.442,2.482,2.482,0,0,0-2.431-2h-4.88A4.567,4.567,0,0,0,42,176.963v4.75a1.786,1.786,0,0,0,1.09,1.643,5.945,5.945,0,0,0,2.241,3.762l.006,1.393a19.693,19.693,0,0,0-4.523,1.068,4.263,4.263,0,0,0-2.053,1.956,13.451,13.451,0,0,1-3.11-6.542,1.011,1.011,0,0,0-1.992.347,15.582,15.582,0,0,0,26.366,8.334Zm-13.463-19.25h4.88a.457.457,0,0,1,.456.456,1.508,1.508,0,0,0,1.506,1.506h.049a.457.457,0,0,1,.456.456v.542l-1.222-.115a5.636,5.636,0,0,0-3.446.8,3.576,3.576,0,0,1-1.868.526H44.026v-1.632a2.543,2.543,0,0,1,2.54-2.541Zm-2.54,7.074v-.881h3.352a5.6,5.6,0,0,0,2.924-.824,3.6,3.6,0,0,1,2.2-.511l1.411.132c0,.623,0,1.444.006,2.08a1.255,1.255,0,0,0-1.035,1.161,3.926,3.926,0,0,1-7.837,0A1.264,1.264,0,0,0,44.026,181.5Zm4.944,6.864a5.942,5.942,0,0,0,1.5-.194l0,.564a1.731,1.731,0,0,0,.167.735,3.088,3.088,0,0,1-1.722.528h-.009a3.088,3.088,0,0,1-1.71-.514,1.731,1.731,0,0,0,.162-.736l0-.6A5.925,5.925,0,0,0,48.97,188.361Zm-8.622,4.723a2.289,2.289,0,0,1,1.3-1.663,16.122,16.122,0,0,1,3.68-.867,5.1,5.1,0,0,0,3.583,1.461h.015a5.1,5.1,0,0,0,3.6-1.492,16.115,16.115,0,0,1,3.688.836,2.306,2.306,0,0,1,1.4,1.779A13.582,13.582,0,0,1,40.348,193.085Z" transform="translate(-29.41 -144.562)" fill="#6836bf"/>
      </g>
    </g>
  </g>
</svg>
