<svg xmlns="http://www.w3.org/2000/svg" xmlns:xlink="http://www.w3.org/1999/xlink" width="422" height="594.137" viewBox="0 0 422 594.137">
  <defs>
    <clipPath id="clip-path">
      <rect id="Rectángulo_40840" data-name="Rectángulo 40840" width="105.164" height="250.084" fill="none"/>
    </clipPath>
    <clipPath id="clip-path-2">
      <rect id="Rectángulo_40841" data-name="Rectángulo 40841" width="105.164" height="250.084" transform="translate(105.164 250.084) rotate(180)" fill="#6836bf"/>
    </clipPath>
    <clipPath id="clip-path-4">
      <rect id="Rectángulo_40843" data-name="Rectángulo 40843" width="105.164" height="250.084" transform="translate(105.164 250.084) rotate(180)" fill="none"/>
    </clipPath>
    <filter id="lista_de_check" x="170.654" y="94.038" width="56.822" height="72.308" filterUnits="userSpaceOnUse">
      <feOffset dy="3" input="SourceAlpha"/>
      <feGaussianBlur stdDeviation="3" result="blur"/>
      <feFlood flood-opacity="0.161"/>
      <feComposite operator="in" in2="blur"/>
      <feComposite in="SourceGraphic"/>
    </filter>
  </defs>
  <g id="Grupo_132006" data-name="Grupo 132006" transform="translate(2731 12521.308)">
    <text id="Perfil_del_cargo" data-name="Perfil del cargo" transform="translate(-2602 -12513.308)" fill="#12263f" font-size="20" font-family="Roboto-Black, Roboto" font-weight="800"><tspan x="0" y="21">Perfil del </tspan><tspan x="0" y="51">cargo</tspan></text>
    <g id="Grupo_132003" data-name="Grupo 132003" transform="translate(-2884.156 -12529.308)">
      <g id="Grupo_128542" data-name="Grupo 128542" transform="translate(303.665 8)">
        <g id="Grupo_128541" data-name="Grupo 128541" transform="translate(46.755)">
          <g id="Grupo_128540" data-name="Grupo 128540" clip-path="url(#clip-path)">
            <circle id="Elipse_5103" data-name="Elipse 5103" cx="68.44" cy="68.44" r="68.44" transform="translate(-68.982 61.746)" fill="#f7ca18"/>
          </g>
        </g>
        <circle id="Elipse_5104" data-name="Elipse 5104" cx="46.213" cy="46.213" r="46.213" transform="translate(0 83.973)" fill="#fff"/>
      </g>
      <g id="Grupo_128545" data-name="Grupo 128545" transform="translate(245.98 122.702)">
        <g id="Grupo_128544" data-name="Grupo 128544">
          <g id="Grupo_128543" data-name="Grupo 128543" clip-path="url(#clip-path-2)">
            <path id="Trazado_188651" data-name="Trazado 188651" d="M68.44,0A68.44,68.44,0,1,1,0,68.44,68.44,68.44,0,0,1,68.44,0Z" transform="translate(37.265 61.746)" fill="#6836bf"/>
          </g>
        </g>
        <circle id="Elipse_5106" data-name="Elipse 5106" cx="46.213" cy="46.213" r="46.213" transform="translate(59.492 83.973)" fill="#fff"/>
      </g>
      <g id="Grupo_128548" data-name="Grupo 128548" transform="translate(304.413 237.351)">
        <g id="Grupo_128547" data-name="Grupo 128547" transform="translate(46.755)">
          <g id="Grupo_128546" data-name="Grupo 128546" clip-path="url(#clip-path)">
            <path id="Trazado_188652" data-name="Trazado 188652" d="M68.44,0A68.44,68.44,0,1,1,0,68.44,68.44,68.44,0,0,1,68.44,0Z" transform="translate(-68.982 61.746)" fill="#7fc733"/>
          </g>
        </g>
        <path id="Trazado_188654" data-name="Trazado 188654" d="M46.213,0A46.213,46.213,0,1,1,0,46.213,46.213,46.213,0,0,1,46.213,0Z" transform="translate(0 83.973)" fill="#fff"/>
      </g>
      <g id="Grupo_128551" data-name="Grupo 128551" transform="translate(246.728 352.053)">
        <g id="Grupo_128550" data-name="Grupo 128550">
          <g id="Grupo_128549" data-name="Grupo 128549" clip-path="url(#clip-path-4)">
            <path id="Trazado_188653" data-name="Trazado 188653" d="M68.44,0A68.44,68.44,0,1,1,0,68.44,68.44,68.44,0,0,1,68.44,0Z" transform="translate(37.265 61.746)" fill="#b13e8d"/>
          </g>
        </g>
        <path id="Trazado_188655" data-name="Trazado 188655" d="M46.213,0A46.213,46.213,0,1,1,0,46.213,46.213,46.213,0,0,1,46.213,0Z" transform="translate(59.492 83.973)" fill="#fff"/>
      </g>
    </g>
    <text id="Puestos_de_trabajo" data-name="Puestos de trabajo" transform="translate(-2727 -12385.308)" fill="#12263f" font-size="16" font-family="Roboto-Bold, Roboto" font-weight="700"><tspan x="0" y="0">Puestos de trabajo</tspan></text>
    <text id="Funciones" transform="translate(-2727 -12155.808)" fill="#12263f" font-size="16" font-family="Roboto-Bold, Roboto" font-weight="700"><tspan x="0" y="0">Funciones</tspan></text>
    <text id="Objetivos" transform="translate(-2412 -12387.308)" fill="#12263f" font-size="16" font-family="Roboto-Bold, Roboto" font-weight="700"><tspan x="0" y="0">Objetivos</tspan></text>
    <text id="Formación_académica_y_profesional" data-name="Formación
académica y 
profesional" transform="translate(-2727 -12307.308)" fill="#12263f" font-size="16" font-family="Roboto-Bold, Roboto" font-weight="700"><tspan x="0" y="0">Formación</tspan><tspan x="0" y="30">académica y </tspan><tspan x="0" y="60">profesional</tspan></text>
    <text id="Relaciones_con_otras_áreas" data-name="Relaciones con
otras áreas" transform="translate(-2731 -12057.808)" fill="#12263f" font-size="16" font-family="Roboto-Bold, Roboto" font-weight="700"><tspan x="0" y="0">Relaciones con</tspan><tspan x="0" y="30">otras áreas</tspan></text>
    <text id="Experiencia_profesional" data-name="Experiencia
profesional" transform="translate(-2412 -12287.308)" fill="#12263f" font-size="16" font-family="Roboto-Bold, Roboto" font-weight="700"><tspan x="0" y="0">Experiencia</tspan><tspan x="0" y="30">profesional</tspan></text>
    <text id="Posición_jerárquica" data-name="Posición
jerárquica" transform="translate(-2411 -12172.808)" fill="#12263f" font-size="16" font-family="Roboto-Bold, Roboto" font-weight="700"><tspan x="0" y="0">Posición</tspan><tspan x="0" y="30">jerárquica</tspan></text>
    <text id="Rango_salarial" data-name="Rango salarial" transform="translate(-2412 -12042.808)" fill="#12263f" font-size="16" font-family="Roboto-Bold, Roboto" font-weight="700"><tspan x="0" y="0">Rango salarial</tspan></text>
    <g id="Grupo_132004" data-name="Grupo 132004" transform="translate(2922.762 -1076.672)">
      <g id="gente_sentada" data-name="gente sentada" transform="translate(-5489 -11109)">
        <g id="Grupo_128650" data-name="Grupo 128650" transform="translate(0 5.595)">
          <g id="Grupo_128645" data-name="Grupo 128645" transform="translate(0 13.275)">
            <path id="Trazado_188698" data-name="Trazado 188698" d="M31.752,220.184H26.443a5.816,5.816,0,0,1-6.033-6.031v-15.93a.722.722,0,1,1,1.445,0v15.93c0,.185.079,4.587,4.588,4.587H31.75a.722.722,0,0,1,0,1.445Z" transform="translate(-20.41 -197.5)" fill="#5c9a1a"/>
          </g>
          <g id="Grupo_128646" data-name="Grupo 128646" transform="translate(10.621 18.586)">
            <path id="Trazado_188699" data-name="Trazado 188699" d="M97.912,253.264a.722.722,0,0,1-.7-.547L94.56,242.1a.706.706,0,0,1-.021-.175c-.075-.5-1.532-1.93-7.247-1.93a.722.722,0,0,1-.722-.722V231.3a.722.722,0,0,1,1.445,0v7.253c7.162.151,7.9,2.538,7.964,3.261l2.636,10.551a.722.722,0,0,1-.527.875A.76.76,0,0,1,97.912,253.264Z" transform="translate(-86.57 -230.58)" fill="#5c9a1a"/>
          </g>
          <g id="Grupo_128647" data-name="Grupo 128647" transform="translate(2.655 10.623)">
            <path id="Trazado_188700" data-name="Trazado 188700" d="M50.951,211.627a.722.722,0,0,1-.685-.494l-2.493-7.468H40.328a3.285,3.285,0,0,1-3.378-3.379v-15.93a3.28,3.28,0,0,1,3.378-3.375h2.655c2.644,0,5.01,3.949,5.746,5.307h7.528c.95,0,1.557.3,1.8.9.45,1.085-.755,2.455-1.292,2.992a.725.725,0,0,1-.511.212H45.637a.722.722,0,0,1-.511-.212l-2.652-2.655A.722.722,0,0,1,43.5,186.5l2.442,2.443H55.948a3.5,3.5,0,0,0,.764-1.19c-.047.013-.189-.022-.453-.022H48.292a.726.726,0,0,1-.647-.4c-.952-1.9-3.058-4.908-4.662-4.908H40.328a1.836,1.836,0,0,0-1.931,1.93v15.93a1.842,1.842,0,0,0,1.933,1.934h7.964a.722.722,0,0,1,.685.494l2.657,7.961a.722.722,0,0,1-.685.952Z" transform="translate(-36.95 -180.98)" fill="#5c9a1a"/>
          </g>
          <g id="Grupo_128648" data-name="Grupo 128648" transform="translate(5.312)">
            <path id="Trazado_188701" data-name="Trazado 188701" d="M58.2,124.219a4.7,4.7,0,1,1,4.705-4.705A4.71,4.71,0,0,1,58.2,124.219Zm0-7.963a3.26,3.26,0,1,0,3.261,3.259A3.262,3.262,0,0,0,58.2,116.256Z" transform="translate(-53.5 -114.81)" fill="#5c9a1a"/>
          </g>
          <g id="Grupo_128649" data-name="Grupo 128649" transform="translate(5.311 34.514)">
            <path id="Trazado_188702" data-name="Trazado 188702" d="M54.212,336.555a.721.721,0,0,1-.722-.722v-5.311a.722.722,0,1,1,1.445,0v5.311A.721.721,0,0,1,54.212,336.555Z" transform="translate(-53.49 -329.8)" fill="#5c9a1a"/>
          </g>
        </g>
        <g id="Grupo_128656" data-name="Grupo 128656" transform="translate(42.612 5.595)">
          <g id="Grupo_128651" data-name="Grupo 128651" transform="translate(11.801 13.275)">
            <path id="Trazado_188703" data-name="Trazado 188703" d="M365.383,220.184h-5.311a.722.722,0,1,1,0-1.445h5.311c4.534,0,4.585-4.4,4.585-4.587v-15.93a.722.722,0,1,1,1.445,0v15.93A5.813,5.813,0,0,1,365.383,220.184Z" transform="translate(-359.35 -197.5)" fill="#5c9a1a"/>
          </g>
          <g id="Grupo_128652" data-name="Grupo 128652" transform="translate(1.18 18.587)">
            <path id="Trazado_188704" data-name="Trazado 188704" d="M293.921,253.272a.748.748,0,0,1-.177-.021.723.723,0,0,1-.527-.875l2.634-10.551c.061-.721.8-3.11,7.963-3.261v-7.253a.722.722,0,1,1,1.445,0v7.967a.723.723,0,0,1-.722.722c-5.714,0-7.168,1.426-7.247,1.975l-2.671,10.75A.72.72,0,0,1,293.921,253.272Z" transform="translate(-293.196 -230.59)" fill="#5c9a1a"/>
          </g>
          <g id="Grupo_128653" data-name="Grupo 128653" transform="translate(0 10.623)">
            <path id="Trazado_188705" data-name="Trazado 188705" d="M293.057,211.627a.706.706,0,0,1-.228-.037.723.723,0,0,1-.456-.915l2.654-7.961a.723.723,0,0,1,.685-.494h7.966a1.84,1.84,0,0,0,1.93-1.938V184.354a1.841,1.841,0,0,0-1.93-1.93h-2.655c-1.8,0-4.028,3.635-4.665,4.908a.724.724,0,0,1-.647.4h-7.964a1.118,1.118,0,0,0-.522.075,6.65,6.65,0,0,0,.833,1.137h10.008l2.443-2.443a.722.722,0,1,1,1.021,1.021l-2.655,2.655a.725.725,0,0,1-.511.212h-10.62a.722.722,0,0,1-.511-.212c-.538-.538-1.743-1.907-1.292-2.992.247-.594.852-.9,1.8-.9h7.526c.735-1.358,3.1-5.307,5.749-5.307h2.655a3.28,3.28,0,0,1,3.374,3.374v15.93a3.283,3.283,0,0,1-3.374,3.379h-7.446l-2.488,7.468A.723.723,0,0,1,293.057,211.627Z" transform="translate(-285.843 -180.98)" fill="#5c9a1a"/>
          </g>
          <g id="Grupo_128654" data-name="Grupo 128654" transform="translate(9.145)">
            <path id="Trazado_188706" data-name="Trazado 188706" d="M347.517,124.219a4.7,4.7,0,1,1,4.7-4.705A4.711,4.711,0,0,1,347.517,124.219Zm0-7.963a3.26,3.26,0,1,0,3.259,3.259A3.264,3.264,0,0,0,347.517,116.256Z" transform="translate(-342.81 -114.81)" fill="#5c9a1a"/>
          </g>
          <g id="Grupo_128655" data-name="Grupo 128655" transform="translate(17.111 34.514)">
            <path id="Trazado_188707" data-name="Trazado 188707" d="M393.152,336.555a.721.721,0,0,1-.722-.722v-5.311a.722.722,0,1,1,1.445,0v5.311A.721.721,0,0,1,393.152,336.555Z" transform="translate(-392.43 -329.8)" fill="#5c9a1a"/>
          </g>
        </g>
        <g id="Grupo_128657" data-name="Grupo 128657" transform="translate(28.643 0)">
          <path id="Trazado_188708" data-name="Trazado 188708" d="M203.563,89.432A4.736,4.736,0,1,1,208.3,84.7,4.739,4.739,0,0,1,203.563,89.432Zm0-8.025a3.291,3.291,0,1,0,3.291,3.291A3.292,3.292,0,0,0,203.563,81.406Z" transform="translate(-198.83 -79.96)" fill="#5c9a1a"/>
        </g>
        <g id="Grupo_128662" data-name="Grupo 128662" transform="translate(24.628 10.705)">
          <g id="Grupo_128658" data-name="Grupo 128658">
            <path id="Trazado_188709" data-name="Trazado 188709" d="M174.542,155.726a.721.721,0,0,1-.722-.722v-4.969a3.3,3.3,0,0,1,3.4-3.4h5.351a.722.722,0,0,1,0,1.445h-5.351a1.863,1.863,0,0,0-1.952,1.951V155A.723.723,0,0,1,174.542,155.726Z" transform="translate(-173.82 -146.64)" fill="#5c9a1a"/>
          </g>
          <g id="Grupo_128659" data-name="Grupo 128659" transform="translate(8.025)">
            <path id="Trazado_188710" data-name="Trazado 188710" d="M232.559,155.726a.722.722,0,0,1-.722-.722v-4.969a1.857,1.857,0,0,0-1.954-1.951h-5.351a.722.722,0,0,1,0-1.445h5.351a3.3,3.3,0,0,1,3.4,3.4V155A.721.721,0,0,1,232.559,155.726Z" transform="translate(-223.81 -146.64)" fill="#5c9a1a"/>
          </g>
          <g id="Grupo_128660" data-name="Grupo 128660" transform="translate(2.675 5.351)">
            <path id="Trazado_188711" data-name="Trazado 188711" d="M191.2,183.706a.721.721,0,0,1-.722-.722v-2.291a.722.722,0,0,1,1.445,0v2.291A.722.722,0,0,1,191.2,183.706Z" transform="translate(-190.48 -179.97)" fill="#5c9a1a"/>
          </g>
          <g id="Grupo_128661" data-name="Grupo 128661" transform="translate(13.376 5.351)">
            <path id="Trazado_188712" data-name="Trazado 188712" d="M257.862,183.706a.721.721,0,0,1-.722-.722v-2.291a.722.722,0,0,1,1.445,0v2.291A.722.722,0,0,1,257.862,183.706Z" transform="translate(-257.14 -179.97)" fill="#5c9a1a"/>
          </g>
        </g>
        <g id="Grupo_128663" data-name="Grupo 128663" transform="translate(13.012 26.47)">
          <path id="Trazado_188713" data-name="Trazado 188713" d="M141.1,246.285H102.182a.722.722,0,1,1,0-1.445H141.1a.722.722,0,1,1,0,1.445Z" transform="translate(-101.46 -244.84)" fill="#5c9a1a"/>
        </g>
        <g id="Grupo_128666" data-name="Grupo 128666" transform="translate(29.98 26.927)">
          <g id="Grupo_128664" data-name="Grupo 128664">
            <path id="Trazado_188714" data-name="Trazado 188714" d="M207.882,267.627a.721.721,0,0,1-.722-.722V248.412a.722.722,0,0,1,1.445,0V266.9A.721.721,0,0,1,207.882,267.627Z" transform="translate(-207.16 -247.69)" fill="#5c9a1a"/>
          </g>
          <g id="Grupo_128665" data-name="Grupo 128665" transform="translate(4.981)">
            <path id="Trazado_188715" data-name="Trazado 188715" d="M238.912,267.627a.721.721,0,0,1-.722-.722V248.412a.722.722,0,0,1,1.445,0V266.9A.723.723,0,0,1,238.912,267.627Z" transform="translate(-238.19 -247.69)" fill="#5c9a1a"/>
          </g>
        </g>
      </g>
    </g>
    <g id="Grupo_132005" data-name="Grupo 132005" transform="translate(2989.373 -1104.774)">
      <g id="lupa" transform="translate(-5550 -11200.659)">
        <g id="Grupo_128668" data-name="Grupo 128668" transform="translate(30.665 15.211)">
          <path id="Trazado_188716" data-name="Trazado 188716" d="M646.8,406.238a9.368,9.368,0,0,0-9.377-9.378" transform="translate(-637.42 -396.86)" fill="none" stroke="#6836bf" stroke-linecap="round" stroke-linejoin="round" stroke-miterlimit="10" stroke-width="2"/>
        </g>
        <g id="Grupo_128669" data-name="Grupo 128669" transform="translate(15.36 9.289)">
          <circle id="Elipse_5110" data-name="Elipse 5110" cx="13.396" cy="13.396" r="13.396" transform="translate(0 4.129) rotate(-8.865)" fill="none" stroke="#6836bf" stroke-linecap="round" stroke-linejoin="round" stroke-miterlimit="10" stroke-width="2"/>
        </g>
        <g id="Grupo_128670" data-name="Grupo 128670" transform="translate(6.075 0)">
          <circle id="Elipse_5111" data-name="Elipse 5111" cx="17.387" cy="17.387" r="17.387" transform="translate(0 24.589) rotate(-45)" fill="none" stroke="#6836bf" stroke-linecap="round" stroke-linejoin="round" stroke-miterlimit="10" stroke-width="2"/>
        </g>
        <path id="Trazado_188717" data-name="Trazado 188717" d="M312.673,665.35l.224.224a3,3,0,0,0,4.233,0L327.1,655.6a3,3,0,0,0,0-4.233l-.224-.224a3,3,0,0,0-4.233,0l-9.974,9.974A3,3,0,0,0,312.673,665.35Z" transform="translate(-311.8 -611.194)" fill="none" stroke="#6836bf" stroke-linecap="round" stroke-linejoin="round" stroke-miterlimit="10" stroke-width="2"/>
        <line id="Línea_402" data-name="Línea 402" x1="2.846" y2="2.846" transform="translate(15.414 36.994)" fill="none" stroke="#6836bf" stroke-linecap="round" stroke-linejoin="round" stroke-miterlimit="10" stroke-width="2"/>
      </g>
    </g>
    <g transform="matrix(1, 0, 0, 1, -2731, -12521.31)" filter="url(#lista_de_check)">
      <path id="lista_de_check-2" data-name="lista de check" d="M1191.6,824.662h-6.246a3.645,3.645,0,0,0-3.432-2.43h-2.767a4.516,4.516,0,0,0-8.958,0h-2.767a3.645,3.645,0,0,0-3.432,2.43h-6.246a2.489,2.489,0,0,0-2.486,2.486v42.964a2.489,2.489,0,0,0,2.486,2.486H1191.6a2.489,2.489,0,0,0,2.486-2.486V827.148A2.489,2.489,0,0,0,1191.6,824.662Zm-26.607,0a2.723,2.723,0,0,1,2.436-1.511h3.64l.012-.447a3.6,3.6,0,0,1,7.189,0l.012.447h3.639a2.719,2.719,0,0,1,2.72,2.72v2.606a1.154,1.154,0,0,1-1.153,1.153h-17.627a1.154,1.154,0,0,1-1.153-1.153v-2.606a2.746,2.746,0,0,1,.016-.29A2.713,2.713,0,0,1,1164.989,824.662Zm.869,5.887h17.626a2.074,2.074,0,0,0,2.072-2.072v-.78h3.433a1.919,1.919,0,0,1,1.917,1.917v38.032a1.919,1.919,0,0,1-1.917,1.917h-28.635a1.919,1.919,0,0,1-1.917-1.917V829.614a1.919,1.919,0,0,1,1.917-1.917h3.432v.78A2.074,2.074,0,0,0,1165.857,830.549Zm27.3,39.563a1.569,1.569,0,0,1-1.567,1.567h-33.849a1.569,1.569,0,0,1-1.567-1.567V827.148a1.569,1.569,0,0,1,1.567-1.567h6.051q-.011.144-.011.29v.906h-3.432a2.839,2.839,0,0,0-2.836,2.836v38.032a2.839,2.839,0,0,0,2.836,2.836h28.635a2.839,2.839,0,0,0,2.836-2.836V829.614a2.839,2.839,0,0,0-2.836-2.836h-3.433v-.906q0-.146-.011-.29h6.051a1.569,1.569,0,0,1,1.567,1.567v42.964Zm-19.835-47.855a1.344,1.344,0,1,1,1.344,1.344A1.344,1.344,0,0,1,1173.327,822.257Zm-9.978,13.216,1.619,2.063,3.271-3.58a.46.46,0,1,1,.679.62l-4,4.382-2.288-2.917a.459.459,0,1,1,.723-.567Zm8.921.783a.46.46,0,0,1,.46-.46h13.623a.46.46,0,1,1,0,.919H1172.73A.46.46,0,0,1,1172.271,836.255Zm-3.382,6.464a.46.46,0,0,1,.029.649l-4,4.382-2.288-2.917a.46.46,0,1,1,.723-.567l1.619,2.063,3.271-3.58A.46.46,0,0,1,1168.889,842.72Zm3.382,2.33a.459.459,0,0,1,.46-.46h13.623a.46.46,0,1,1,0,.919H1172.73A.46.46,0,0,1,1172.271,845.05Zm-3.382,6.465a.46.46,0,0,1,.029.649l-4,4.382-2.288-2.917a.46.46,0,1,1,.723-.567l1.619,2.063,3.271-3.58A.459.459,0,0,1,1168.889,851.515Zm3.382,2.33a.459.459,0,0,1,.46-.46h13.623a.46.46,0,1,1,0,.919H1172.73A.46.46,0,0,1,1172.271,853.844Zm-3.382,6.465a.46.46,0,0,1,.029.649l-4,4.382-2.288-2.917a.46.46,0,1,1,.723-.567l1.619,2.063,3.271-3.58A.459.459,0,0,1,1168.889,860.309Zm3.382,2.33a.46.46,0,0,1,.46-.46h13.623a.46.46,0,1,1,0,.919H1172.73A.46.46,0,0,1,1172.271,862.639Z" transform="translate(-975.61 -718.25)" fill="#eebe01"/>
    </g>
    <g id="apreton-de-manos" transform="translate(-2565.23 -12081.356)">
      <path id="Trazado_188819" data-name="Trazado 188819" d="M63.586,117.284,52.9,103.4a1.248,1.248,0,0,0-1.662-.287l-6.9,4.386h-9a1.148,1.148,0,0,0-.35.062l-6.973,2.012L20.787,107.6l-7.048-4.486a1.258,1.258,0,0,0-1.649.275L.268,118.022a1.254,1.254,0,0,0,.162,1.737l6.2,5.336,5.561,7.485a4.429,4.429,0,0,0,2.787,7.435,4.089,4.089,0,0,0-.05.675,4.437,4.437,0,0,0,4.424,4.424h.05v.087a4.437,4.437,0,0,0,4.424,4.424,6.131,6.131,0,0,0,.687-.05,4.471,4.471,0,0,0,1.275,2.7,4.4,4.4,0,0,0,6.248,0l.675-.675.287.225a4.421,4.421,0,0,0,6.2-.062,4.446,4.446,0,0,0,1.3-3.2,4.418,4.418,0,0,0,4.5-4.486,4.346,4.346,0,0,0,3.2-1.3,4.446,4.446,0,0,0,1.3-3.2,4.432,4.432,0,0,0,3.786-6.835l4.061-8.5,6.1-5.248A1.27,1.27,0,0,0,63.586,117.284ZM13.339,105.825l5.061,3.212L7.391,122.445l-4.411-3.8Zm.712,28.429,1.525-1.525a1.323,1.323,0,0,1,.15-.125,2,2,0,0,1,1.037-.425H16.8c.05,0,.112-.012.162-.012a1.919,1.919,0,0,1,1.287,3.324l-1.475,1.475a1.922,1.922,0,0,1-2.724-2.712Zm3.924,7.785a1.931,1.931,0,0,1,0-2.724l2.962-2.962a1.945,1.945,0,0,1,2.187-.375,1.921,1.921,0,0,1,1.062,1.987,2.058,2.058,0,0,1-.575,1.162L20.7,142.039a1.931,1.931,0,0,1-2.724,0Zm4.474,4.524a1.931,1.931,0,0,1,0-2.724l2.962-2.962a1.946,1.946,0,0,1,2.324-.3,1.9,1.9,0,0,1,.912,1.937,1.956,1.956,0,0,1-.575,1.125l-2.912,2.912a1.919,1.919,0,0,1-1.362.562A1.849,1.849,0,0,1,22.449,146.563Zm5.1,3.936a1.916,1.916,0,0,1,0-2.712l1.525-1.525a1.324,1.324,0,0,1,.15-.125h0a1.976,1.976,0,0,1,.85-.4H30.1c.05-.012.112-.012.162-.025h.2a1.962,1.962,0,0,1,1.375.6,1.324,1.324,0,0,1,.125.15,1.987,1.987,0,0,1-.212,2.587l-1.475,1.475A1.954,1.954,0,0,1,27.547,150.5ZM50.9,136.516a1.916,1.916,0,0,1-2.712,0,.543.543,0,0,0-.087-.075l-8.047-8.135a1.255,1.255,0,0,0-1.787,1.762L46.4,138.29h0A1.922,1.922,0,0,1,43.68,141l-5.448-5.5a1.255,1.255,0,0,0-1.787,1.762l5.361,5.411c.025.037.062.062.087.1a1.917,1.917,0,0,1-2.712,2.712l-2.974-3a1.255,1.255,0,0,0-1.787,1.762l2.887,2.924c.025.037.062.062.087.1a1.917,1.917,0,0,1-2.712,2.712,2.536,2.536,0,0,0-.287-.225c-.087-.062-.1-.1-.062-.2a3.161,3.161,0,0,1,.15-.287,2.883,2.883,0,0,0,.125-.35A4.573,4.573,0,0,0,34.77,147a4.352,4.352,0,0,0-1.874-3.049,4.536,4.536,0,0,0-1.862-.725,4.4,4.4,0,0,0-4.224-5.411h-.137a4.392,4.392,0,0,0-4.336-4.511,4.94,4.94,0,0,0-1.062.112,4.426,4.426,0,0,0-1.462-2.687,4.34,4.34,0,0,0-2.824-1.075,4.424,4.424,0,0,0-3.024,1.137L9.128,124.27l11.584-14.108,3.686,1.012-4.823,8.51a4.432,4.432,0,0,0,1.674,6.036,1,1,0,0,0,.2.1.012.012,0,0,1,.012.013,4.733,4.733,0,0,0,.525.225,4.445,4.445,0,0,0,5.3-2.012l3.137-5.523,5.6.4,14.9,14.9A1.912,1.912,0,0,1,50.9,136.516Zm.512-5.736L37.444,116.809a.543.543,0,0,0-.087-.075,1.241,1.241,0,0,0-.712-.287L29.8,115.96a1.253,1.253,0,0,0-1.175.637l-3.511,6.211a1.875,1.875,0,0,1-1.162.9,1.924,1.924,0,0,1-1.462-.175,1.875,1.875,0,0,1-.9-1.162,1.924,1.924,0,0,1,.175-1.462l4.7-8.3,1.9-.55c.012,0,.025-.012.037-.012L35.507,110h8.6l10.722,13.633Zm5.061-9.11-9.922-12.609,5.061-3.224,9.272,12.034Z" transform="translate(0 -86.505)" fill="#b13e8d"/>
      <path id="Trazado_188820" data-name="Trazado 188820" d="M300.828,43.425a1.28,1.28,0,0,0,.887-.362l8.547-8.547a1.255,1.255,0,1,0-1.774-1.774l-8.547,8.547a1.26,1.26,0,0,0,0,1.774A1.28,1.28,0,0,0,300.828,43.425Z" transform="translate(-262.146 -24.779)" fill="#b13e8d"/>
      <path id="Trazado_188821" data-name="Trazado 188821" d="M131.888,43.062a1.227,1.227,0,0,0,.887.362,1.28,1.28,0,0,0,.887-.362,1.26,1.26,0,0,0,0-1.774l-8.547-8.547a1.255,1.255,0,1,0-1.774,1.774Z" transform="translate(-107.614 -24.779)" fill="#b13e8d"/>
      <path id="Trazado_188822" data-name="Trazado 188822" d="M246.75,53.685a1.253,1.253,0,0,0,1.25-1.25V45.35a1.25,1.25,0,1,0-2.5,0v7.073A1.256,1.256,0,0,0,246.75,53.685Z" transform="translate(-214.829 -35.039)" fill="#b13e8d"/>
      <path id="Trazado_188823" data-name="Trazado 188823" d="M245.639,5.775a1.246,1.246,0,1,0,1.912-1.462,1.279,1.279,0,0,0-1.462-.05A1.255,1.255,0,0,0,245.639,5.775Z" transform="translate(-214.867)" fill="#b13e8d"/>
    </g>
  </g>
</svg>
